<?xml version="1.0" encoding="UTF-8" standalone="no"?>
<svg
   xmlns:dc="http://purl.org/dc/elements/1.1/"
   xmlns:cc="http://creativecommons.org/ns#"
   xmlns:rdf="http://www.w3.org/1999/02/22-rdf-syntax-ns#"
   xmlns:svg="http://www.w3.org/2000/svg"
   xmlns="http://www.w3.org/2000/svg"
   xmlns:sodipodi="http://sodipodi.sourceforge.net/DTD/sodipodi-0.dtd"
   xmlns:inkscape="http://www.inkscape.org/namespaces/inkscape"
   inkscape:version="1.0 (4035a4fb49, 2020-05-01)"
   sodipodi:docname="enegizer2.svg"
   viewBox="0 0 570 448"
   height="448"
   width="570"
   id="svg256"
   version="1.1">
  <metadata
     id="metadata262">
    <rdf:RDF>
      <cc:Work
         rdf:about="">
        <dc:format>image/svg+xml</dc:format>
        <dc:type
           rdf:resource="http://purl.org/dc/dcmitype/StillImage" />
        <dc:title></dc:title>
      </cc:Work>
    </rdf:RDF>
  </metadata>
  <defs
     id="defs260" />
  <sodipodi:namedview
     inkscape:current-layer="g264"
     inkscape:window-maximized="1"
     inkscape:window-y="-11"
     inkscape:window-x="-11"
     inkscape:cy="224"
     inkscape:cx="285"
     inkscape:zoom="1.7857143"
     showgrid="false"
     id="namedview258"
     inkscape:window-height="986"
     inkscape:window-width="1920"
     inkscape:pageshadow="2"
     inkscape:pageopacity="0"
     guidetolerance="10"
     gridtolerance="10"
     objecttolerance="10"
     borderopacity="1"
     bordercolor="#666666"
     pagecolor="#ffffff" />
  <g
     id="g264"
     inkscape:label="Image"
     inkscape:groupmode="layer">
    <g
       transform="translate(-8.4,-7.84)"
       id="g268">
      <path
         id="path298"
         d="m 123.5213,418.17809 c -13.34859,-11.54905 -28.282167,-25.10843 -28.876833,-26.21957 -0.520794,-0.97311 -0.224847,-1.72338 1.417733,-3.59417 1.666087,-1.89757 2.555853,-2.36393 4.50686,-2.36222 2.89763,0.003 12.17745,1.59861 17.76427,3.05535 2.2,0.57363 5.99461,1.29885 8.43246,1.61159 2.43786,0.31273 5.03122,0.94254 5.76303,1.39956 1.22366,0.76418 4.08035,-1.95025 35.55613,-33.78551 18.82406,-19.03905 45.1057,-45.37315 58.40364,-58.52023 13.29794,-13.14708 24.17808,-24.14532 24.17808,-24.44053 0,-0.29521 -1.40994,-1.21929 -3.13321,-2.05351 -4.42871,-2.1439 -8.84524,-7.07834 -12.44332,-13.90249 -3.29128,-6.24227 -10.70239,-27.85756 -16.4688,-48.03303 -1.96136,-6.86239 -3.78918,-12.00982 -4.43867,-12.5 -1.96484,-1.48288 -16.15551,-1.05552 -25.92693,0.78079 -4.72399,0.88777 -10.78515,1.82861 -13.46923,2.09075 -4.30822,0.42078 -5.09508,0.31774 -6.71398,-0.87916 -1.57942,-1.16772 -3.0758,-1.3911 -10.7865,-1.61022 -7.52704,-0.21391 -9.37734,-0.47976 -11.61936,-1.6695 -8.28862,-4.3984 -18.45554,-19.24478 -31.40403,-45.85812 -6.79765,-13.97137 -7.27385,-15.30897 -6.64446,-18.66387 0.52489,-2.79788 4.99255,-8.61609 7.68538,-10.0086 5.19633,-2.68713 9.59212,0.0541 10.82052,6.74757 0.71663,3.90487 0.66921,4.23715 -1.01454,7.11026 l -1.7663,3.01396 11.61622,14.88974 c 6.38892,8.18936 13.09077,16.53107 14.893,18.53715 2.91729,3.24726 3.44411,3.57274 4.80205,2.96681 0.84844,-0.37858 1.85518,-1.70128 2.26872,-2.98074 0.6491,-2.00829 1.51048,-2.68081 6.78853,-5.30015 3.3248,-1.65 8.94271,-4.88581 12.48425,-7.19069 6.88606,-4.48152 9.10031,-5.43708 17.46172,-7.53556 7.16146,-1.79734 10.71264,-3.17469 12.07962,-4.68519 0.663,-0.7326 2.02702,-1.25523 3.27607,-1.25523 1.17705,0 2.8606,-0.56674 3.74121,-1.25942 0.8806,-0.69269 2.72106,-1.72738 4.0899,-2.29932 1.36884,-0.57194 2.4888,-1.34717 2.4888,-1.72274 0,-0.37556 -0.66812,-2.05805 -1.48472,-3.73885 -1.21086,-2.49232 -1.73347,-2.98249 -2.83333,-2.65746 -0.74174,0.21919 -3.05168,0.73524 -5.13321,1.14677 -4.88007,0.96482 -6.68746,-0.11002 -9.00942,-5.3578 -2.19192,-4.95388 -6.18468,-20.94638 -6.19661,-24.81978 -0.008,-2.52597 -0.35871,-3.37406 -2.06889,-5 -1.13274,-1.07694 -2.48274,-2.768163 -3,-3.75829 -2.22412,-4.257307 -0.29339,-10.0895 4.01727,-12.135047 1.24854,-0.592466 3.96243,-2.729486 6.03087,-4.748926 6.22754,-6.080027 13.70387,-8.95624 23.34471,-8.980934 l 3.33333,-0.0085 1,-3.1143 c 0.68032,-2.11872 1.82013,-3.769279 3.56547,-5.163165 2.50862,-2.00347 2.7302,-2.049847 10,-2.093046 4.08899,-0.0243 7.78521,-0.0993 8.21381,-0.166667 0.4286,-0.06737 2.6786,-2.046587 5,-4.398262 6.41158,-6.495203 9.95955,-6.695126 18.87763,-1.063724 5.44895,3.440788 6.85981,4.012583 13.02175,5.277439 9.55494,1.961336 12.39852,8.418325 6.61048,15.010545 -4.61211,5.2529 -11.94021,6.382647 -21.9558,3.384847 C 267.6041,78.75 264.61053,78 264.01427,78 c -0.59625,0 -3.01838,1.461373 -5.38252,3.247493 C 253.75781,84.9298 251.09859,86 246.82277,86 c -2.77998,0 -2.94776,0.09987 -2.51982,1.5 0.25214,0.825 0.62554,4.389633 0.82976,7.921413 0.46378,8.020347 -0.44884,12.069207 -3.87779,17.204107 l -2.59442,3.88517 2.74721,6.91132 c 1.51098,3.80123 2.97592,7.15988 3.25544,7.46367 0.86233,0.93722 9.62226,-2.06059 11.32853,-3.87683 0.88007,-0.93679 2.33114,-1.68084 3.29119,-1.6876 0.94442,-0.007 3.21713,-0.8653 5.05046,-1.90814 1.83334,-1.04285 6.0257,-3.43154 9.31636,-5.30822 5.51364,-3.14445 9.15349,-4.62624 19.01698,-7.74185 2.01666,-0.63701 5.94938,-2.46296 8.73936,-4.05767 6.09616,-3.48446 8.02344,-4.03678 10.50266,-3.00986 1.61946,0.6708 2.43356,0.53333 5.82039,-0.98288 6.84554,-3.06459 8.09702,-2.71703 30.60425,8.49938 19.31604,9.62608 35.55681,18.58986 38.70943,21.3649 3.67123,3.23155 4.6826,6.39005 3.64561,11.3852 -1.3819,6.6566 -4.81209,10.25016 -9.1173,9.55152 -4.19806,-0.68125 -7.71995,-5.00648 -8.23491,-10.1133 L 373,139.66667 363.66667,136.46468 C 348.73376,131.34165 331.06281,126 329.048,126 c -1.51125,0 -1.76595,0.21739 -1.36693,1.16667 0.26972,0.64166 0.63786,1.84725 0.81808,2.67908 0.49599,2.28914 -3.31136,5.43443 -9.82474,8.11634 -10.81952,4.45496 -15.46864,8.62338 -19.80724,17.75924 -2.34652,4.94109 -2.37002,5.07084 -1.13172,6.24908 0.6955,0.66176 8.31455,5.63415 16.93122,11.04974 8.61666,5.4156 19.56666,12.47678 24.33333,15.69152 8.95428,6.03896 11.26809,7.10911 31,14.3376 12.53977,4.59375 16.64411,6.58743 16.73421,8.12863 0.2784,4.76233 -1.59236,11.92085 -4.75367,18.19004 -3.14577,6.23837 -6.8263,10.29028 -12.13207,13.35621 -12.97683,7.49864 -17.14558,10.01122 -17.46346,10.52556 -0.19048,0.30821 3.91997,4.25999 9.13433,8.78174 14.16477,12.28328 34.85911,33.3086 38.48066,39.09611 1.65,2.63682 3.17235,4.81182 3.38299,4.83333 0.37007,0.0378 10.04828,-8.39288 38.60361,-33.62756 7.4685,-6.6 15.58203,-13.70184 18.03007,-15.78186 4.82114,-4.0964 8.40058,-8.63515 10.4698,-13.27582 1.62471,-3.64374 7.21936,-9.94232 8.83115,-9.94232 0.65674,0 9.47894,6.1753 19.60489,13.72287 20.17822,15.04023 20.1198,14.97332 16.47668,18.87329 -1.51934,1.62648 -2.4844,2.06908 -4.5,2.06385 -3.95386,-0.0103 -18.92769,-1.84721 -21.75542,-2.66889 -1.38759,-0.4032 -3.0776,-0.55704 -3.75558,-0.34186 -0.67798,0.21518 -2.69268,0.064 -4.4771,-0.33602 -3.73858,-0.83803 -2.25496,-2.08001 -13.65036,11.42707 -3.52327,4.17617 -14.6025,17.19303 -24.62051,28.92636 -10.01801,11.73333 -20.87457,24.48333 -24.1257,28.33333 -6.95104,8.23145 -11.33399,12.10554 -15.4922,13.69358 -4.92629,1.88136 -5.14911,1.78064 -51.66007,-23.35166 -33.12158,-17.89733 -44.09353,-23.31153 -46.1389,-22.76764 -0.85617,0.22768 -8.15668,5.70076 -16.22335,12.16242 C 249.34991,344.831 229.47433,358 221.18849,358 c -1.94604,0 -4.30592,-0.54297 -5.90458,-1.35855 -1.46464,-0.7472 -3.02768,-1.1423 -3.47344,-0.87802 -0.75948,0.4503 -20.72996,15.52912 -34.1438,25.78048 -3.3,2.52198 -10.93815,8.23132 -16.97366,12.68742 -11.66097,8.60946 -19.44677,15.7831 -20.94117,19.29468 -1.41785,3.3317 -7.36597,9.14066 -9.35962,9.14066 -1.11915,0 -3.42094,-1.50369 -6.87092,-4.48858 z m 88.33036,-293.88256 c 0.81492,-0.57079 1.48167,-1.44661 1.48167,-1.94626 0,-0.72698 -0.4994,-0.77176 -2.5,-0.22417 -3.5196,0.96337 -3.86898,1.28965 -2.47357,2.30999 1.5437,1.12879 1.68939,1.12296 3.4919,-0.13956 z"
         style="fill:#ede3d7;stroke-width:0.666667" />
      <path
         id="path296"
         d="m 120.22749,414.5 c -15.94781,-13.89785 -25.560823,-22.61313 -25.560823,-23.17376 0,-0.3065 0.776666,-1.48029 1.725926,-2.60842 1.415607,-1.68235 2.224714,-2.05225 4.499997,-2.05727 4.27688,-0.009 17.80463,2.69884 20.66142,4.13643 1.72739,0.86925 3.19167,1.14518 4.52415,0.85252 1.22036,-0.26803 3.20599,0.0117 5.21758,0.73506 l 3.24745,1.16777 10.88281,-11.27617 c 14.81802,-15.35361 54.53409,-55.35926 79.23801,-79.81577 11.18188,-11.06988 22.17688,-21.95621 24.43335,-24.19184 l 4.10267,-4.0648 10.56665,-0.4094 c 12.87481,-0.49883 16.12174,-1.31861 26.42905,-6.67281 l 7.86238,-4.08417 14.80428,-0.47706 c 17.3941,-0.56052 22.02432,-1.50024 30.93594,-6.27861 5.24755,-2.81371 5.92583,-3.0185 7.2621,-2.19264 0.81066,0.50101 5.7787,4.68762 11.04008,9.30356 20.48644,17.97325 35.55497,33.71949 39.1426,40.90303 1.39065,2.7845 1.67776,3.02111 2.65798,2.19044 0.6044,-0.5122 13.45722,-11.79975 28.56181,-25.08345 15.10459,-13.2837 28.43812,-24.80938 29.63005,-25.61263 2.97175,-2.00266 7.72165,-8.25438 8.5853,-11.29979 0.71653,-2.52667 5.32679,-8.74127 7.48127,-10.08469 1.54209,-0.96158 1.62899,-0.90533 21.67381,14.03226 18.11136,13.49674 18.33426,13.74799 15.1985,17.13153 -1.3789,1.48786 -2.18774,1.76047 -5.16666,1.74134 -5.85942,-0.0376 -18.43018,-1.7297 -19.51039,-2.62619 -0.70347,-0.58383 -2.11454,-0.70153 -4.63502,-0.38662 -2.71979,0.33982 -4.1394,0.18605 -5.69129,-0.61646 -1.1372,-0.58807 -2.43382,-0.84606 -2.88138,-0.57332 -0.9837,0.59944 -3.35164,3.48028 -3.81376,4.63982 -0.53236,1.33579 -59.57301,70.26015 -63.12152,73.68838 -3.59467,3.47283 -7.73914,5.89706 -10.08162,5.89706 -2.96268,0 -11.25932,-4.07383 -40.13019,-19.70481 -38.50075,-20.84469 -52.67766,-27.94186 -54.74287,-27.40511 -0.87476,0.22736 -8.79046,6.1552 -17.59046,13.17298 -39.98567,31.88762 -58.2654,43.94064 -66.6314,43.93445 -2.18948,-0.001 -4.13265,-0.46833 -5.55138,-1.33333 -1.20053,-0.73196 -2.4385,-1.33084 -2.75103,-1.33084 -0.52379,0 -6.89778,4.7816 -47.54369,35.66606 -7.96262,6.05033 -14.72934,11.0006 -15.03714,11.0006 -1.99994,0 -10.8187,9.39815 -10.8187,11.52949 0,1.74806 -7.26868,9.13718 -8.98826,9.13718 -0.97108,0 -4.58771,-2.68095 -10.11758,-7.5 z m 31.25049,-215.90895 c -4.96704,-0.82702 -7.92288,-2.53127 -12.17673,-7.02075 -6.87686,-7.25779 -13.38219,-17.63739 -22.50231,-35.90363 -10.36333,-20.75621 -10.52492,-21.58954 -5.47544,-28.23722 5.001,-6.58384 12.4098,-6.1065 14.02883,0.90388 0.98197,4.25192 0.75952,6.23947 -0.98578,8.80792 -1.13426,1.6692 -1.45465,2.72804 -1.04838,3.46463 1.11651,2.02429 24.1628,31.07587 26.89062,33.89764 2.43288,2.51667 2.98913,2.79057 4.92848,2.42674 2.15069,-0.40347 2.21716,-0.34085 4.10495,3.86667 1.05537,2.35222 2.14775,5.01019 2.42751,5.90658 0.27975,0.8964 1.39595,3.51696 2.48044,5.82345 1.08448,2.30649 1.8208,4.58709 1.63626,5.06799 -0.61314,1.59784 -7.72207,2.09273 -14.30845,0.9961 z m 108.18869,-23.40682 c -1.1,-0.7921 -3.2683,-2.5826 -4.81844,-3.97888 -3.86442,-3.48084 -6.84562,-3.52899 -9.77758,-0.1579 -2.90373,3.33863 -6.85387,3.8966 -9.41987,1.3306 -1.47233,-1.47232 -1.73919,-2.25288 -1.52786,-4.46886 0.25329,-2.65598 0.23421,-2.68164 -1.76677,-2.37765 -3.24076,0.49235 -10.41552,-0.87808 -13.94468,-2.66353 -6.17907,-3.12609 -12.96916,-10.72732 -12.08134,-13.52458 0.73523,-2.31651 3.95962,-1.77734 5.64106,0.94328 1.99067,3.22098 5.69755,6.30207 9.89283,8.22273 3.18864,1.45981 4.27643,1.61309 9.69709,1.36639 7.10357,-0.32327 11.59044,-2.16258 16.17642,-6.63123 4.65878,-4.53959 7.5958,-12.36424 7.5958,-20.23633 0,-4.67832 1.30715,-7.20122 3.56438,-6.87954 1.36132,0.19402 1.435,0.54966 1.42358,6.87127 -0.0132,7.31332 -0.90218,11.38969 -3.72346,17.07375 l -1.85654,3.74041 4.46268,0.42151 c 2.45448,0.23184 6.90096,0.42365 9.88107,0.42626 5.85496,0.005 7.39452,0.77686 6.59227,3.30453 -0.61671,1.94309 -2.82426,2.28431 -11.69331,1.80743 l -7.81794,-0.42037 0.33505,3.15657 c 0.39398,3.7116 1.20668,4.77205 6.33222,8.26248 2.10834,1.43574 3.83334,2.87473 3.83334,3.19774 0,2.99095 -3.6526,3.62437 -7,1.21392 z m -18.42311,-8.21825 c 0.21072,-1.0874 0.0984,-1.13637 -0.83333,-0.36313 -1.27418,1.05747 -1.43282,2.29344 -0.24356,1.89746 0.45833,-0.1526 0.94293,-0.84306 1.07689,-1.53433 z m -15.57689,-12.04274 c -5.55149,-1.40191 -12.33334,-5.6582 -12.33334,-7.74041 0,-0.84796 0.96854,-1.68623 2.97239,-2.57263 1.63481,-0.72316 3.15498,-1.61027 3.37815,-1.97137 0.22317,-0.3611 -0.36388,-2.33768 -1.30457,-4.3924 -1.50197,-3.28073 -1.89322,-3.68256 -3.21149,-3.2983 -9.12143,2.65878 -11.08533,2.18267 -13.59327,-3.29538 -2.1463,-4.68814 -6.24121,-20.8763 -6.24121,-24.67301 0,-2.41231 -0.43702,-3.40359 -2.60472,-5.90817 -1.4326,-1.65525 -2.95729,-4.07779 -3.38819,-5.38343 -1.09912,-3.330373 0.93919,-7.51706 4.68455,-9.622073 1.48034,-0.831994 4.11525,-2.936447 5.85536,-4.67656 5.97381,-5.973807 12.85074,-8.72284 21.82088,-8.72284 h 4.7544 l 0.78996,-2.63662 c 1.0584,-3.532648 3.61352,-6.436796 6.50186,-7.390034 1.30375,-0.430278 4.81894,-0.703144 7.81152,-0.60637 8.04361,0.260115 8.01098,0.270446 11.87172,-3.7581 4.3347,-4.523098 6.28641,-5.608876 10.08204,-5.608876 2.2439,0 3.89624,0.61471 7.19978,2.678475 6.38309,3.987615 9.08492,5.144861 14.79144,6.335447 8.30794,1.733338 11.08063,5.165311 8.7927,10.883411 -1.44658,3.61534 -4.79184,6.46878 -9.0749,7.740713 -4.74874,1.410227 -6.03094,1.321827 -13.96898,-0.963086 -3.80568,-1.09544 -7.51942,-1.80502 -8.25275,-1.576847 -0.73333,0.22818 -2.72823,1.577173 -4.43309,2.997773 -3.8115,3.175967 -6.42535,4.29918 -11.45608,4.922867 -3.56247,0.44166 -3.85358,0.601133 -3.46544,1.898373 0.23305,0.778914 0.69242,3.366207 1.02081,5.74954 1.08525,7.876217 -0.84223,15.802857 -5.07338,20.863977 l -1.5583,1.86396 1.58251,4.13604 c 4.8372,12.64244 4.4574,11.95436 6.33023,11.46863 0.94567,-0.24527 2.61941,-0.49543 3.71941,-0.55594 1.97288,-0.10851 1.99788,-0.0678 1.84362,3.00415 -0.56356,11.22305 -9.21031,20.16607 -20.17696,20.86831 -2.38333,0.15261 -4.93333,0.12597 -5.66666,-0.0592 z M 212.71049,124.64321 C 213.46421,124.23984 214,123.25166 214,122.26495 c 0,-1.83882 -0.42246,-1.82688 -5.24824,0.14831 -1.89003,0.77359 -2.11602,1.07953 -1.41837,1.92014 0.96115,1.15811 3.51688,1.30537 5.3771,0.30981 z m 165.76036,26.67919 c -2.80408,-2.20569 -4.68269,-5.85471 -4.74638,-9.21941 l -0.0578,-3.05402 -13,-4.23046 c -21.01848,-6.83984 -30.17174,-9.48499 -32.8221,-9.48509 -2.31686,-8e-5 -2.60546,-0.23036 -4.17802,-3.33365 -0.92908,-1.83345 -3.64368,-6.21621 -6.03244,-9.73946 -3.28789,-4.84938 -4.16777,-6.61729 -3.62119,-7.27588 0.39711,-0.47848 2.67581,-1.65213 5.06378,-2.6081 3.85603,-1.54368 4.65357,-1.65417 7.12877,-0.98767 5.17546,1.39361 18.93673,8.11015 44.78442,21.85822 19.14264,10.18172 21.18776,12.56887 18.68601,21.81106 -1.86274,6.88151 -6.86514,9.67823 -11.20505,6.26446 z"
         style="fill:#f0d7cb;stroke-width:0.666667" />
      <path
         id="path294"
         d="m 120.22749,414.5 c -15.94781,-13.89785 -25.560823,-22.61313 -25.560823,-23.17376 0,-0.3065 0.776666,-1.48029 1.725926,-2.60842 1.4785,-1.7571 2.171414,-2.04873 4.833337,-2.03423 4.70303,0.0256 18.58867,2.94198 19.97315,4.19492 0.89496,0.80992 2.27451,1.05683 5.26743,0.94274 3.08226,-0.1175 4.36477,0.12526 5.34669,1.01208 0.71049,0.64167 1.74257,1.16667 2.29353,1.16667 0.55095,0 3.07733,-2.32375 5.61417,-5.16389 2.53684,-2.84014 17.96243,-18.68716 34.2791,-35.2156 16.31667,-16.52844 30.27849,-30.77969 31.02629,-31.66944 0.74779,-0.88976 11.7744,-11.89294 24.50356,-24.45153 l 23.14395,-22.83379 9.32644,-0.30294 c 14.06547,-0.45686 20.01883,-1.9248 28.76809,-7.09345 6.11541,-3.61271 7.84896,-3.94619 23.88902,-4.59549 17.37443,-0.70334 20.23591,-1.29761 29.2137,-6.06716 5.39621,-2.86679 6.3657,-3.18316 7.4428,-2.42872 0.68113,0.47708 5.53916,4.63388 10.79562,9.23734 20.33018,17.80459 35.54074,33.68623 39.11266,40.8383 0.84594,1.69384 1.7588,3.0797 2.02858,3.0797 0.26977,0 12.92372,-10.9702 28.1199,-24.37823 15.19616,-13.40803 28.82939,-25.19373 30.29606,-26.19045 3.24102,-2.20256 9,-9.7339 9,-11.76982 0,-2.63645 6.50067,-10.99483 8.55116,-10.99483 1.15722,0 3.56042,1.69226 22.61216,15.92283 15.96254,11.92311 16.29137,12.31284 13.20184,15.64649 -1.91234,2.06345 -3.4558,2.16985 -14.6985,1.01326 -4.50101,-0.46304 -8.29089,-1.23735 -9.81262,-2.00481 -2.15679,-1.08776 -2.86351,-1.14763 -5.43324,-0.46034 -2.53175,0.67714 -3.19836,0.62993 -4.66392,-0.33035 -0.94048,-0.61623 -2.11823,-1.12041 -2.61722,-1.12041 -1.10391,0 -3.23122,2.20236 -5.65947,5.85915 -2.22845,3.35591 -58.84456,69.60767 -62.12234,72.69512 -1.29682,1.22151 -3.64789,2.98383 -5.22461,3.91627 -5.82104,3.44242 -6.66003,3.09535 -53.10988,-21.96997 -33.48222,-18.06772 -44.42162,-23.46727 -46.46668,-22.93535 -0.85617,0.22269 -8.75668,6.14672 -17.55668,13.1645 -39.87182,31.79683 -58.26641,43.93694 -66.57284,43.93694 -2.30447,0 -4.15168,-0.49324 -6.08056,-1.62364 l -2.77054,-1.62364 -30.28803,23.0124 c -16.65842,12.65682 -31.37906,23.57622 -32.71255,24.26534 -3.14621,1.62592 -9.90192,9.19482 -9.90582,11.09821 -0.004,2.06543 -7.04846,9.538 -8.99126,9.538 -0.97108,0 -4.58771,-2.68095 -10.11758,-7.5 z M 150.2176,197.97041 c -4.17103,-0.82474 -6.14699,-2.08066 -10.59894,-6.73678 -7.21054,-7.54119 -15.11875,-20.43698 -24.77035,-40.39262 -6.74706,-13.95021 -7.29734,-16.48673 -4.58191,-21.12028 3.20913,-5.47596 7.87638,-7.78505 11.65165,-5.76459 3.37286,1.8051 4.59804,9.69374 2.01546,12.97697 -0.91428,1.16232 -1.26083,2.29191 -0.9991,3.25658 0.40884,1.50683 23.31666,30.9424 27.19274,34.9415 1.58024,1.63039 2.71536,2.20214 4.37199,2.20214 2.09759,0 2.35647,0.26067 4.13811,4.16667 5.446,11.93962 6.8933,15.96584 5.95322,16.5612 -1.13564,0.71921 -10.57804,0.65957 -14.37287,-0.0908 z m 111.44907,-22.23437 c -1.1,-0.48315 -3.5,-2.22603 -5.33334,-3.87309 -2.72828,-2.45107 -3.95954,-3.07641 -6.78322,-3.44511 -3.07686,-0.40176 -3.49562,-0.30641 -3.87274,0.88179 -1.10814,3.4914 -6.45766,5.14718 -9.57508,2.96365 -1.26172,-0.88374 -1.49614,-1.58351 -1.34636,-4.01903 l 0.18134,-2.94897 -5.30197,-0.25749 c -2.91608,-0.14163 -6.58026,-0.72092 -8.14262,-1.28732 -7.17808,-2.60227 -15.88215,-11.36996 -14.60124,-14.70796 0.68969,-1.79729 2.9168,-1.17683 4.40208,1.2264 1.82001,2.94484 5.90353,6.61003 9.50977,8.53555 2.43704,1.30124 3.85598,1.52887 9.53004,1.52887 5.90544,0 7.1234,-0.2132 10.66667,-1.86716 9.54473,-4.4554 14.95007,-14.04295 14.98843,-26.58522 0.008,-2.58473 0.35336,-4.1275 1.08895,-4.86309 1.96741,-1.96741 2.58159,-0.80882 2.78259,5.24911 0.22369,6.74206 -0.9271,12.06564 -3.85272,17.82291 -1.07877,2.12287 -1.72031,4.00877 -1.42565,4.19088 0.29466,0.18211 4.96172,0.54024 10.37124,0.79584 10.24247,0.48395 11.61779,0.96261 9.634,3.35291 -0.772,0.93021 -2.16516,1.03355 -10.09083,0.74852 -9.13531,-0.32852 -9.19202,-0.3215 -8.7097,1.07898 0.267,0.77531 0.43123,2.30046 0.36494,3.38922 -0.14211,2.33418 1.91284,4.73364 6.66636,7.78396 3.26872,2.09754 3.77624,3.04263 2.38239,4.43648 -0.97081,0.9708 -1.03067,0.96859 -3.53333,-0.13063 z M 242,166.30988 c 0,-0.90377 -0.2655,-1.64321 -0.58999,-1.64321 -0.89759,0 -2.85411,3.28143 -2.39726,4.02063 C 239.73599,169.85753 242,168.05571 242,166.30988 Z M 225.145,153.97264 C 220.53334,152.82511 214,148.77713 214,147.06732 c 0,-0.47565 1.20173,-1.40673 2.6705,-2.06905 3.9542,-1.7831 4.20885,-2.34797 2.64859,-5.8752 -2.11428,-4.77968 -2.8063,-5.24484 -6.08292,-4.08879 -1.50542,0.53115 -4.02899,0.96572 -5.60792,0.96572 -2.3924,0 -3.09528,-0.31527 -4.21794,-1.89191 -2.54476,-3.57376 -8.05508,-23.04982 -8.07094,-28.52646 -0.003,-1.14677 -0.50728,-2.49677 -1.1199,-3 -2.06356,-1.69508 -4.88616,-6.826757 -4.88364,-8.878817 0.003,-2.761246 2.13829,-6.06534 4.80136,-7.430806 1.20788,-0.619334 4.12739,-2.926247 6.4878,-5.126474 2.36041,-2.200226 5.81041,-4.6928 7.66666,-5.539053 3.67137,-1.673747 11.31071,-3.11862 15.05822,-2.84804 2.98123,0.215253 3.71612,-0.255073 4.2031,-2.689947 0.52686,-2.634326 4.0203,-6.494106 6.64702,-7.34406 1.17334,-0.379668 5.178,-0.622985 8.89924,-0.540703 l 6.7659,0.149603 4.61481,-4.447412 c 6.90629,-6.655768 9.39213,-6.737478 19.06919,-0.626806 3.61696,2.283962 6.34772,3.467136 9.28715,4.023913 6.33077,1.199148 8.10895,1.905585 10.14446,4.030203 1.62015,1.691076 1.82352,2.337809 1.53633,4.885756 -0.44015,3.905006 -2.7081,6.803573 -6.94551,8.876746 -2.94337,1.440054 -4.18609,1.664487 -8.02704,1.449674 -2.49949,-0.139787 -6.81893,-0.960407 -9.59878,-1.8236 -5.92369,-1.83942 -7.38167,-1.624667 -11.3224,1.667726 -4.03062,3.367487 -6.23869,4.36162 -10.53169,4.74166 -5.55983,0.49218 -5.37914,0.3126 -4.3411,4.314314 2.09705,8.084346 0.68338,17.580323 -3.48497,23.409363 -1.24607,1.74252 -2.26558,3.466 -2.26558,3.82996 0,0.36396 1.39093,4.13755 3.09096,8.38576 2.78706,6.9646 3.22949,7.68338 4.5,7.31076 0.77497,-0.22728 2.42499,-0.59746 3.6667,-0.82262 l 2.25765,-0.40938 -0.48623,3.24246 c -1.24327,8.29066 -6.10774,15.5406 -12.17993,18.15279 -3.81209,1.63992 -10.21436,2.31641 -13.70415,1.44804 z m -11.93737,-29.33195 c 1.72457,-1.60668 1.94482,-3.97402 0.36972,-3.97402 -2.06091,0 -6.38329,1.58722 -6.72133,2.46814 -1.02639,2.67473 3.85481,3.832 6.35161,1.50588 z m 166.8882,26.97158 C 376.83821,150.24254 374,145.73885 374,141.93938 v -3.19391 l -11.16667,-3.65972 c -18.80696,-6.16371 -31.02444,-9.85832 -34.11669,-10.317 -2.86749,-0.42535 -3.03803,-0.5907 -6.09493,-5.9097 -1.7297,-3.00965 -4.37274,-7.20289 -5.87343,-9.3183 -2.12127,-2.9902 -2.54526,-4.01132 -1.90507,-4.58805 1.25195,-1.12786 7.55164,-3.61937 9.15145,-3.61937 3.24568,0 24.26241,9.98159 47.67201,22.64112 12.671,6.85228 15.21148,8.58068 17.05426,11.60277 2.22218,3.64428 1.37486,10.62206 -1.73924,14.32296 -1.95067,2.31825 -4.14604,2.86409 -6.88586,1.71209 z"
         style="fill:#ead1b2;stroke-width:0.666667" />
      <path
         id="path292"
         d="m 120.22749,414.5 c -15.94781,-13.89785 -25.560823,-22.61313 -25.560823,-23.17376 0,-0.3065 0.776666,-1.48029 1.725926,-2.60842 2.13448,-2.53668 4.378317,-2.64353 14.740237,-0.70193 9.55724,1.79082 9.92173,1.97311 10.44123,5.2219 0.23621,1.47713 0.69206,2.84799 1.01301,3.04635 0.32096,0.19836 1.37442,-0.83442 2.34104,-2.29507 1.84771,-2.79208 2.57632,-3.06462 5.36182,-2.00557 2.27391,0.86453 2.15878,2.04577 -0.62326,6.3948 -1.28334,2.00617 -2.33334,4.09239 -2.33334,4.63602 0,0.97855 6.63053,6.24278 10.16667,8.0717 1.00833,0.52152 1.83333,1.37341 1.83333,1.8931 0,1.6614 -7.33287,9.02088 -8.98826,9.02088 -0.97108,0 -4.58771,-2.68095 -10.11758,-7.5 z m 23.92762,-19.17542 c -3.44336,-3.85093 -4.68255,-5.69175 -4.29622,-6.38207 0.2986,-0.53358 10.58488,-11.08893 22.85839,-23.45633 19.55023,-19.69977 40.38261,-41.15223 42.87664,-44.15285 0.45715,-0.55 11.23713,-11.2752 23.95553,-23.83379 l 23.12435,-22.83379 9.32644,-0.30294 c 14.06547,-0.45686 20.01883,-1.9248 28.76809,-7.09345 6.11541,-3.61271 7.84896,-3.94619 23.88902,-4.59549 17.37443,-0.70334 20.23591,-1.29761 29.2137,-6.06716 5.39621,-2.86679 6.3657,-3.18316 7.4428,-2.42872 0.68113,0.47708 5.53916,4.63388 10.79562,9.23734 20.8351,18.24678 35.63446,33.78364 39.3249,41.28462 l 1.71248,3.48066 8.2599,-7.2853 c 4.54296,-4.0069 17.50444,-15.44754 28.80331,-25.42363 11.29887,-9.97609 20.85421,-18.13835 21.23409,-18.13835 0.76064,0 9.91647,8.27179 10.7342,9.69776 0.34618,0.60367 -3.30946,5.37893 -11.30235,14.76392 -51.25493,60.1819 -52.13199,61.15658 -57.45699,63.85196 -4.80702,2.43318 -8.6828,0.7489 -51.72898,-22.47973 -33.48222,-18.06772 -44.42162,-23.46727 -46.46668,-22.93535 -0.85617,0.22269 -8.75668,6.14672 -17.55668,13.1645 -39.87182,31.79683 -58.26641,43.93694 -66.57284,43.93694 -2.34114,0 -4.1552,-0.4953 -6.19743,-1.69213 l -2.88741,-1.69214 -30.4115,23.10715 c -16.72633,12.70893 -30.90464,23.23611 -31.50737,23.39372 -0.72498,0.18959 -2.73363,-1.54504 -5.93501,-5.12535 z M 498.53079,266.41815 c -3.55807,-0.41612 -6.75958,-1.05543 -7.11448,-1.4207 -0.3549,-0.36526 -0.90754,-1.69371 -1.22808,-2.9521 -0.79544,-3.12267 -1.94157,-3.2745 -3.29493,-0.43648 -1.23695,2.59392 -2.77135,3.40027 -5.27475,2.77196 -2.18219,-0.5477 -2.07748,-2.17639 0.46356,-7.21016 l 2.08212,-4.12465 -2.24878,-1.88848 c -1.23683,-1.03867 -4.13492,-2.82069 -6.4402,-3.96005 -2.30527,-1.13936 -4.34253,-2.31608 -4.52724,-2.61494 C 470.07842,243.17552 477.18445,234 479.14371,234 c 1.23485,0 3.45718,1.55979 22.68628,15.92283 15.96254,11.92311 16.29137,12.31284 13.20184,15.64649 -1.4549,1.56987 -2.09692,1.75529 -5.83333,1.68471 -2.30917,-0.0436 -7.10965,-0.41977 -10.66771,-0.83588 z M 151.46882,197.96443 c -1.94215,-0.34601 -4.4131,-1.08516 -5.491,-1.64257 -5.17563,-2.67642 -11.53165,-10.46263 -19.41265,-23.78073 -6.17696,-10.43846 -17.28544,-33.32819 -17.70983,-36.49223 -0.44609,-3.32584 1.13719,-6.59102 4.85983,-10.02243 2.21411,-2.0409 3.4684,-2.69314 5.17902,-2.69314 3.91422,0 6.40065,3.76544 6.4318,9.7403 0.004,0.77384 -0.75577,2.53148 -1.68846,3.90588 -2.0185,2.97443 -2.36494,2.2377 6.2795,13.35382 13.10748,16.85529 21.45621,26.92282 22.63717,27.29764 0.69188,0.2196 1.70216,0.22881 2.24507,0.0205 0.54291,-0.20834 1.32636,0.03 1.741,0.52959 0.62252,0.75008 3.66614,7.62713 7.65372,17.29352 0.41018,0.99434 0.56986,1.98382 0.35484,2.19884 -0.7281,0.7281 -9.5277,0.92389 -13.08001,0.29103 z m 109.17952,-23.06296 c -0.90659,-0.6042 -2.9219,-2.31524 -4.47847,-3.80234 -2.23457,-2.13481 -3.4972,-2.78784 -6,-3.10319 -3.02855,-0.38159 -3.2739,-0.28601 -5.5032,2.14365 -3.16118,3.44529 -5.95647,3.96455 -8.36678,1.55424 -1.5395,-1.5395 -1.73018,-2.15317 -1.36965,-4.40783 l 0.41885,-2.61933 h -4.55354 c -8.86927,0 -16.3242,-3.63322 -21.33639,-10.39847 -3.15084,-4.25288 -3.20442,-4.42974 -1.71613,-5.66491 1.16281,-0.96504 0.72562,-1.34508 6.09468,5.29795 1.35808,1.68032 3.84942,3.51236 6.65316,4.89247 4.03818,1.98777 5.04469,2.20302 10.16228,2.17332 4.99955,-0.029 6.2606,-0.30106 10.52406,-2.27022 C 250.66998,154.31237 256,145.24584 256,133.48277 c 0,-4.87755 0.79232,-6.8161 2.78587,-6.8161 1.36288,0 1.39412,0.20775 1.02752,6.83333 -0.40718,7.35919 -2.06924,13.48633 -4.85567,17.90031 -0.89341,1.41526 -1.62439,2.70116 -1.62439,2.85756 0,0.33751 10.51767,1.16222 16.66667,1.30686 3.89346,0.0916 4.35414,0.24797 4.53832,1.54055 0.29125,2.04399 -2.24525,2.4421 -11.89141,1.86637 -5.51822,-0.32936 -7.98024,-0.25634 -7.98024,0.23668 0,0.39214 0.31072,0.90502 0.69048,1.13972 0.37976,0.23471 0.62186,1.5898 0.53798,3.01132 -0.17982,3.0476 0.77503,4.29495 5.88338,7.68568 2.26972,1.50656 3.55482,2.82868 3.55482,3.65725 0,1.64175 -2.36928,1.74247 -4.68499,0.19917 z m -18.98192,-7.14087 c 0.56677,-0.865 0.83535,-2.08127 0.59683,-2.70283 -0.39029,-1.01709 -0.59181,-0.98152 -2.01512,0.35561 -1.76548,1.65858 -2.10978,3.91995 -0.59683,3.91995 0.54155,0 1.44835,-0.70772 2.01512,-1.57273 z m -18.86311,-15.02342 c -3.4967,-1.20777 -8.22349,-4.45227 -8.35829,-5.73718 -0.0385,-0.36667 1.34567,-1.33875 3.07585,-2.16019 1.74544,-0.82868 3.1458,-1.95142 3.1458,-2.52216 0,-1.22878 -3.04754,-7.39566 -3.92178,-7.93598 -0.33759,-0.20864 -2.52086,0.12084 -4.8517,0.73217 -5.9326,1.55601 -7.41229,1.03135 -9.49245,-3.36574 -2.34757,-4.96237 -5.75223,-17.80026 -6.20969,-23.41477 -0.35433,-4.34872 -0.57515,-4.87722 -3.24115,-7.7572 -3.58271,-3.870277 -4.29397,-6.85603 -2.47033,-10.370097 0.77443,-1.492293 2.33507,-3.03892 3.90518,-3.870126 1.43839,-0.761467 4.2201,-2.978287 6.18158,-4.92626 2.15594,-2.141094 5.31974,-4.362307 8,-5.616567 3.7849,-1.77118 5.44756,-2.127333 11.36249,-2.433933 L 226.85763,73 l 0.85016,-2.88744 c 1.05593,-3.586301 2.53496,-5.287651 5.95888,-6.85458 2.24028,-1.02525 3.6908,-1.155057 9.07188,-0.811845 l 6.4052,0.408534 5.03069,-4.664514 c 2.91719,-2.704852 5.845,-4.827376 6.96897,-5.05217 3.13194,-0.626389 6.67093,0.542936 11.63659,3.84488 3.17678,2.112416 6.06691,3.418516 9.10385,4.114194 6.87335,1.57449 9.98107,2.854241 11.44232,4.711914 2.60332,3.309587 1.13946,8.289167 -3.43608,11.688407 -4.87546,3.62206 -10.34553,4.07216 -18.36469,1.511133 -7.44453,-2.377513 -8.54701,-2.246286 -13.53029,1.61052 -4.39889,3.404514 -7.92776,4.7143 -12.70141,4.7143 -2.56826,0 -2.74951,0.115514 -2.35356,1.5 1.91266,6.687867 2.06682,14.179317 0.40975,19.911757 -0.62429,2.15964 -1.37718,3.41158 -4.99148,8.30006 -0.94245,1.2747 -0.77692,1.97732 2.19892,9.33333 3.49523,8.63989 3.50322,8.64685 8.38053,7.29497 l 1.93786,-0.53713 -0.40859,3.44993 c -1.683,14.21024 -14.57786,22.67089 -27.66382,18.15093 z M 213.5,124.79534 c 1.2178,-1.04591 1.58571,-3.791 0.59051,-4.40607 -0.31688,-0.19584 -2.18833,0.16145 -4.15876,0.79399 -4.38399,1.40733 -5.07807,3.06578 -1.85095,4.42268 2.32638,0.97817 3.54947,0.79523 5.4192,-0.8106 z m 164.45605,25.05814 c -2.66699,-2.66699 -3.89743,-5.5675 -3.48904,-8.22473 0.18976,-1.23476 -0.0376,-2.32434 -0.5769,-2.76466 -1.6631,-1.35784 -38.29715,-12.9007 -45.99099,-14.4911 -1.29261,-0.2672 -2.34577,-1.39639 -3.91951,-4.20251 -1.18359,-2.11043 -3.77966,-6.20997 -5.76905,-9.11008 -4.16595,-6.07308 -4.12409,-6.25445 1.93496,-8.38403 3.61613,-1.27097 3.90135,-1.27845 7.26972,-0.19059 4.42197,1.42814 27.73667,12.87875 43.9847,21.60231 17.73121,9.5199 20.11831,12.34808 17.63431,20.89276 -2.0789,7.15115 -6.74663,9.2042 -11.0782,4.87263 z"
         style="fill:#eeb9a6;stroke-width:0.666667" />
      <path
         id="path290"
         d="m 120.22749,414.5 c -15.94781,-13.89785 -25.560823,-22.61313 -25.560823,-23.17376 0,-0.3065 0.776666,-1.48029 1.725926,-2.60842 2.13448,-2.53668 4.378317,-2.64353 14.740237,-0.70193 9.64032,1.80639 9.9317,1.95554 10.38225,5.31468 0.5961,4.44428 0.8617,4.40162 4.51047,-0.7244 0.84526,-1.18747 1.4099,-1.35635 3.21172,-0.9606 1.20238,0.26408 2.34396,0.8914 2.53684,1.39403 0.19288,0.50263 -0.72739,2.68859 -2.04504,4.85768 -1.31766,2.16909 -2.39574,4.42258 -2.39574,5.00776 0,1.21008 5.64066,5.87777 9.45382,7.82309 1.4004,0.71444 2.54618,1.72577 2.54618,2.24742 0,1.66406 -7.33088,9.02445 -8.98826,9.02445 -0.97108,0 -4.58771,-2.68095 -10.11758,-7.5 z m 24.83244,-19.4087 c -2.4163,-2.69979 -4.39326,-5.26877 -4.39326,-5.70885 0,-0.44008 14.25,-15.1371 31.66666,-32.66006 C 189.75,339.19944 204,324.42302 204,323.88591 c 0,-0.78878 26.05121,-27.109 44.92595,-45.38985 l 3.96192,-3.83727 9.2194,-0.29946 c 13.95162,-0.45316 19.92994,-1.93204 28.66106,-7.08997 6.11541,-3.61271 7.84896,-3.94619 23.88902,-4.59549 17.37443,-0.70334 20.23591,-1.29761 29.2137,-6.06716 5.39621,-2.86679 6.3657,-3.18316 7.4428,-2.42872 0.68113,0.47708 5.53916,4.63388 10.79562,9.23734 23.34652,20.44621 38.61966,36.95568 40.26953,43.52928 0.23772,0.94713 0.58577,1.72206 0.77346,1.72206 0.42813,0 7.3914,-6.06124 35.51421,-30.91364 12.28333,-10.8549 22.5457,-19.66497 22.80526,-19.57794 0.25956,0.087 2.60888,2.07404 5.2207,4.41558 3.17744,2.84862 4.65165,4.62881 4.45522,5.37995 -0.37077,1.41783 -58.28092,69.47267 -62.03484,72.90211 -1.52882,1.39666 -3.97685,3.16458 -5.44006,3.9287 -3.13106,1.63511 -5.4233,1.24145 -12.64821,-2.17216 -2.38797,-1.12826 -4.63333,-1.87118 -4.9897,-1.65092 -0.35637,0.22024 -12.88504,-6.22724 -27.84149,-14.32776 -36.63627,-19.84244 -50.89105,-26.95878 -52.93642,-26.42718 -0.87476,0.22736 -8.79046,6.1552 -17.59046,13.17298 -39.98567,31.88762 -58.2654,43.94064 -66.6314,43.93445 -3.23028,-0.003 -7.3226,-1.71074 -8.48724,-3.54303 -0.43302,-0.68125 -4.62419,2.40456 -46.2147,34.02615 -8.8,6.69071 -16.19803,12.16968 -16.44006,12.17549 -0.24204,0.006 -2.41704,-2.19836 -4.83334,-4.89815 z M 498.53079,266.41815 c -3.55807,-0.41612 -6.7325,-1.05543 -7.05428,-1.4207 -0.32179,-0.36526 -0.94769,-1.93912 -1.39088,-3.49745 -0.4432,-1.55833 -1.04822,-2.83333 -1.34448,-2.83333 -0.29626,0 -1.07675,1.19328 -1.73442,2.65174 -1.2825,2.84409 -2.80664,3.71034 -5.38818,3.06242 -2.21616,-0.55622 -2.08331,-2.36628 0.52142,-7.10429 l 2.13998,-3.89261 -1.5641,-1.66491 c -0.86026,-0.91571 -3.92325,-2.89227 -6.80664,-4.39238 -2.8834,-1.50011 -5.24254,-2.97042 -5.24254,-3.26736 0,-1.85209 6.97674,-10.05928 8.55116,-10.05928 1.15722,0 3.56042,1.69226 22.61216,15.92283 15.96254,11.92311 16.29137,12.31284 13.20184,15.64649 -1.4549,1.56987 -2.09692,1.75529 -5.83333,1.68471 -2.30917,-0.0436 -7.10965,-0.41977 -10.66771,-0.83588 z M 152,197.37409 c -1.65,-0.30233 -4.05,-0.99192 -5.33333,-1.53242 -4.58012,-1.92898 -11.10536,-9.60319 -18.44338,-21.6909 -5.91407,-9.7421 -18.28021,-34.96256 -18.70848,-38.15551 -0.27088,-2.01964 0.0429,-3.26091 1.41682,-5.60541 4.40644,-7.51901 11.19932,-8.49334 13.03874,-1.8702 1.06297,3.8274 0.8434,5.62102 -1.02463,8.37007 -0.94651,1.39291 -1.58308,2.89178 -1.41461,3.33082 0.37805,0.98517 18.38975,24.10295 24.62238,31.60249 4.73816,5.70129 6.39643,7.03304 8.34824,6.70446 0.79064,-0.1331 1.62883,0.74929 2.66532,2.80584 2.13058,4.22742 6.83862,15.54986 6.57534,15.81315 -0.55491,0.55491 -9.0568,0.71971 -11.74241,0.22761 z m 109.66667,-22.53415 c -1.1,-0.57315 -3.57742,-2.38511 -5.50537,-4.02658 -2.8689,-2.4426 -4.06139,-3.02167 -6.56765,-3.18921 -2.81254,-0.18803 -3.26584,0.009 -5.55808,2.4189 -4.47717,4.70648 -9.29644,2.96986 -8.47098,-3.05252 l 0.41584,-3.03386 -3.21004,0.42583 c -5.7377,0.76113 -13.25428,-1.48499 -18.60669,-5.56008 -2.62575,-1.99913 -6.83037,-7.58759 -6.83037,-9.07841 0,-2.0534 1.89818,-1.06135 4.34378,2.27021 4.55048,6.199 10.80682,9.31911 18.68637,9.31911 14.99951,0 24.98337,-10.21682 26.05861,-26.66666 0.43646,-6.67728 0.75456,-8 1.92394,-8 0.79548,0 0.9873,1.1147 0.9873,5.7371 0,6.96438 -1.349,12.56226 -4.35524,18.07268 -1.24317,2.27872 -2.0419,4.2781 -1.77496,4.44308 0.26694,0.16498 5.06389,0.5179 10.65989,0.78426 5.596,0.26638 10.35453,0.77553 10.57451,1.13146 0.9349,1.51272 -1.82404,1.90834 -10.91101,1.56461 -9.31261,-0.35227 -11.15708,-0.0297 -9.18585,1.60623 0.5987,0.49688 0.99266,1.96651 0.99266,3.70306 0,2.71093 0.21857,3.0471 3.73961,5.7517 2.05679,1.57986 4.33759,3.33519 5.06845,3.90072 1.09417,0.84664 1.16959,1.15998 0.42706,1.77434 -0.67538,0.55881 -1.4039,0.4845 -2.90178,-0.29597 z m -20.21916,-5.94327 c 1.58454,-1.43398 1.67862,-5.0848 0.12314,-4.77888 -1.55926,0.30665 -3.82925,3.58006 -3.34954,4.83016 0.52018,1.35556 1.69244,1.33694 3.2264,-0.0513 z M 252,162.37268 c 0,-0.16169 -0.3,-0.4794 -0.66667,-0.70601 -0.36666,-0.22662 -0.66666,-0.0943 -0.66666,0.29398 0,0.38831 0.3,0.70602 0.66666,0.70602 0.36667,0 0.66667,-0.1323 0.66667,-0.29399 z m -27.66667,-9.93017 c -3.7132,-1.23244 -6.45513,-2.73545 -7.8972,-4.32892 -1.20813,-1.33497 -1.18406,-1.37837 1.53405,-2.76504 1.5188,-0.77484 2.93757,-1.86775 3.15283,-2.4287 0.45632,-1.18916 -2.16831,-7.1192 -3.80755,-8.60269 -1.00697,-0.91129 -1.52873,-0.91133 -5.02627,-3.4e-4 -5.46088,1.42238 -6.66615,1.30151 -8.14466,-0.81682 -2.74241,-3.92917 -7.47786,-20.47959 -7.47786,-26.13517 0,-3.59657 -0.17056,-4.06215 -1.953,-5.33136 C 191.91315,100.03932 190,96.604087 190,93.569647 c 0,-3.106834 1.31548,-5.188427 4.20713,-6.657314 1.16942,-0.594033 3.93508,-2.803753 6.14593,-4.9105 6.52073,-6.2137 12.82441,-8.6685 22.25978,-8.6685 h 4.54721 l 0.84255,-3.009293 c 0.9187,-3.281273 4.16058,-6.671614 7.08014,-7.404377 0.94873,-0.238115 4.06207,-0.238029 6.91853,1.92e-4 6.59912,0.550345 7.97844,0.01443 13.18483,-5.12274 4.15923,-4.103934 4.21084,-4.130448 8.04083,-4.130448 3.52488,0 4.3076,0.297249 9.14723,3.473817 4.32999,2.842059 6.44386,3.738801 11.62337,4.930864 5.21378,1.199951 6.71361,1.83979 8.5,3.626183 2.42929,2.429289 2.59243,3.332202 1.20294,6.657716 -3.10994,7.44316 -11.64564,9.652533 -23.18928,6.002293 -3.5177,-1.112347 -6.47182,-1.677973 -7.46356,-1.429067 -0.90278,0.226587 -3.05566,1.635987 -4.78417,3.132007 -3.88475,3.362227 -5.44635,4.009273 -10.93013,4.528907 L 243,85 l 0.22419,2 c 0.1233,1.1 0.2733,5.75 0.33333,10.333333 0.12212,9.323937 -0.7898,12.480257 -4.82606,16.703807 -1.13563,1.18834 -2.06479,2.20489 -2.06479,2.25901 0,0.0541 1.4732,3.83463 3.27378,8.40112 3.12888,7.93524 3.35756,8.30136 5.16666,8.27174 1.04109,-0.0171 2.59936,-0.27225 3.46283,-0.56712 1.53251,-0.52335 1.55843,-0.46698 1.08704,2.36432 -0.74392,4.46828 -2.75543,9.31518 -4.99039,12.02475 -4.13583,5.01412 -13.99636,7.75482 -20.33326,5.65155 z m -10.33957,-27.43587 c 0.95149,-1.01281 1.36755,-2.18128 1.22389,-3.43721 -0.18996,-1.66067 -0.47212,-1.8844 -2.21765,-1.75848 -3.40303,0.24552 -7.66667,2.1776 -7.66667,3.4742 0,2.19556 3.41244,4.16162 6.10945,3.51991 0.61019,-0.14519 1.75813,-0.95447 2.55098,-1.79842 z m 163.90301,23.63195 c -1.40989,-1.4821 -2.60002,-3.2071 -2.64474,-3.83333 -0.0447,-0.62623 -0.11971,-2.33859 -0.16666,-3.80526 L 375,138.33333 358.66667,132.88935 c -8.98334,-2.99419 -19.33334,-6.25078 -23,-7.23684 -9.25555,-2.48909 -9.43458,-2.5828 -11.06632,-5.79251 -0.79967,-1.573 -3.06188,-5.28041 -5.02715,-8.23869 -1.96526,-2.95828 -3.5732,-5.67346 -3.5732,-6.03374 0,-0.36027 1.80153,-1.30324 4.0034,-2.09548 3.86815,-1.39178 4.12153,-1.40295 7.5,-0.33057 3.56783,1.13249 34.94901,16.70414 48.11051,23.87291 7.996,4.35524 12.68536,8.26962 13.42175,11.20364 0.68373,2.72418 -0.84655,8.76821 -2.81113,11.10299 -2.47484,2.94119 -5.06986,2.72229 -8.32776,-0.70247 z"
         style="fill:#b3c7c8;stroke-width:0.666667" />
      <path
         id="path288"
         d="m 120.55793,414.20296 c -18.73207,-16.42677 -25.224597,-22.40605 -25.224597,-23.23055 0,-0.46964 0.93808,-1.64322 2.084614,-2.60798 1.82598,-1.53646 2.467006,-1.70056 5.166663,-1.32268 6.61493,0.92592 17.11808,3.10152 17.83146,3.69358 0.41298,0.34275 0.94186,1.81751 1.17528,3.27726 0.23342,1.45974 0.68526,2.65408 1.00407,2.65408 0.31881,0 1.38053,-1.05 2.35938,-2.33334 1.90983,-2.5039 3.90821,-2.97837 6.02507,-1.43049 1.17701,0.86065 1.12065,1.09061 -1.20592,4.92054 -1.34234,2.20973 -2.44062,4.44733 -2.44062,4.97243 0,1.28513 2.85426,3.88054 7.5,6.81986 2.10834,1.33392 3.83334,2.91408 3.83334,3.51148 0,1.19528 -7.35675,8.87285 -8.50208,8.87285 -0.39347,0 -4.71647,-3.50867 -9.60666,-7.79704 z m 24.502,-19.11166 c -2.4163,-2.69979 -4.39326,-5.26877 -4.39326,-5.70885 0,-0.44008 14.175,-15.18518 31.5,-32.76688 17.325,-17.58172 35.1,-35.73892 39.5,-40.34935 4.4,-4.61043 15.52585,-15.69605 24.72412,-24.6347 l 16.72412,-16.2521 9.46144,-0.35142 c 13.1604,-0.48881 17.38,-1.51305 27.7809,-6.74335 l 8.7382,-4.39417 15.2856,-0.56076 c 17.41014,-0.63871 20.22444,-1.19141 28.91111,-5.67789 3.1789,-1.64184 6.26155,-2.98516 6.85033,-2.98516 1.4363,0 21.16318,17.37332 32.49403,28.61724 10.25049,10.17184 15.76593,16.7532 18.34789,21.89377 0.96384,1.91895 1.92272,3.48899 2.13086,3.48899 0.46591,0 6.94438,-5.63334 35.5514,-30.91364 12.28333,-10.8549 22.5457,-19.66497 22.80526,-19.57794 0.25956,0.087 2.60888,2.07404 5.2207,4.41558 3.17744,2.84862 4.65165,4.62881 4.45522,5.37995 -0.37077,1.41783 -58.28092,69.47267 -62.03484,72.90211 -1.52882,1.39666 -3.97685,3.16458 -5.44006,3.9287 -3.12218,1.63048 -5.42654,1.23992 -12.55426,-2.12777 -2.3363,-1.10385 -4.6263,-2.00699 -5.0889,-2.00699 -0.4626,0 -7.63354,-3.70811 -15.93544,-8.24024 -40.27829,-21.98853 -61.89337,-33.1014 -64.34565,-33.08176 -0.82267,0.007 -7.55709,4.92646 -16.08203,11.74884 -29.23334,23.39499 -49.50105,37.95095 -59.73158,42.89832 -6.86113,3.31796 -10.64629,3.55682 -15.09061,0.95228 l -2.93933,-1.72256 -14.78591,11.21374 c -8.13225,6.16756 -21.98591,16.68796 -30.78591,23.37867 -8.8,6.69071 -16.19803,12.16968 -16.44006,12.17549 -0.24204,0.006 -2.41704,-2.19836 -4.83334,-4.89815 z m 352.6459,-129.20268 c -2.91178,-0.33201 -5.63823,-0.88921 -6.05876,-1.23822 -0.42054,-0.34901 -1.1252,-1.83813 -1.56594,-3.30915 -0.44072,-1.47102 -1.01428,-2.67377 -1.27456,-2.67278 -0.26028,6.6e-4 -1.07324,1.12245 -1.80657,2.49213 -1.39745,2.61009 -2.6989,3.22684 -5.38606,2.5524 -2.13788,-0.53657 -2.03667,-1.77489 0.52603,-6.43646 l 2.13998,-3.89261 -1.5496,-1.64948 c -0.85228,-0.90721 -3.60402,-2.72904 -6.11498,-4.04852 -2.51096,-1.31946 -4.73888,-2.67977 -4.95095,-3.0229 -0.99139,-1.60411 5.49547,-9.99636 7.72677,-9.99636 1.1395,0 35.65861,25.29249 36.76527,26.93826 0.74173,1.10308 0.64418,1.38915 -1.12463,3.29772 -1.5158,1.63558 -2.01332,1.75767 -6.83333,1.67682 -2.85917,-0.0479 -7.58087,-0.35884 -10.49267,-0.69085 z M 152,197.37409 c -1.65,-0.30233 -4.05,-0.99192 -5.33333,-1.53242 -4.58012,-1.92898 -11.10536,-9.60319 -18.44338,-21.6909 -5.91407,-9.7421 -18.28021,-34.96256 -18.70848,-38.15551 -0.27088,-2.01964 0.0429,-3.26091 1.41682,-5.60541 4.40644,-7.51901 11.19932,-8.49334 13.03874,-1.8702 1.06297,3.8274 0.8434,5.62102 -1.02463,8.37007 -0.94651,1.39291 -1.58308,2.89178 -1.41461,3.33082 0.37805,0.98517 18.38975,24.10295 24.62238,31.60249 4.73816,5.70129 6.39643,7.03304 8.34824,6.70446 0.79064,-0.1331 1.62883,0.74929 2.66532,2.80584 2.13058,4.22742 6.83862,15.54986 6.57534,15.81315 -0.55491,0.55491 -9.0568,0.71971 -11.74241,0.22761 z m 109.66667,-22.53415 c -1.1,-0.57315 -3.57742,-2.38511 -5.50537,-4.02658 -2.8689,-2.4426 -4.06139,-3.02167 -6.56765,-3.18921 -2.81254,-0.18803 -3.26584,0.009 -5.55808,2.4189 -4.47717,4.70648 -9.29644,2.96986 -8.47098,-3.05252 l 0.41584,-3.03386 -3.21004,0.42583 c -5.7377,0.76113 -13.25428,-1.48499 -18.60669,-5.56008 -2.62575,-1.99913 -6.83037,-7.58759 -6.83037,-9.07841 0,-2.0534 1.89818,-1.06135 4.34378,2.27021 4.55048,6.199 10.80682,9.31911 18.68637,9.31911 14.99951,0 24.98337,-10.21682 26.05861,-26.66666 0.43646,-6.67728 0.75456,-8 1.92394,-8 0.79548,0 0.9873,1.1147 0.9873,5.7371 0,6.96438 -1.349,12.56226 -4.35524,18.07268 -1.24317,2.27872 -2.0419,4.2781 -1.77496,4.44308 0.26694,0.16498 5.06389,0.5179 10.65989,0.78426 5.596,0.26638 10.35453,0.77553 10.57451,1.13146 0.9349,1.51272 -1.82404,1.90834 -10.91101,1.56461 -9.31261,-0.35227 -11.15708,-0.0297 -9.18585,1.60623 0.5987,0.49688 0.99266,1.96651 0.99266,3.70306 0,2.71093 0.21857,3.0471 3.73961,5.7517 2.05679,1.57986 4.33759,3.33519 5.06845,3.90072 1.09417,0.84664 1.16959,1.15998 0.42706,1.77434 -0.67538,0.55881 -1.4039,0.4845 -2.90178,-0.29597 z m -20.21916,-5.94327 c 1.58454,-1.43398 1.67862,-5.0848 0.12314,-4.77888 -1.55926,0.30665 -3.82925,3.58006 -3.34954,4.83016 0.52018,1.35556 1.69244,1.33694 3.2264,-0.0513 z M 252,162.37268 c 0,-0.16169 -0.3,-0.4794 -0.66667,-0.70601 -0.36666,-0.22662 -0.66666,-0.0943 -0.66666,0.29398 0,0.38831 0.3,0.70602 0.66666,0.70602 0.36667,0 0.66667,-0.1323 0.66667,-0.29399 z m -27.66667,-9.93017 c -3.7132,-1.23244 -6.45513,-2.73545 -7.8972,-4.32892 -1.20813,-1.33497 -1.18406,-1.37837 1.53405,-2.76504 1.5188,-0.77484 2.93757,-1.86775 3.15283,-2.4287 0.45632,-1.18916 -2.16831,-7.1192 -3.80755,-8.60269 -1.00697,-0.91129 -1.52873,-0.91133 -5.02627,-3.4e-4 -5.46088,1.42238 -6.66615,1.30151 -8.14466,-0.81682 -2.74241,-3.92917 -7.47786,-20.47959 -7.47786,-26.13517 0,-3.59657 -0.17056,-4.06215 -1.953,-5.33136 C 191.91315,100.03932 190,96.604087 190,93.569647 c 0,-3.106834 1.31548,-5.188427 4.20713,-6.657314 1.16942,-0.594033 3.93508,-2.803753 6.14593,-4.9105 6.52073,-6.2137 12.82441,-8.6685 22.25978,-8.6685 h 4.54721 l 0.84255,-3.009293 c 0.9187,-3.281273 4.16058,-6.671614 7.08014,-7.404377 0.94873,-0.238115 4.06207,-0.238029 6.91853,1.92e-4 6.59912,0.550345 7.97844,0.01443 13.18483,-5.12274 4.15923,-4.103934 4.21084,-4.130448 8.04083,-4.130448 3.52488,0 4.3076,0.297249 9.14723,3.473817 4.32999,2.842059 6.44386,3.738801 11.62337,4.930864 5.21378,1.199951 6.71361,1.83979 8.5,3.626183 2.42929,2.429289 2.59243,3.332202 1.20294,6.657716 -3.10994,7.44316 -11.64564,9.652533 -23.18928,6.002293 -3.5177,-1.112347 -6.47182,-1.677973 -7.46356,-1.429067 -0.90278,0.226587 -3.05566,1.635987 -4.78417,3.132007 -3.88475,3.362227 -5.44635,4.009273 -10.93013,4.528907 L 243,85 l 0.22419,2 c 0.1233,1.1 0.2733,5.75 0.33333,10.333333 0.12212,9.323937 -0.7898,12.480257 -4.82606,16.703807 -1.13563,1.18834 -2.06479,2.20489 -2.06479,2.25901 0,0.0541 1.4732,3.83463 3.27378,8.40112 3.12888,7.93524 3.35756,8.30136 5.16666,8.27174 1.04109,-0.0171 2.59936,-0.27225 3.46283,-0.56712 1.53251,-0.52335 1.55843,-0.46698 1.08704,2.36432 -0.74392,4.46828 -2.75543,9.31518 -4.99039,12.02475 -4.13583,5.01412 -13.99636,7.75482 -20.33326,5.65155 z m -10.33957,-27.43587 c 0.95149,-1.01281 1.36755,-2.18128 1.22389,-3.43721 -0.18996,-1.66067 -0.47212,-1.8844 -2.21765,-1.75848 -3.40303,0.24552 -7.66667,2.1776 -7.66667,3.4742 0,2.19556 3.41244,4.16162 6.10945,3.51991 0.61019,-0.14519 1.75813,-0.95447 2.55098,-1.79842 z m 163.90301,23.63195 c -1.40989,-1.4821 -2.60002,-3.2071 -2.64474,-3.83333 -0.0447,-0.62623 -0.11971,-2.33859 -0.16666,-3.80526 L 375,138.33333 358.66667,132.88935 c -8.98334,-2.99419 -19.33334,-6.25078 -23,-7.23684 -9.25555,-2.48909 -9.43458,-2.5828 -11.06632,-5.79251 -0.79967,-1.573 -3.06188,-5.28041 -5.02715,-8.23869 -1.96526,-2.95828 -3.5732,-5.67346 -3.5732,-6.03374 0,-0.36027 1.80153,-1.30324 4.0034,-2.09548 3.86815,-1.39178 4.12153,-1.40295 7.5,-0.33057 3.56783,1.13249 34.94901,16.70414 48.11051,23.87291 7.996,4.35524 12.68536,8.26962 13.42175,11.20364 0.68373,2.72418 -0.84655,8.76821 -2.81113,11.10299 -2.47484,2.94119 -5.06986,2.72229 -8.32776,-0.70247 z"
         style="fill:#f0a48a;stroke-width:0.666667" />
      <path
         id="path286"
         d="m 120.55793,414.20296 c -18.73207,-16.42677 -25.224597,-22.40605 -25.224597,-23.23055 0,-0.46964 0.93808,-1.64322 2.084614,-2.60798 1.82598,-1.53646 2.467006,-1.70056 5.166663,-1.32268 6.61493,0.92592 17.11808,3.10152 17.83146,3.69358 0.41298,0.34275 0.94186,1.81751 1.17528,3.27726 0.23342,1.45974 0.68526,2.65408 1.00407,2.65408 0.31881,0 1.38053,-1.05 2.35938,-2.33334 1.90983,-2.5039 3.90821,-2.97837 6.02507,-1.43049 1.17701,0.86065 1.12065,1.09061 -1.20592,4.92054 -1.34234,2.20973 -2.44062,4.44733 -2.44062,4.97243 0,1.28513 2.85426,3.88054 7.5,6.81986 2.10834,1.33392 3.83334,2.91408 3.83334,3.51148 0,1.19528 -7.35675,8.87285 -8.50208,8.87285 -0.39347,0 -4.71647,-3.50867 -9.60666,-7.79704 z M 214.25074,354.5 c -1.93865,-1.29911 -3.88703,-3.3549 -4.866,-5.13422 -2.16081,-3.92738 -4.67681,-13.758 -5.18345,-20.25294 l -0.40722,-5.2205 8.26964,-8.32616 c 4.54829,-4.57939 15.6471,-15.49486 24.66401,-24.25659 l 16.39439,-15.93044 9.45784,-0.35128 c 13.15664,-0.48868 17.37696,-1.5132 27.7773,-6.74322 l 8.7382,-4.39417 15.2856,-0.56076 c 17.41014,-0.63871 20.22444,-1.19141 28.91111,-5.67789 3.1789,-1.64184 6.26155,-2.98516 6.85033,-2.98516 2.66957,0 37.51845,32.54262 45.3706,42.36803 4.1577,5.20255 7.82024,12.00489 7.82024,14.52435 0,2.65227 -2.49214,9.8202 -4.82861,13.88812 -2.97223,5.17482 -10.34211,14.41137 -11.89118,14.90302 -0.86509,0.27458 -6.08682,-2.22846 -16.44064,-7.88081 -40.35627,-22.03128 -61.9701,-33.14437 -64.4242,-33.12471 -0.82267,0.007 -7.55709,4.92646 -16.08203,11.74884 -29.23334,23.39499 -49.50105,37.95095 -59.73158,42.89832 -7.29348,3.52704 -11.00012,3.64714 -15.68435,0.50817 z m 283.45509,-88.61138 c -2.91178,-0.33201 -5.63823,-0.88921 -6.05876,-1.23822 -0.42054,-0.34901 -1.1252,-1.83813 -1.56594,-3.30915 -0.44072,-1.47102 -1.01428,-2.67377 -1.27456,-2.67278 -0.26028,6.6e-4 -1.07324,1.12245 -1.80657,2.49213 -1.39745,2.61009 -2.6989,3.22684 -5.38606,2.5524 -2.13788,-0.53657 -2.03667,-1.77489 0.52603,-6.43646 l 2.13998,-3.89261 -1.5496,-1.64948 c -0.85228,-0.90721 -3.60402,-2.72904 -6.11498,-4.04852 -2.51096,-1.31946 -4.73888,-2.67977 -4.95095,-3.0229 -0.99139,-1.60411 5.49547,-9.99636 7.72677,-9.99636 1.1395,0 35.65861,25.29249 36.76527,26.93826 0.74173,1.10308 0.64418,1.38915 -1.12463,3.29772 -1.5158,1.63558 -2.01332,1.75767 -6.83333,1.67682 -2.85917,-0.0479 -7.58087,-0.35884 -10.49267,-0.69085 z M 261.66667,174.55483 c -0.73334,-0.40588 -2.98334,-2.14865 -5,-3.87282 -3.12693,-2.67339 -4.21926,-3.19914 -7.42058,-3.57158 -3.70994,-0.43162 -3.76371,-0.41306 -4.59143,1.58522 -0.98049,2.36712 -2.46387,3.30435 -5.22988,3.30435 -2.68706,0 -4.32994,-1.71224 -3.77902,-3.93855 1.03873,-4.1976 1.22993,-4.05198 -5.64576,-4.29973 -7.02871,-0.25327 -10.84692,-1.54175 -15.50769,-5.23315 C 211.57152,156.21527 208,151.65191 208,150.23331 c 0,-1.76444 1.69329,-0.82062 3.33333,1.85794 0.91667,1.49712 3.29738,3.89398 5.29048,5.32634 6.48109,4.65772 13.55274,5.71998 21.57782,3.24128 11.62816,-3.59157 17.74764,-12.457 18.87108,-27.33892 0.60378,-7.99818 1.9675,-7.81574 1.82636,0.24432 -0.11792,6.73331 -1.88088,13.25456 -4.84289,17.91398 -1.09958,1.72971 -1.75977,3.29292 -1.46709,3.4738 0.67217,0.41543 17.9747,1.77968 19.67249,1.55112 1.97431,-0.26578 2.00422,1.28558 0.0343,1.77999 -1.61874,0.40628 -10.01823,0.0734 -15.62923,-0.61945 -1.28333,-0.15846 -2.77547,-0.0134 -3.31587,0.32231 -0.82914,0.51513 -0.74094,0.86758 0.56496,2.25764 1.17574,1.25153 1.44736,2.10307 1.1307,3.54482 -0.35612,1.62138 -10e-4,2.29355 2.43505,4.61765 1.5685,1.49603 3.83035,3.3896 5.02633,4.20794 2.89056,1.97784 2.18152,3.61374 -0.84117,1.94076 z m -19.27522,-6.21664 c 1.236,-1.88636 0.80662,-5.00486 -0.6891,-5.00486 -1.34868,0 -3.70235,3.23578 -3.70235,5.08991 0,2.22899 2.91219,2.17259 4.39145,-0.085 z m 10.27522,-5.95993 c 0,-0.98427 -2.47233,-2.12816 -3.14524,-1.45524 -0.55586,0.55586 1.15745,2.41031 2.22686,2.41031 0.50511,0 0.91838,-0.42978 0.91838,-0.95507 z M 218.44445,134.88889 C 217.73922,134.18367 217.92879,132 218.69523,132 c 0.38237,0 2.17558,-1.3847 3.98491,-3.07711 3.14436,-2.94119 5.35482,-3.54382 5.29589,-1.44381 -0.0361,1.28729 -2.6565,4.16542 -5.56906,6.11688 -2.74508,1.83925 -3.2511,2.00435 -3.96252,1.29293 z m -14,-16 c -1.39458,-1.39458 1.69387,-8.39385 3.55555,-8.05786 1.52471,0.27517 1.72574,5.63038 0.27167,7.23711 -1.14406,1.26417 -2.98831,1.65967 -3.82722,0.82075 z m -6.82612,-5.17745 c -0.61668,-2.45707 0.10824,-3.84293 1.87869,-3.59153 1.23259,0.17503 1.50298,0.63319 1.50298,2.54676 0,1.90107 -0.27351,2.37222 -1.47643,2.54328 -1.11364,0.15835 -1.58181,-0.20988 -1.90524,-1.49851 z M 236,113.81501 c 0,-0.46842 0.47367,-1.52792 1.05259,-2.35446 1.72307,-2.46002 2.19281,-5.11496 1.48893,-8.41526 -1.23439,-5.787677 -5.61385,-6.490377 -8.62659,-1.38416 -1.25885,2.1336 -1.64837,2.33887 -4.43819,2.33887 -4.38114,0 -11.07961,-1.81363 -16.45556,-4.45538 -5.37903,-2.643267 -6.57324,-2.548127 -10.30219,0.82076 l -2.58074,2.33153 -2.09307,-1.7612 C 191.46291,98.762873 190,96.0339 190,93.38964 c 0,-2.276413 3.1901,-6.376467 5.54106,-7.121593 0.80241,-0.254327 3.07443,-2.103387 5.04893,-4.109034 5.75469,-5.845473 15.18456,-9.298746 23.70968,-8.682633 2.59716,0.187693 2.64995,0.1451 3.8781,-3.12868 1.59346,-4.247557 2.21534,-4.961983 5.64158,-6.481053 2.37597,-1.053424 3.74651,-1.180008 8.7151,-0.804928 6.91894,0.52231 7.89173,0.164486 11.94033,-4.392087 5.44007,-6.122629 9.64079,-6.615766 16.82139,-1.974721 5.95975,3.851971 7.535,4.551126 12.70383,5.638422 7.68343,1.616261 10.00297,3.346172 9.99751,7.456174 -10e-4,1.03244 -0.58966,2.840153 -1.30731,4.017146 -3.60837,5.91796 -11.54657,7.6538 -21.02353,4.597194 -7.59161,-2.44852 -8.89877,-2.32038 -13.35483,1.309126 -4.35013,3.543234 -7.86833,4.953694 -12.35631,4.953694 -1.7656,0 -3.37868,0.272646 -3.58463,0.60588 -0.20595,0.33324 0.11345,2.50824 0.70977,4.833333 2.06005,8.03228 0.27119,18.61659 -3.89611,23.05248 C 237.62863,114.81457 236,115.15039 236,113.81501 Z m -21.72985,-6.16273 c -0.30508,-1.21553 -0.10084,-2.1073 0.65592,-2.86407 1.52727,-1.52726 3.40726,-0.26679 3.40726,2.28445 0,1.60086 -0.30661,1.96269 -1.81008,2.13605 -1.48121,0.17078 -1.89057,-0.112 -2.2531,-1.55643 z"
         style="fill:#98a6a4;stroke-width:0.666667" />
      <path
         id="path284"
         d="M 124.51712,417.17261 C 111.00529,405.58216 96,391.86095 96,391.09585 c 0,-1.41954 2.963953,-3.76252 4.75971,-3.76252 2.43682,0 16.64676,2.56708 18.40696,3.32529 0.97733,0.42099 1.5,1.22092 1.5,2.29572 0,1.92287 1.29886,5.04566 2.09864,5.04566 0.30322,0 1.30882,-1.2 2.23469,-2.66667 1.33881,-2.1208 2.08302,-2.66666 3.63569,-2.66666 1.07376,0 2.13375,0.29362 2.35554,0.65248 0.2218,0.35886 -0.82862,2.68386 -2.33424,5.16666 l -2.7375,4.51419 3.44494,3.18952 c 1.89472,1.75423 4.61284,3.78533 6.04026,4.51355 1.58314,0.80766 2.59531,1.79816 2.59531,2.53975 0,1.49593 -6.20451,8.09051 -7.61196,8.09051 -0.56126,0 -3.20317,-1.87232 -5.87092,-4.16072 z m 92.46023,-61.40324 c -1.11245,-0.50447 -3.04655,-1.93396 -4.298,-3.17663 -1.25144,-1.24267 -2.0199,-1.83805 -1.70768,-1.32307 0.37778,0.62313 0.31996,0.78324 -0.17288,0.47865 -0.40731,-0.25173 -0.55268,-0.94729 -0.32305,-1.5457 0.30151,-0.78571 0.17219,-0.93639 -0.46545,-0.54231 -0.58532,0.36174 -0.72372,0.28802 -0.41055,-0.21869 0.25983,-0.42042 0.16531,-1.29177 -0.21005,-1.93634 -0.37536,-0.64457 -0.6962,-0.87195 -0.71296,-0.50528 -0.0385,0.84295 -1.32298,-1.09879 -1.32298,-2 0,-0.36667 0.3237,-0.21667 0.71935,0.33333 0.59826,0.83168 0.65265,0.79445 0.32312,-0.22119 C 208.1783,344.44049 208,343.59778 208,343.23947 c 0,-0.35832 -0.33214,-0.44622 -0.73809,-0.19533 -0.5028,0.31075 -0.5863,-0.0221 -0.26191,-1.04414 0.32103,-1.01147 0.23896,-1.3537 -0.25187,-1.05035 -0.49618,0.30666 -0.60721,-0.25065 -0.34863,-1.74984 0.29689,-1.72127 0.21681,-1.98227 -0.36811,-1.19981 -0.57629,0.77093 -0.65408,0.38915 -0.33958,-1.66667 0.30032,-1.96313 0.2234,-2.40284 -0.29157,-1.66666 -0.51149,0.73118 -0.61705,0.0143 -0.39271,-2.66667 0.2316,-2.76778 0.15353,-3.25808 -0.31844,-2 -0.45886,1.22311 -0.5368,0.60215 -0.29291,-2.33333 l 0.33235,-4 24.42964,-24.17275 24.42965,-24.17275 3.03943,0.39219 c 1.67168,0.21571 6.74527,0.0655 11.27464,-0.33378 9.74072,-0.85868 15.23314,-2.53299 24.43112,-7.44759 l 6.46875,-3.45635 15.09912,-0.53758 c 17.73299,-0.63136 21.18073,-1.31671 30.01177,-5.96579 5.21185,-2.74378 6.46429,-3.16767 7.3514,-2.48812 2.97727,2.28064 17.46133,15.15123 25.44046,22.60646 C 390.90109,291.35509 402,304.84123 402,308.82686 c 0,0.68851 0.3,1.06642 0.66667,0.83981 0.40253,-0.24878 0.6481,0.59408 0.6198,2.12732 -0.0389,2.10998 -0.15372,2.3139 -0.67887,1.20601 -0.48424,-1.02159 -0.56045,-0.74531 -0.32596,1.18161 0.20929,1.71983 0.0746,2.37187 -0.42615,2.06242 -0.4817,-0.29771 -0.60349,0.0396 -0.35601,0.98598 0.23073,0.88232 0.11485,1.27698 -0.29974,1.02076 -0.42867,-0.26493 -0.50173,0.13108 -0.19974,1.08256 0.29893,0.94186 0.22745,1.34658 -0.19205,1.08732 -0.81657,-0.50467 -1.64942,1.42384 -1.04044,2.40918 0.24118,0.39024 0.13602,0.52257 -0.23368,0.29408 -0.36971,-0.22849 -1.01834,0.34427 -1.4414,1.2728 -0.60729,1.33286 -0.59273,1.59694 0.0692,1.25458 0.46112,-0.23852 0.0884,0.21841 -0.82828,1.01538 -0.91666,0.79696 -1.26173,1.2368 -0.76682,0.9774 0.72558,-0.3803 0.75331,-0.19783 0.14321,0.94214 -0.79256,1.48092 -1.76623,2.02806 -1.03296,0.58046 0.23217,-0.45834 -0.0405,-0.26414 -0.60597,0.43154 -0.56544,0.69569 -0.8828,1.49996 -0.70523,1.78727 0.17757,0.28731 -0.0284,0.73947 -0.45769,1.00479 -0.51762,0.31991 -0.61691,0.167 -0.29477,-0.45393 0.26718,-0.51499 0.0231,-0.36715 -0.54231,0.32854 -0.56544,0.69569 -0.89476,1.48059 -0.73182,1.74424 0.16294,0.26364 -0.37167,1.04445 -1.18802,1.73511 -1.47087,1.24442 -1.47524,1.24342 -0.48428,-0.11024 0.66408,-0.90714 0.49292,-0.83495 -0.50953,0.21492 -0.83024,0.86951 -1.35035,1.83848 -1.15579,2.15328 0.41789,0.67616 -0.82235,1.5462 -2.59781,1.8224 -0.69471,0.10806 -11.19471,-5.1752 -23.33333,-11.74058 -43.24426,-23.38944 -55.82733,-29.71409 -57.99252,-29.1489 -0.77606,0.20258 -8.61102,6.11368 -17.41102,13.13576 -45.9775,36.68841 -62.97585,47.1964 -70.68932,43.6985 z m 283.19596,-90.0632 c -4.12135,-0.4422 -7.71626,-1.0269 -7.98871,-1.29935 -0.27245,-0.27244 -0.95043,-1.72565 -1.50664,-3.22935 -1.30526,-3.52874 -2.32555,-3.80234 -3.95182,-1.05971 -0.72256,1.21857 -1.60859,2.55335 -1.96897,2.9662 -0.73807,0.84554 -4.0905,0.42426 -4.0905,-0.51402 0,-0.33438 0.9,-2.39085 2,-4.56994 1.1,-2.17909 2,-4.39749 2,-4.92979 0,-1.01142 -7.78292,-6.51374 -10.87809,-7.69052 C 472.80486,245.00567 472,244.28725 472,243.78319 c 0,-1.2584 3.45757,-5.92641 5.69083,-7.68309 1.77532,-1.39647 1.89274,-1.4052 3.64886,-0.2715 6.00648,3.87763 34.66031,25.92393 34.66031,26.66769 0,0.49371 -0.73637,1.63401 -1.63637,2.53401 -1.87154,1.87155 -2.68528,1.9103 -14.19032,0.67587 z M 261.66667,174.55483 c -0.73334,-0.40588 -2.98334,-2.14865 -5,-3.87282 -3.12693,-2.67339 -4.21926,-3.19914 -7.42058,-3.57158 -3.70994,-0.43162 -3.76371,-0.41306 -4.59143,1.58522 -0.98049,2.36712 -2.46387,3.30435 -5.22988,3.30435 -2.68706,0 -4.32994,-1.71224 -3.77902,-3.93855 1.03873,-4.1976 1.22993,-4.05198 -5.64576,-4.29973 -7.02871,-0.25327 -10.84692,-1.54175 -15.50769,-5.23315 C 211.57152,156.21527 208,151.65191 208,150.23331 c 0,-1.76444 1.69329,-0.82062 3.33333,1.85794 0.91667,1.49712 3.29738,3.89398 5.29048,5.32634 6.48109,4.65772 13.55274,5.71998 21.57782,3.24128 11.62816,-3.59157 17.74764,-12.457 18.87108,-27.33892 0.60378,-7.99818 1.9675,-7.81574 1.82636,0.24432 -0.11792,6.73331 -1.88088,13.25456 -4.84289,17.91398 -1.09958,1.72971 -1.75977,3.29292 -1.46709,3.4738 0.67217,0.41543 17.9747,1.77968 19.67249,1.55112 1.97431,-0.26578 2.00422,1.28558 0.0343,1.77999 -1.61874,0.40628 -10.01823,0.0734 -15.62923,-0.61945 -1.28333,-0.15846 -2.77547,-0.0134 -3.31587,0.32231 -0.82914,0.51513 -0.74094,0.86758 0.56496,2.25764 1.17574,1.25153 1.44736,2.10307 1.1307,3.54482 -0.35612,1.62138 -10e-4,2.29355 2.43505,4.61765 1.5685,1.49603 3.83035,3.3896 5.02633,4.20794 2.89056,1.97784 2.18152,3.61374 -0.84117,1.94076 z m -19.27522,-6.21664 c 1.236,-1.88636 0.80662,-5.00486 -0.6891,-5.00486 -1.34868,0 -3.70235,3.23578 -3.70235,5.08991 0,2.22899 2.91219,2.17259 4.39145,-0.085 z m 10.27522,-5.95993 c 0,-0.98427 -2.47233,-2.12816 -3.14524,-1.45524 -0.55586,0.55586 1.15745,2.41031 2.22686,2.41031 0.50511,0 0.91838,-0.42978 0.91838,-0.95507 z M 218.44445,134.88889 C 217.73922,134.18367 217.92879,132 218.69523,132 c 0.38237,0 2.17558,-1.3847 3.98491,-3.07711 3.14436,-2.94119 5.35482,-3.54382 5.29589,-1.44381 -0.0361,1.28729 -2.6565,4.16542 -5.56906,6.11688 -2.74508,1.83925 -3.2511,2.00435 -3.96252,1.29293 z m -14,-16 c -1.39458,-1.39458 1.69387,-8.39385 3.55555,-8.05786 1.52471,0.27517 1.72574,5.63038 0.27167,7.23711 -1.14406,1.26417 -2.98831,1.65967 -3.82722,0.82075 z m -6.82612,-5.17745 c -0.61668,-2.45707 0.10824,-3.84293 1.87869,-3.59153 1.23259,0.17503 1.50298,0.63319 1.50298,2.54676 0,1.90107 -0.27351,2.37222 -1.47643,2.54328 -1.11364,0.15835 -1.58181,-0.20988 -1.90524,-1.49851 z M 236,113.81501 c 0,-0.46842 0.47367,-1.52792 1.05259,-2.35446 1.72307,-2.46002 2.19281,-5.11496 1.48893,-8.41526 -1.23439,-5.787677 -5.61385,-6.490377 -8.62659,-1.38416 -1.25885,2.1336 -1.64837,2.33887 -4.43819,2.33887 -4.38114,0 -11.07961,-1.81363 -16.45556,-4.45538 -5.37903,-2.643267 -6.57324,-2.548127 -10.30219,0.82076 l -2.58074,2.33153 -2.09307,-1.7612 C 191.46291,98.762873 190,96.0339 190,93.38964 c 0,-2.276413 3.1901,-6.376467 5.54106,-7.121593 0.80241,-0.254327 3.07443,-2.103387 5.04893,-4.109034 5.75469,-5.845473 15.18456,-9.298746 23.70968,-8.682633 2.59716,0.187693 2.64995,0.1451 3.8781,-3.12868 1.59346,-4.247557 2.21534,-4.961983 5.64158,-6.481053 2.37597,-1.053424 3.74651,-1.180008 8.7151,-0.804928 6.91894,0.52231 7.89173,0.164486 11.94033,-4.392087 5.44007,-6.122629 9.64079,-6.615766 16.82139,-1.974721 5.95975,3.851971 7.535,4.551126 12.70383,5.638422 7.68343,1.616261 10.00297,3.346172 9.99751,7.456174 -10e-4,1.03244 -0.58966,2.840153 -1.30731,4.017146 -3.60837,5.91796 -11.54657,7.6538 -21.02353,4.597194 -7.59161,-2.44852 -8.89877,-2.32038 -13.35483,1.309126 -4.35013,3.543234 -7.86833,4.953694 -12.35631,4.953694 -1.7656,0 -3.37868,0.272646 -3.58463,0.60588 -0.20595,0.33324 0.11345,2.50824 0.70977,4.833333 2.06005,8.03228 0.27119,18.61659 -3.89611,23.05248 C 237.62863,114.81457 236,115.15039 236,113.81501 Z m -21.72985,-6.16273 c -0.30508,-1.21553 -0.10084,-2.1073 0.65592,-2.86407 1.52727,-1.52726 3.40726,-0.26679 3.40726,2.28445 0,1.60086 -0.30661,1.96269 -1.81008,2.13605 -1.48121,0.17078 -1.89057,-0.112 -2.2531,-1.55643 z"
         style="fill:#e18c6f;stroke-width:0.666667" />
      <path
         id="path282"
         d="M 124.51712,417.17261 C 111.00529,405.58216 96,391.86095 96,391.09585 c 0,-1.41954 2.963953,-3.76252 4.75971,-3.76252 2.43682,0 16.64676,2.56708 18.40696,3.32529 0.97733,0.42099 1.5,1.22092 1.5,2.29572 0,1.92287 1.29886,5.04566 2.09864,5.04566 0.30322,0 1.30882,-1.2 2.23469,-2.66667 1.33881,-2.1208 2.08302,-2.66666 3.63569,-2.66666 1.07376,0 2.13375,0.29362 2.35554,0.65248 0.2218,0.35886 -0.82862,2.68386 -2.33424,5.16666 l -2.7375,4.51419 3.44494,3.18952 c 1.89472,1.75423 4.61284,3.78533 6.04026,4.51355 1.58314,0.80766 2.59531,1.79816 2.59531,2.53975 0,1.49593 -6.20451,8.09051 -7.61196,8.09051 -0.56126,0 -3.20317,-1.87232 -5.87092,-4.16072 z M 217,355.76415 c -6.27285,-2.89317 -9.97783,-10.97392 -11.80277,-25.7424 l -0.77992,-6.31158 24.58526,-24.1945 24.58525,-24.1945 3.03943,0.39219 c 1.67168,0.21571 6.74527,0.0655 11.27464,-0.33378 9.74072,-0.85868 15.23314,-2.53299 24.43112,-7.44759 l 6.46875,-3.45635 15.09912,-0.53758 c 17.72618,-0.63111 21.18194,-1.31735 29.99285,-5.95583 3.44476,-1.8135 6.6029,-3.08814 7.01807,-2.83254 0.41518,0.2556 4.50487,3.75782 9.0882,7.78272 25.98941,22.82283 39.83191,37.85684 41.96301,45.57505 0.9252,3.35081 -0.17733,8.25993 -3.25486,14.49254 -2.56475,5.19415 -10.6555,16.09915 -12.45747,16.79063 -0.49438,0.18972 -10.87803,-5.05251 -23.07478,-11.64938 -43.35526,-23.44962 -55.93149,-29.77173 -58.09821,-29.20614 -0.77606,0.20258 -8.61102,6.11368 -17.41102,13.13576 C 241.70812,348.74416 224.6488,359.29195 217,355.76415 Z m 283.17331,-90.05798 c -4.12135,-0.4422 -7.71626,-1.0269 -7.98871,-1.29935 -0.27245,-0.27244 -0.95043,-1.72565 -1.50664,-3.22935 -1.30526,-3.52874 -2.32555,-3.80234 -3.95182,-1.05971 -0.72256,1.21857 -1.60859,2.55335 -1.96897,2.9662 -0.73807,0.84554 -4.0905,0.42426 -4.0905,-0.51402 0,-0.33438 0.9,-2.39085 2,-4.56994 1.1,-2.17909 2,-4.39749 2,-4.92979 0,-1.01142 -7.78292,-6.51374 -10.87809,-7.69052 C 472.80486,245.00567 472,244.28725 472,243.78319 c 0,-1.2584 3.45757,-5.92641 5.69083,-7.68309 1.77532,-1.39647 1.89274,-1.4052 3.64886,-0.2715 6.00648,3.87763 34.66031,25.92393 34.66031,26.66769 0,0.49371 -0.73637,1.63401 -1.63637,2.53401 -1.87154,1.87155 -2.68528,1.9103 -14.19032,0.67587 z M 244,165.48421 c 0,-0.67616 -0.42548,-1.81125 -0.94552,-2.52244 -0.93165,-1.27411 -0.97391,-1.27208 -2.88176,0.13845 -1.83637,1.35769 -1.97463,1.37007 -2.68031,0.24009 -0.65712,-1.05221 -0.29734,-1.35432 3.07893,-2.58537 2.10265,-0.76667 5.10632,-2.49241 6.67481,-3.83498 2.63865,-2.25859 2.93322,-2.35964 3.94093,-1.35193 0.80903,0.80904 0.89555,1.28267 0.33645,1.84178 -0.41397,0.41396 -0.59402,1.16611 -0.40011,1.67143 C 251.36739,159.71702 250.94068,160 249.73799,160 248.44445,160 248,160.34097 248,161.33333 c 0,0.73334 -0.3,1.33334 -0.66667,1.33334 -0.36666,0 -0.66666,0.58944 -0.66666,1.30988 0,0.72043 -0.6,1.63098 -1.33334,2.02345 C 244.22405,166.59367 244,166.50699 244,165.48421 Z m 5.11695,0.74386 c -0.1679,-0.1679 -0.15478,-0.88074 0.0291,-1.58408 0.26272,-1.00466 0.5941,-1.13982 1.54586,-0.63045 0.6663,0.35659 1.68318,0.46733 2.25974,0.24608 0.73869,-0.28347 1.0483,-0.007 1.0483,0.93572 0,1.07974 -0.44179,1.33799 -2.28889,1.33799 -1.25889,0 -2.42626,-0.13737 -2.59416,-0.30526 z m -50.85459,-52.50596 c -0.55179,-1.43794 0.21595,-3.22934 1.23799,-2.88866 0.45814,0.15272 0.83298,0.97766 0.83298,1.83322 0,1.82722 -1.4845,2.58377 -2.07097,1.05544 z m 40.7022,-2.85567 c 1.33369,-2.74811 1.32497,-7.72146 -0.0185,-10.55261 -2.07873,-4.380597 -7.37164,-4.092397 -10.11105,0.55056 -1.32085,2.23868 -1.53561,2.3396 -4.27949,2.01108 -5.25958,-0.62973 -10.82902,-2.29718 -15.5093,-4.643363 -5.38939,-2.70166 -6.56504,-2.59898 -10.45221,0.91284 -2.14626,1.939023 -2.93539,2.301663 -3.81653,1.753863 -1.95846,-1.217537 -4.11084,-5.029043 -4.11084,-7.279583 0,-2.4798 2.54548,-5.96244 4.86261,-6.65284 0.80889,-0.241014 3.27072,-2.188454 5.47072,-4.32764 2.2,-2.139187 5.5121,-4.64222 7.36023,-5.5623 3.46556,-1.725314 10.86504,-3.233247 14.97106,-3.050947 4.24521,0.188487 4.54481,0.05787 5.02936,-2.192167 0.85237,-3.95802 2.29371,-5.902862 5.38956,-7.272306 2.57033,-1.136978 3.80976,-1.257909 8.85073,-0.863561 6.97547,0.545681 7.61983,0.290213 12.78485,-5.068754 5.4046,-5.607556 9.42658,-5.942501 15.81214,-1.31682 4.03072,2.919835 7.41089,4.453491 11.80207,5.354848 5.37945,1.104217 8.90265,2.572357 9.68611,4.036267 1.01296,1.89272 0.75919,4.771866 -0.61992,7.033506 -3.31606,5.438074 -11.03367,6.92222 -20.68368,3.977607 -8.31063,-2.535913 -8.3189,-2.534293 -15.47522,3.027147 C 252.95166,83.038187 249.9114,84 245.60653,84 c -1.94031,0 -3.69811,0.275507 -3.90622,0.61224 -0.20812,0.336727 0.0742,2.349753 0.62732,4.473393 2.07109,7.951467 0.80897,18.196127 -2.71899,22.070117 L 237.92912,113 Z m -24.0551,-3.19531 c -0.23091,-0.60175 -0.10017,-1.41376 0.29054,-1.80446 1.01574,-1.01574 2.94027,-0.0874 2.67495,1.29032 -0.29554,1.53459 -2.43178,1.90496 -2.96549,0.51414 z"
         style="fill:#6d9292;stroke-width:0.666667" />
      <path
         id="path280"
         d="m 128.63839,420.17183 c -2.43416,-1.70496 -31.576177,-27.5743 -32.133537,-28.52492 -0.280313,-0.47809 0.0492,-1.51678 0.759467,-2.3939 1.566047,-1.93399 4.55718,-1.88262 15.00687,0.2577 l 7.27118,1.48929 0.8907,3.08107 c 1.38845,4.80292 2.40714,5.18964 4.69198,1.7812 1.97869,-2.95176 4.57098,-4.09678 5.25274,-2.32014 0.20451,0.53293 -0.69684,2.63956 -2.00298,4.6814 -1.30614,2.04183 -2.37481,4.14192 -2.37481,4.66687 0,1.22481 4.44648,5.24291 8.69407,7.85648 1.81826,1.11878 3.30593,2.26618 3.30593,2.54977 0,0.76882 -5.29072,6.63363 -6.63168,7.35129 -0.81399,0.43564 -1.63187,0.29299 -2.72993,-0.47611 z m 88.07568,-65.30231 c -3.33928,-1.75712 -5.88436,-5.3311 -7.7829,-10.92926 -1.83456,-5.4095 -3.87244,-17.42205 -3.32536,-19.60179 0.18944,-0.75482 5.08064,-6.0002 10.86932,-11.65641 5.78868,-5.65621 16.52487,-16.19915 23.8582,-23.42875 l 13.33334,-13.14474 3.02903,0.35024 c 4.62632,0.53492 18.59189,-0.95022 23.72641,-2.52314 2.51784,-0.77133 7.69333,-3.0674 11.5011,-5.10238 l 6.9232,-3.69998 15.41013,-0.51754 c 17.56249,-0.58984 20.30576,-1.12182 29.03562,-5.63061 3.1789,-1.64184 6.23153,-2.98516 6.78363,-2.98516 2.56936,0 36.94658,32.24127 44.78246,42 4.97853,6.20021 6.44164,9.33609 6.46044,13.84658 0.0257,6.16797 -4.8953,15.67713 -12.4736,24.10351 l -3.25274,3.61675 -21.62951,-11.70927 c -45.82692,-24.80868 -56.56121,-30.18658 -59.02045,-29.56935 -0.80966,0.20321 -8.32793,5.8416 -16.70725,12.52975 -38.01747,30.34449 -58.06781,43.93648 -66.23514,44.90035 -2.14851,0.25356 -3.64881,0.0127 -5.28593,-0.8488 z M 498.3725,265.22195 c -5.80196,-0.66155 -7.03917,-1.2878 -7.03917,-3.56306 0,-1.93874 -2.19866,-4.69349 -3.23489,-4.05306 -0.43129,0.26655 -1.38597,1.66428 -2.12151,3.10607 -0.9743,1.90978 -1.75598,2.62143 -2.87937,2.62143 -0.8481,0 -1.72777,-0.18576 -1.95481,-0.4128 -0.22704,-0.22704 0.66067,-2.54444 1.97269,-5.14976 l 2.38549,-4.73695 -2.70308,-2.39877 c -1.48668,-1.31932 -4.52939,-3.37218 -6.76156,-4.56192 l -4.0585,-2.16315 1.17778,-2.00201 c 1.71828,-2.9208 5.21272,-6.57464 6.28782,-6.57464 1.65453,0 35.88994,26.03934 35.88994,27.29777 0,3.32847 -4.48424,4.01346 -16.96083,2.59085 z M 244,165.48421 c 0,-0.67616 -0.42548,-1.81125 -0.94552,-2.52244 -0.93165,-1.27411 -0.97391,-1.27208 -2.88176,0.13845 -1.83637,1.35769 -1.97463,1.37007 -2.68031,0.24009 -0.65712,-1.05221 -0.29734,-1.35432 3.07893,-2.58537 2.10265,-0.76667 5.10632,-2.49241 6.67481,-3.83498 2.63865,-2.25859 2.93322,-2.35964 3.94093,-1.35193 0.80903,0.80904 0.89555,1.28267 0.33645,1.84178 -0.41397,0.41396 -0.59402,1.16611 -0.40011,1.67143 C 251.36739,159.71702 250.94068,160 249.73799,160 248.44445,160 248,160.34097 248,161.33333 c 0,0.73334 -0.3,1.33334 -0.66667,1.33334 -0.36666,0 -0.66666,0.58944 -0.66666,1.30988 0,0.72043 -0.6,1.63098 -1.33334,2.02345 C 244.22405,166.59367 244,166.50699 244,165.48421 Z m 5.11695,0.74386 c -0.1679,-0.1679 -0.15478,-0.88074 0.0291,-1.58408 0.26272,-1.00466 0.5941,-1.13982 1.54586,-0.63045 0.6663,0.35659 1.68318,0.46733 2.25974,0.24608 0.73869,-0.28347 1.0483,-0.007 1.0483,0.93572 0,1.07974 -0.44179,1.33799 -2.28889,1.33799 -1.25889,0 -2.42626,-0.13737 -2.59416,-0.30526 z m -50.85459,-52.50596 c -0.55179,-1.43794 0.21595,-3.22934 1.23799,-2.88866 0.45814,0.15272 0.83298,0.97766 0.83298,1.83322 0,1.82722 -1.4845,2.58377 -2.07097,1.05544 z m 40.7022,-2.85567 c 1.33369,-2.74811 1.32497,-7.72146 -0.0185,-10.55261 -2.07873,-4.380597 -7.37164,-4.092397 -10.11105,0.55056 -1.32085,2.23868 -1.53561,2.3396 -4.27949,2.01108 -5.25958,-0.62973 -10.82902,-2.29718 -15.5093,-4.643363 -5.38939,-2.70166 -6.56504,-2.59898 -10.45221,0.91284 -2.14626,1.939023 -2.93539,2.301663 -3.81653,1.753863 -1.95846,-1.217537 -4.11084,-5.029043 -4.11084,-7.279583 0,-2.4798 2.54548,-5.96244 4.86261,-6.65284 0.80889,-0.241014 3.27072,-2.188454 5.47072,-4.32764 2.2,-2.139187 5.5121,-4.64222 7.36023,-5.5623 3.46556,-1.725314 10.86504,-3.233247 14.97106,-3.050947 4.24521,0.188487 4.54481,0.05787 5.02936,-2.192167 0.85237,-3.95802 2.29371,-5.902862 5.38956,-7.272306 2.57033,-1.136978 3.80976,-1.257909 8.85073,-0.863561 6.97547,0.545681 7.61983,0.290213 12.78485,-5.068754 5.4046,-5.607556 9.42658,-5.942501 15.81214,-1.31682 4.03072,2.919835 7.41089,4.453491 11.80207,5.354848 5.37945,1.104217 8.90265,2.572357 9.68611,4.036267 1.01296,1.89272 0.75919,4.771866 -0.61992,7.033506 -3.31606,5.438074 -11.03367,6.92222 -20.68368,3.977607 -8.31063,-2.535913 -8.3189,-2.534293 -15.47522,3.027147 C 252.95166,83.038187 249.9114,84 245.60653,84 c -1.94031,0 -3.69811,0.275507 -3.90622,0.61224 -0.20812,0.336727 0.0742,2.349753 0.62732,4.473393 2.07109,7.951467 0.80897,18.196127 -2.71899,22.070117 L 237.92912,113 Z m -24.0551,-3.19531 c -0.23091,-0.60175 -0.10017,-1.41376 0.29054,-1.80446 1.01574,-1.01574 2.94027,-0.0874 2.67495,1.29032 -0.29554,1.53459 -2.43178,1.90496 -2.96549,0.51414 z"
         style="fill:#c65f44;stroke-width:0.666667" />
      <path
         id="path278"
         d="m 128.63839,420.17183 c -2.43416,-1.70496 -31.576177,-27.5743 -32.133537,-28.52492 -0.280313,-0.47809 0.0492,-1.51678 0.759467,-2.3939 1.566047,-1.93399 4.55718,-1.88262 15.00687,0.2577 l 7.27118,1.48929 0.8907,3.08107 c 1.38845,4.80292 2.40714,5.18964 4.69198,1.7812 1.97869,-2.95176 4.57098,-4.09678 5.25274,-2.32014 0.20451,0.53293 -0.69684,2.63956 -2.00298,4.6814 -1.30614,2.04183 -2.37481,4.14192 -2.37481,4.66687 0,1.22481 4.44648,5.24291 8.69407,7.85648 1.81826,1.11878 3.30593,2.26618 3.30593,2.54977 0,0.76882 -5.29072,6.63363 -6.63168,7.35129 -0.81399,0.43564 -1.63187,0.29299 -2.72993,-0.47611 z m 88.07568,-65.30231 c -3.33928,-1.75712 -5.88436,-5.3311 -7.7829,-10.92926 -1.83456,-5.4095 -3.87244,-17.42205 -3.32536,-19.60179 0.18944,-0.75482 5.08064,-6.0002 10.86932,-11.65641 5.78868,-5.65621 16.52487,-16.19915 23.8582,-23.42875 l 13.33334,-13.14474 3.02903,0.35024 c 4.62632,0.53492 18.59189,-0.95022 23.72641,-2.52314 2.51784,-0.77133 7.69333,-3.0674 11.5011,-5.10238 l 6.9232,-3.69998 15.41013,-0.51754 c 17.56249,-0.58984 20.30576,-1.12182 29.03562,-5.63061 3.1789,-1.64184 6.23153,-2.98516 6.78363,-2.98516 2.56936,0 36.94658,32.24127 44.78246,42 4.97853,6.20021 6.44164,9.33609 6.46044,13.84658 0.0257,6.16797 -4.8953,15.67713 -12.4736,24.10351 l -3.25274,3.61675 -21.62951,-11.70927 c -45.82692,-24.80868 -56.56121,-30.18658 -59.02045,-29.56935 -0.80966,0.20321 -8.32793,5.8416 -16.70725,12.52975 -38.01747,30.34449 -58.06781,43.93648 -66.23514,44.90035 -2.14851,0.25356 -3.64881,0.0127 -5.28593,-0.8488 z M 498.3725,265.22195 c -5.80196,-0.66155 -7.03917,-1.2878 -7.03917,-3.56306 0,-1.93874 -2.19866,-4.69349 -3.23489,-4.05306 -0.43129,0.26655 -1.38597,1.66428 -2.12151,3.10607 -0.9743,1.90978 -1.75598,2.62143 -2.87937,2.62143 -0.8481,0 -1.72777,-0.18576 -1.95481,-0.4128 -0.22704,-0.22704 0.66067,-2.54444 1.97269,-5.14976 l 2.38549,-4.73695 -2.70308,-2.39877 c -1.48668,-1.31932 -4.52939,-3.37218 -6.76156,-4.56192 l -4.0585,-2.16315 1.17778,-2.00201 c 1.71828,-2.9208 5.21272,-6.57464 6.28782,-6.57464 1.65453,0 35.88994,26.03934 35.88994,27.29777 0,3.32847 -4.48424,4.01346 -16.96083,2.59085 z M 198.66667,112.66667 c 0,-0.36667 0.3,-0.66667 0.66666,-0.66667 0.36667,0 0.66667,0.3 0.66667,0.66667 0,0.36666 -0.3,0.66666 -0.66667,0.66666 -0.36666,0 -0.66666,-0.3 -0.66666,-0.66666 z m 16.9793,-5.36682 c -0.63347,-1.02498 0.23424,-1.68631 1.0899,-0.83065 0.47878,0.47879 0.49028,0.85168 0.0349,1.13309 -0.37328,0.2307 -0.87946,0.0946 -1.12485,-0.30244 z"
         style="fill:#4d8081;stroke-width:0.666667" />
      <path
         id="path276"
         d="m 128.63839,420.17183 c -2.43416,-1.70496 -31.576177,-27.5743 -32.133537,-28.52492 -0.280313,-0.47809 0.0492,-1.51678 0.759467,-2.3939 1.566047,-1.93399 4.55718,-1.88262 15.00687,0.2577 l 7.27118,1.48929 0.8907,3.08107 c 1.38845,4.80292 2.40714,5.18964 4.69198,1.7812 1.97869,-2.95176 4.57098,-4.09678 5.25274,-2.32014 0.20451,0.53293 -0.69684,2.63956 -2.00298,4.6814 -1.30614,2.04183 -2.37481,4.14192 -2.37481,4.66687 0,1.22481 4.44648,5.24291 8.69407,7.85648 1.81826,1.11878 3.30593,2.26618 3.30593,2.54977 0,0.76882 -5.29072,6.63363 -6.63168,7.35129 -0.81399,0.43564 -1.63187,0.29299 -2.72993,-0.47611 z m 92.69494,-66.8385 c 0,-0.36666 0.31771,-0.66666 0.70602,-0.66666 0.3883,0 0.5206,0.3 0.29398,0.66666 C 222.10672,353.7 221.78901,354 221.62732,354 c -0.16169,0 -0.29399,-0.3 -0.29399,-0.66667 z m -9.18434,-2.46161 c -1.38356,-1.94739 -3.48232,-6.56847 -3.48232,-7.66742 0,-0.34808 0.45,-0.18287 1,0.36713 0.55,0.55 1,1.4347 1,1.96599 0,0.53129 0.4404,1.33149 0.97868,1.77823 0.53828,0.44672 0.92454,1.00846 0.85837,1.24829 -0.0662,0.23983 0.26772,1.13675 0.74199,1.99316 1.2583,2.27214 0.4573,2.50193 -1.09672,0.31462 z m 13.18434,0.79495 c -0.67971,-0.81901 -0.63416,-1 0.25171,-1 0.59489,0 1.08163,0.45 1.08163,1 0,0.55 -0.11327,1 -0.25171,1 -0.13843,0 -0.62517,-0.45 -1.08163,-1 z m -17.88309,-12.50828 c -1.0369,-4.16168 -2.31678,-14.51407 -1.85187,-14.97898 0.2209,-0.2209 0.40163,0.0984 0.40163,0.70948 0,0.61111 0.32383,1.11111 0.71964,1.11111 0.45313,0 0.56495,0.80237 0.30192,2.16667 -0.39409,2.04409 -0.35937,2.09345 0.61369,0.87258 0.99662,-1.25042 1.03142,-1.23426 1.03142,0.47908 0,1.16488 -0.29213,1.66106 -0.85158,1.44638 -0.67786,-0.26012 -0.71789,0.56009 -0.19624,4.02092 0.36043,2.39124 0.89364,4.3477 1.1849,4.3477 0.72122,0 0.67309,1.83262 -0.06,2.28571 -0.32428,0.20042 -0.90635,-0.90687 -1.29348,-2.46065 z m 178.21527,-1.00329 c 0.31317,-1.80413 1.96438,-3.61544 2.69534,-2.95669 0.28577,0.25754 0.30525,0.0956 0.0433,-0.3598 -0.59743,-1.03865 0.29427,-2.50528 1.52321,-2.50528 0.51004,0 1.26004,-0.59655 1.66666,-1.32568 0.40664,-0.72912 1.27324,-2.0559 1.9258,-2.94841 0.93845,-1.28352 1.00813,-1.74717 0.33334,-2.21799 -0.54675,-0.38148 -0.29389,-0.4372 0.70408,-0.15517 1.40942,0.39833 1.48705,0.30899 0.8179,-0.94133 -0.6043,-1.12914 -0.56112,-1.31303 0.23646,-1.00698 1.4328,0.54983 4.37226,-5.68433 5.01899,-10.64454 L 401.16425,309 l 0.0845,3.17991 c 0.15358,5.77726 -5.00889,15.61622 -12.49832,23.82009 -2.56067,2.80493 -3.28569,3.31142 -3.08497,2.1551 z m -134.99884,-0.82177 c 0,-0.36666 0.3177,-0.66666 0.70601,-0.66666 0.38831,0 0.5206,0.3 0.29399,0.66666 C 251.44005,337.7 251.12235,338 250.96065,338 c -0.16169,0 -0.29398,-0.3 -0.29398,-0.66667 z M 210,334 c 0,-0.73333 0.3,-1.33333 0.66667,-1.33333 0.36666,0 0.66666,0.6 0.66666,1.33333 0,0.73333 -0.3,1.33333 -0.66666,1.33333 C 210.3,335.33333 210,334.73333 210,334 Z m 165.78393,-1.60149 c -0.1973,-0.51415 -0.182,-1.11155 0.034,-1.32755 0.57114,-0.57113 2.23452,0.9715 1.80205,1.67125 -0.54439,0.88084 -1.42975,0.7151 -1.83605,-0.3437 z M 268.66667,324 c 0,-0.36667 0.3177,-0.66667 0.70601,-0.66667 0.38831,0 0.5206,0.3 0.29399,0.66667 -0.22662,0.36667 -0.54432,0.66667 -0.70602,0.66667 -0.16169,0 -0.29398,-0.3 -0.29398,-0.66667 z M 358,323.33333 c -0.8546,-0.55228 -0.83037,-0.64773 0.16667,-0.65646 0.64166,-0.005 1.16666,0.2898 1.16666,0.65646 0,0.81308 -0.0752,0.81308 -1.33333,0 z M 393.33333,322 c 0,-0.36667 0.31771,-0.66667 0.70602,-0.66667 0.3883,0 0.5206,0.3 0.29398,0.66667 -0.22661,0.36667 -0.54432,0.66667 -0.70601,0.66667 -0.16169,0 -0.29399,-0.3 -0.29399,-0.66667 z M 212,320.41496 c 0,-0.13843 0.525,-0.66343 1.16667,-1.16667 1.05737,-0.82924 1.08095,-0.80566 0.2517,0.25171 C 212.54746,320.6105 212,320.96365 212,320.41496 Z m 145.49585,-0.1912 c -0.46062,-0.1857 -0.67602,-0.59891 -0.47866,-0.91825 0.43209,-0.69913 2.31614,-0.0762 2.31614,0.76582 0,0.64215 -0.5165,0.685 -1.83748,0.15243 z m 38.83748,-0.89043 c -0.22661,-0.36666 -0.0943,-0.66666 0.29399,-0.66666 0.38831,0 0.70601,0.3 0.70601,0.66666 0,0.36667 -0.13229,0.66667 -0.29398,0.66667 -0.1617,0 -0.4794,-0.3 -0.70602,-0.66667 z m -179.66666,-3.66666 c 0,-0.55 0.45,-1 1,-1 0.55,0 1,0.45 1,1 0,0.55 -0.45,1 -1,1 -0.55,0 -1,-0.45 -1,-1 z m 181.37845,-3.03334 c 0.0424,-2.15999 0.0897,-2.20736 0.77825,-0.77824 0.54207,1.12517 0.53031,1.72456 -0.0451,2.3 -0.59322,0.59322 -0.76752,0.23142 -0.73312,-1.52176 z m -68.37845,-7.3 c -0.22662,-0.36666 -0.0943,-0.66666 0.29398,-0.66666 0.38831,0 0.70602,0.3 0.70602,0.66666 0,0.36667 -0.1323,0.66667 -0.29399,0.66667 -0.16169,0 -0.4794,-0.3 -0.70601,-0.66667 z m -9.33334,-4.66666 C 320.10672,300.3 320.389,300 320.96065,300 c 0.57164,0 1.03935,0.3 1.03935,0.66667 0,0.36666 -0.28229,0.66666 -0.62732,0.66666 -0.34503,0 -0.81273,-0.3 -1.03935,-0.66666 z m 69.29409,-2.9788 c -0.72895,-0.55135 -0.93017,-0.98806 -0.46075,-1 0.45833,-0.0117 0.84331,-0.5462 0.85551,-1.18787 0.0186,-0.97981 0.23161,-0.91529 1.32976,0.40277 1.99224,2.39122 0.76137,3.66533 -1.72452,1.7851 z m -78.46075,-2.12939 c 0.45833,-0.18494 1.20833,-0.18494 1.66666,0 0.45834,0.18494 0.0833,0.33626 -0.83333,0.33626 -0.91667,0 -1.29167,-0.15132 -0.83333,-0.33626 z M 389.05555,293.5 c -0.275,-0.275 -0.825,-0.5 -1.22222,-0.5 -0.39722,0 -0.84722,-0.375 -1,-0.83333 -0.42583,-1.2775 0.81777,-0.99052 2.16667,0.5 1.12192,1.23971 1.16907,1.94684 0.0555,0.83333 z m -142.38888,-4.75465 c 0,-0.36666 0.3,-0.85207 0.66666,-1.07868 C 247.7,287.44005 248,287.55465 248,287.92131 c 0,0.36667 -0.3,0.85208 -0.66667,1.07869 -0.36666,0.22661 -0.66666,0.11202 -0.66666,-0.25465 z m 25.96998,-10.38987 c 1.22596,-0.90448 2.49722,-1.47876 2.82502,-1.27617 0.3278,0.2026 -0.53041,0.94263 -1.90713,1.64452 -3.34847,1.70715 -3.59628,1.6077 -0.91789,-0.36835 z m 5.72516,-1.64275 c -0.66796,-1.08078 0.78352,-1.40921 1.64428,-0.37206 0.66984,0.80712 0.62901,0.99266 -0.21845,0.99266 -0.57325,0 -1.21488,-0.27927 -1.42583,-0.6206 z m 9.361,-2.25078 c 0.64656,-0.36183 1.62486,-0.36183 2.43576,0 1.1178,0.49878 0.92851,0.60472 -1.08055,0.60472 -1.80721,0 -2.15693,-0.15605 -1.35521,-0.60472 z m 69.48552,-6.91736 c 0.48125,-0.19258 1.05626,-0.1689 1.27778,0.0526 0.22153,0.22153 -0.17222,0.3791 -0.875,0.35015 -0.77663,-0.032 -0.9346,-0.18996 -0.40278,-0.40277 z M 306.5,265.55848 c 0.45833,-0.18494 1.20833,-0.18494 1.66667,0 0.45833,0.18494 0.0833,0.33626 -0.83334,0.33626 -0.91666,0 -1.29166,-0.15132 -0.83333,-0.33626 z m 5,-0.036 c 1.00833,-0.15275 2.65833,-0.15275 3.66667,0 1.00833,0.15275 0.18333,0.27773 -1.83334,0.27773 -2.01666,0 -2.84166,-0.12498 -1.83333,-0.27773 z m 18.5,-0.18915 c 0,-0.36666 0.45,-0.66666 1,-0.66666 0.55,0 1,0.3 1,0.66666 C 332,265.7 331.55,266 331,266 c -0.55,0 -1,-0.3 -1,-0.66667 z m 168.3725,-0.11138 c -5.80196,-0.66155 -7.03917,-1.2878 -7.03917,-3.56306 0,-1.93874 -2.19866,-4.69349 -3.23489,-4.05306 -0.43129,0.26655 -1.38597,1.66428 -2.12151,3.10607 -0.9743,1.90978 -1.75598,2.62143 -2.87937,2.62143 -0.8481,0 -1.72777,-0.18576 -1.95481,-0.4128 -0.22704,-0.22704 0.66067,-2.54444 1.97269,-5.14976 l 2.38549,-4.73695 -2.70308,-2.39877 c -1.48668,-1.31932 -4.52939,-3.37218 -6.76156,-4.56192 l -4.0585,-2.16315 1.17778,-2.00201 c 1.71828,-2.9208 5.21272,-6.57464 6.28782,-6.57464 1.65453,0 35.88994,26.03934 35.88994,27.29777 0,3.32847 -4.48424,4.01346 -16.96083,2.59085 z M 335.33333,264 c -0.80451,-0.51992 -0.69908,-0.64825 0.53935,-0.65646 0.85838,-0.006 1.35707,0.28471 1.12732,0.65646 -0.49546,0.80167 -0.42617,0.80167 -1.66667,0 z M 198.66667,112.66667 c 0,-0.36667 0.3,-0.66667 0.66666,-0.66667 0.36667,0 0.66667,0.3 0.66667,0.66667 0,0.36666 -0.3,0.66666 -0.66667,0.66666 -0.36666,0 -0.66666,-0.3 -0.66666,-0.66666 z m 16.9793,-5.36682 c -0.63347,-1.02498 0.23424,-1.68631 1.0899,-0.83065 0.47878,0.47879 0.49028,0.85168 0.0349,1.13309 -0.37328,0.2307 -0.87946,0.0946 -1.12485,-0.30244 z"
         style="fill:#4e7e80;stroke-width:0.666667" />
      <path
         id="path274"
         d="m 117,410.07669 c -6.6,-5.8071 -14.05007,-12.47498 -16.55572,-14.81752 L 95.888553,391 l 1.4967,-1.58767 c 1.37174,-1.45511 1.863427,-1.55514 5.889057,-1.19806 6.72328,0.59637 16.13458,2.52776 16.41197,3.36809 0.13634,0.41303 0.56596,1.99513 0.95471,3.51576 1.00876,3.94587 2.26888,4.09093 4.71042,0.54227 2.0777,-3.01984 2.88978,-3.43344 4.6074,-2.34662 0.78978,0.49973 0.52532,1.309 -1.5,4.59028 -1.35234,2.19097 -2.45881,4.42846 -2.45881,4.9722 0,1.25416 4.40041,5.24871 8.6887,7.88732 2.84359,1.74968 3.20632,2.2069 2.61998,3.3025 -1.29351,2.41694 -5.77334,6.62054 -7.03879,6.60478 C 129.57145,420.64215 123.6,415.88377 117,410.07669 Z M 499,265.17637 c -6.47599,-0.68998 -7.66667,-1.2247 -7.66667,-3.443 0,-1.73776 -1.75766,-4.40004 -2.90496,-4.40004 -0.45614,0 -1.48523,1.35 -2.28686,3 -1.02122,2.10198 -1.8655,3 -2.82044,3 -2.2122,0 -2.20722,-1.60324 0.0187,-6.01274 l 2.09577,-4.15168 -2.05686,-2.12214 c -1.13128,-1.16718 -4.00174,-3.15518 -6.37881,-4.41779 -2.62023,-1.39177 -4.32416,-2.72662 -4.32757,-3.39021 -0.006,-1.19842 5.72678,-7.90544 6.7573,-7.90544 1.44436,0 35.49746,25.78358 35.79553,27.10287 0.12381,0.54799 -0.29769,1.57402 -0.93665,2.28007 -1.32059,1.45923 -4.89978,1.56694 -15.28845,0.4601 z M 198.66667,112.66667 c 0,-0.36667 0.3,-0.66667 0.66666,-0.66667 0.36667,0 0.66667,0.3 0.66667,0.66667 0,0.36666 -0.3,0.66666 -0.66667,0.66666 -0.36666,0 -0.66666,-0.3 -0.66666,-0.66666 z m 16.9793,-5.36682 c -0.63347,-1.02498 0.23424,-1.68631 1.0899,-0.83065 0.47878,0.47879 0.49028,0.85168 0.0349,1.13309 -0.37328,0.2307 -0.87946,0.0946 -1.12485,-0.30244 z"
         style="fill:#535d71;stroke-width:0.666667" />
      <path
         id="path272"
         d="m 125.19403,416.53103 c -8.09172,-6.91402 -27.729323,-24.44578 -28.156697,-25.13729 -0.36628,-0.59266 2.050174,-3.3973 2.921707,-3.39106 0.85543,0.006 12.80173,2.03157 15.89439,2.69483 3.15086,0.67574 3.3732,0.86181 3.79605,3.1768 0.49841,2.72866 2.02203,5.45902 3.04629,5.45902 0.36578,0 1.61661,-1.35 2.77964,-3 1.1765,-1.66912 2.64916,-3 3.31959,-3 1.66674,0 1.53993,0.53606 -1.11127,4.69756 -1.27395,1.99968 -2.32395,4.09832 -2.33333,4.66364 -0.0221,1.32786 4.80311,5.96834 8.6496,8.31854 1.65,1.00815 3.11738,1.93501 3.26085,2.0597 0.42507,0.36943 -4.5752,6.20349 -5.94542,6.93681 -1.04929,0.56156 -2.07586,-0.0218 -6.1214,-3.47855 z M 498.44341,264.62866 C 492.66383,263.95712 492,263.68505 492,261.98781 c 0,-2.2938 -1.91109,-5.32114 -3.35912,-5.32114 -0.90985,0 -1.78145,0.93976 -2.78239,3 -0.92566,1.9053 -1.89557,3 -2.658,3 -1.63567,0 -1.52486,-0.72879 0.81584,-5.36568 1.54548,-3.0616 1.8609,-4.2847 1.35076,-5.23792 -0.67438,-1.26009 -5.9044,-4.96518 -9.86709,-6.99014 -1.19167,-0.60894 -2.16667,-1.50723 -2.16667,-1.99619 0,-1.15849 5.21396,-7.07956 6.22333,-7.06732 1.2629,0.0153 34.75621,25.24556 34.99839,26.364 0.63625,2.93843 -4.29328,3.62844 -16.11164,2.25524 z"
         style="fill:#394362;stroke-width:0.666667" />
      <path
         id="path270"
         d="m 124.54897,415.23402 c -3.05193,-2.62757 -10.4413,-9.12949 -16.42081,-14.44869 -10.772733,-9.58312 -10.860007,-9.68311 -9.574,-10.96912 1.286007,-1.28601 1.37904,-1.2846 10.20517,0.15384 8.84637,1.44176 10.574,2.18624 10.574,4.55662 0,0.51617 0.48418,1.95883 1.07596,3.20591 1.51,3.18209 3.2094,2.95305 5.4356,-0.73258 0.99664,-1.65 2.21372,-3 2.70463,-3 0.84858,0 -0.0744,1.94129 -3.00249,6.31501 -0.4842,0.72324 -0.88036,1.96334 -0.88036,2.75575 0,1.67108 3.84771,5.36079 8.71073,8.35303 l 3.32258,2.0444 -2.46816,2.76591 c -1.35748,1.52125 -2.84294,2.99347 -3.30101,3.27162 -0.52928,0.32139 -2.85547,-1.23565 -6.38184,-4.2717 z M 504.33333,264.62071 c -11.35321,-0.99664 -11.47058,-1.03316 -11.97572,-3.72578 -0.50478,-2.69066 -3.15286,-5.72623 -4.53323,-5.19654 -0.50398,0.1934 -1.56674,1.69038 -2.36169,3.32662 C 484.66774,260.66125 483.71343,262 483.342,262 c -0.97179,0 -0.89342,-0.27265 1.36345,-4.7435 1.93987,-3.84286 1.9863,-4.11893 0.95682,-5.69011 -1.08685,-1.65874 -8.0289,-6.50306 -10.39545,-7.25416 C 474.57007,244.09108 474,243.58627 474,243.1904 c 0,-0.99464 4.60076,-6.52373 5.42841,-6.52373 0.65038,0 13.67811,9.49053 27.73826,20.20696 3.75833,2.86455 6.83333,5.64726 6.83333,6.18382 0,0.76211 -2.98718,2.60238 -3.5434,2.18293 -0.0678,-0.0511 -2.82327,-0.32998 -6.12327,-0.61967 z"
         style="fill:#2e385b;stroke-width:0.666667" />
    </g>
  </g>
</svg>
