<?xml version="1.0" encoding="UTF-8" standalone="no"?>
<svg
   xmlns:dc="http://purl.org/dc/elements/1.1/"
   xmlns:cc="http://creativecommons.org/ns#"
   xmlns:rdf="http://www.w3.org/1999/02/22-rdf-syntax-ns#"
   xmlns:svg="http://www.w3.org/2000/svg"
   xmlns="http://www.w3.org/2000/svg"
   xmlns:sodipodi="http://sodipodi.sourceforge.net/DTD/sodipodi-0.dtd"
   xmlns:inkscape="http://www.inkscape.org/namespaces/inkscape"
   inkscape:version="1.0 (4035a4fb49, 2020-05-01)"
   sodipodi:docname="illuminator3.svg"
   viewBox="0 0 215.33333 210.66667"
   height="210.66667"
   width="215.33333"
   id="svg128"
   version="1.1">
  <metadata
     id="metadata134">
    <rdf:RDF>
      <cc:Work
         rdf:about="">
        <dc:format>image/svg+xml</dc:format>
        <dc:type
           rdf:resource="http://purl.org/dc/dcmitype/StillImage" />
        <dc:title></dc:title>
      </cc:Work>
    </rdf:RDF>
  </metadata>
  <defs
     id="defs132" />
  <sodipodi:namedview
     inkscape:current-layer="g136"
     inkscape:window-maximized="1"
     inkscape:window-y="-11"
     inkscape:window-x="-11"
     inkscape:cy="105.28598"
     inkscape:cx="107.67708"
     inkscape:zoom="3.7974683"
     showgrid="false"
     id="namedview130"
     inkscape:window-height="986"
     inkscape:window-width="1920"
     inkscape:pageshadow="2"
     inkscape:pageopacity="0"
     guidetolerance="10"
     gridtolerance="10"
     objecttolerance="10"
     borderopacity="1"
     bordercolor="#666666"
     pagecolor="#ffffff" />
  <g
     id="g136"
     inkscape:label="Image"
     inkscape:groupmode="layer">
    <g
       transform="translate(-1.3166704,5.0033334)"
       id="g140">
      <path
         id="path164"
         d="M 0,105.33334 V 0 H 107.66666 215.33333 V 105.33334 210.66667 H 107.66666 0 Z"
         style="fill:#c1c6e2;stroke-width:0.666667" />
      <path
         id="path162"
         d="M 0,105.33334 V 0 H 107.66666 215.33333 V 105.33334 210.66667 H 107.66666 0 Z M 52.546367,184.5 c -0.139828,-0.98454 -0.671217,-1.5 -1.546368,-1.5 -0.87515,0 -1.40654,0.51546 -1.546367,1.5 -0.174752,1.23046 0.103126,1.5 1.546367,1.5 1.443242,0 1.72112,-0.26954 1.546368,-1.5 z M 34.333333,181 c 0,-1.98542 -2.602397,-1.78706 -2.886693,0.22003 -0.183083,1.29254 0.04079,1.51641 1.333333,1.33333 1.035573,-0.14668 1.55336,-0.66447 1.55336,-1.55336 z M 186.06436,125.31628 c 2.69417,-1.64062 5.20685,-3.59759 5.58373,-4.34882 0.37688,-0.75124 1.64018,-2.56908 2.80733,-4.03965 1.16714,-1.47057 2.33244,-3.55593 2.58954,-4.63412 0.2571,-1.07819 0.90258,-2.46207 1.4344,-3.07527 0.53184,-0.61322 1.13805,-2.41322 1.34716,-4.00001 0.2091,-1.58679 0.80454,-3.53926 1.3232,-4.33882 0.51865,-0.79956 1.27418,-4.500915 1.67896,-8.225242 1.73449,-15.958927 -3.76391,-34.815363 -12.28966,-42.146651 -1.81715,-1.562566 -3.80681,-3.334702 -4.42147,-3.938079 -2.69268,-2.643276 -11.95587,-4.449252 -13.12427,-2.558743 -0.23031,0.372648 -0.68481,0.513104 -1.01,0.312126 -2.34935,-1.451978 -12.96258,7.705261 -15.68579,13.533908 -0.97897,2.095367 -2.21051,4.683656 -2.73675,5.751753 -1.59455,3.236452 -3.50454,12.598139 -3.91294,19.179019 -0.53281,8.585374 1.58278,21.002359 4.59224,26.953239 0.9065,1.7925 2.23135,4.47732 2.94412,5.96629 1.84096,3.84573 9.21647,10.9366 11.42144,10.98066 0.58358,0.0117 1.66106,0.48468 2.3944,1.05115 0.98004,0.75703 2.50351,0.9677 5.7496,0.79506 3.84238,-0.20434 5.05283,-0.6225 9.31476,-3.2178 z m -99.672095,-7.14624 c -0.728266,-0.72826 -1.227653,0.42991 -0.704786,1.63454 0.495786,1.14225 0.531726,1.14121 0.80796,-0.0234 0.159,-0.67036 0.112573,-1.39536 -0.103174,-1.61111 z"
         style="fill:#bdc2e0;stroke-width:0.666667" />
      <path
         id="path160"
         d="M 0,105.33334 V 0 H 107.66666 215.33333 V 105.33334 210.66667 H 107.66666 0 Z m 52.242197,80.48241 c 1.573317,-1.15044 0.739657,-3.14908 -1.313524,-3.14908 -1.226864,0 -1.59534,0.35929 -1.59534,1.55555 0,2.5035 0.951534,3.02476 2.908864,1.59353 z M 34.666666,181 c 0,-1.31346 -0.338089,-1.66666 -1.595341,-1.66666 -1.584456,0 -2.752063,1.56521 -2.034143,2.72682 0.206162,0.33358 1.107135,0.60651 2.002162,0.60651 1.291366,0 1.627322,-0.34408 1.627322,-1.66667 z M 183.09338,128.33728 c 11.29114,-4.71774 19.40487,-19.77794 20.65434,-38.337279 1.08913,-16.17784 -4.22836,-32.586603 -13.35837,-41.221392 -9.72107,-9.19378 -20.14831,-8.349951 -30.60021,2.476336 -4.9877,5.166352 -7.57085,9.973775 -9.89311,18.411723 -1.24841,4.536107 -1.46643,7.02744 -1.45853,16.666667 0.008,10.36148 0.16202,11.83574 1.79038,17.192215 3.801,12.50337 11.12656,22.74291 17.72531,24.77613 4.11257,1.26717 12.14741,1.28607 15.14019,0.0356 z m -95.760048,-9.00394 c 0,-1.29458 -1.138953,-2.41661 -1.791087,-1.76448 -0.202973,0.20298 -0.17422,1.14529 0.06393,2.09403 0.4767,1.89945 1.727153,1.66086 1.727153,-0.32955 z"
         style="fill:#a4acd4;stroke-width:0.666667" />
      <path
         id="path158"
         d="M 0,105.33334 V 0 H 107.66666 215.33333 V 105.33334 210.66667 H 107.66666 0 Z m 52.278808,80.92867 c 0.579989,-0.22256 1.054525,-1.12256 1.054525,-2 0,-1.3788 -0.316708,-1.59534 -2.333334,-1.59534 -2,0 -2.333333,0.22222 -2.333333,1.55555 0,2.3613 1.122476,2.99516 3.612142,2.03979 z m -17.065915,-4.76093 c 0.157652,-1.11 -0.246072,-1.67342 -1.555944,-2.17144 -2.168239,-0.82436 -2.990283,-0.3849 -2.990283,1.5986 0,1.9965 0.595161,2.5077 2.641717,2.26904 1.169866,-0.13643 1.75728,-0.6596 1.90451,-1.6962 z M 185.0768,128.26812 c 7.27629,-3.44224 14.47218,-13.98116 17.70808,-25.93479 2.09392,-7.735075 2.09392,-24.931582 0,-32.666662 -4.57261,-16.891552 -14.86459,-27.893543 -26.11822,-27.920039 -6.7266,-0.01584 -10.38001,2.018196 -19.80263,11.025109 -12.27779,11.73612 -70.121038,63.535382 -71.218718,63.777142 -1.169353,0.25756 -1.15342,0.0841 -0.24676,2.68498 0.490687,1.4076 1.169667,2.09948 2.06032,2.09948 2.277973,0 80.004968,7.99734 83.874458,8.62986 5.04426,0.82454 9.60699,0.26179 13.74347,-1.69508 z"
         style="fill:#d09460;stroke-width:0.666667" />
      <path
         id="path156"
         d="M 0,105.33334 V 0 H 107.66666 215.33333 V 105.33334 210.66667 H 107.66666 0 Z m 52.278808,80.92867 c 1.386844,-0.53218 1.35832,-3.33611 -0.03939,-3.87247 -1.803059,-0.69189 -3.572749,0.23814 -3.572749,1.87761 0,2.31537 1.138464,2.9441 3.612142,1.99486 z m -17.059407,-4.47827 c 0.360796,-1.90131 -1.776668,-3.8892 -3.303313,-3.07216 -1.226905,0.65662 -1.70853,3.27376 -0.774371,4.20792 0.913909,0.91391 3.84358,0.0979 4.077684,-1.13576 z M 185.0768,128.26812 c 7.27629,-3.44224 14.47218,-13.98116 17.70808,-25.93479 2.09392,-7.735075 2.09392,-24.931582 0,-32.666662 -4.57261,-16.891552 -14.86459,-27.893543 -26.11822,-27.920039 -6.7266,-0.01584 -10.38001,2.018196 -19.80263,11.025109 -18.29013,17.48321 -70.316058,63.580882 -72.684698,64.402432 -1.333333,0.46245 -2.957147,1.32309 -3.60846,1.91253 -1.358047,1.22901 -5.515946,0.78058 -7.26052,-0.78306 -0.87794,-0.78688 -1.13868,-0.73162 -1.838986,0.38974 C 70.753419,119.843 70.832286,120 72.127686,120 c 1.145133,0 1.294533,0.17778 0.672313,0.8 -0.44,0.44 -0.8,1.49 -0.8,2.33334 0,1.93736 1.465707,1.9896 5.518826,0.19671 1.661914,-0.73514 3.522354,-1.14449 4.134314,-0.90965 0.611966,0.23483 2.218713,0.0619 3.570546,-0.38421 2.1017,-0.69363 8.301634,-0.21441 42.783765,3.30687 22.17923,2.26493 41.82588,4.36318 43.65921,4.66278 4.73828,0.77432 9.36837,0.17434 13.41014,-1.73772 z M 50.386267,74.501261 c -0.04305,-1.218707 0.383048,-1.56126 2.280399,-1.833333 2.228802,-0.319607 2.342849,-0.46832 2.545742,-3.319587 0.239591,-3.366981 -0.355786,-7.34834 -1.09888,-7.34834 -0.270995,0 -1.013578,0.881744 -1.650183,1.959431 -0.636606,1.077688 -1.751288,2.147904 -2.477072,2.378259 -0.885864,0.281163 -1.319607,1.010577 -1.319607,2.219143 0,0.99018 -0.747443,2.90028 -1.660983,4.24468 l -1.660984,2.444354 1.82765,0.27718 c 1.005208,0.152447 2.15147,0.322127 2.547251,0.377067 0.395781,0.05493 0.695781,-0.574547 0.666667,-1.398854 z"
         style="fill:#7985c0;stroke-width:0.666667" />
      <path
         id="path154"
         d="M 0,105.33334 V 0 H 107.66666 215.33333 V 105.33334 210.66667 H 107.66666 0 Z m 52.710493,81.30988 c 0.826781,-0.44248 1.289506,-1.39468 1.289506,-2.65354 0,-1.88486 -0.105347,-1.95326 -2.633296,-1.70976 -1.581392,0.15232 -2.758757,-0.0527 -2.947368,-0.51314 -0.17274,-0.42173 -0.337757,0.45822 -0.366704,1.95544 -0.02895,1.49723 0.147368,2.92223 0.391813,3.16667 0.661203,0.66121 2.801875,0.53793 4.266049,-0.24567 z m -18,-3.33334 c 0.773373,-0.4139 1.289506,-1.3923 1.289506,-2.44444 0,-0.96488 -0.197397,-1.55693 -0.43866,-1.31566 -0.241264,0.24126 -0.866292,0.0838 -1.388952,-0.35002 -1.74733,-1.45015 -3.415979,-1.08303 -4.108645,0.90396 -1.06565,3.05692 1.551492,4.8627 4.646751,3.20616 z M 185.56688,129.07802 c 8.90608,-4.35733 16.57284,-17.0597 19.11776,-31.674485 0.96574,-5.546034 0.97102,-17.241947 0.0103,-22.736867 -1.89884,-10.859837 -6.33546,-20.342162 -12.33966,-26.373287 -7.07765,-7.109402 -14.74535,-9.247948 -22.56826,-6.294364 -4.65503,1.757535 -2.2657,-0.28487 -47.77052,40.834318 C 101.8292,101.075 84.999365,116 84.616832,116 c -0.38254,0 -0.510113,0.3 -0.2835,0.66667 0.226613,0.36667 -0.0152,0.66667 -0.537413,0.66667 -0.522194,0 -1.75182,0.63115 -2.732507,1.40256 -1.416273,1.11404 -2.291873,1.30814 -4.256573,0.94358 -1.360427,-0.25242 -2.933847,-0.87156 -3.496487,-1.37584 -0.87794,-0.78688 -1.13868,-0.73162 -1.838986,0.38974 C 70.753419,119.843 70.832286,120 72.127686,120 c 1.145133,0 1.294533,0.17778 0.672313,0.8 -0.44,0.44 -0.8,1.49 -0.8,2.33334 0,1.92582 1.49336,1.99344 5.39974,0.2445 1.682173,-0.75312 3.61826,-1.1409 4.658026,-0.93295 0.97864,0.19573 2.490994,-0.0149 3.360787,-0.46815 0.869793,-0.4532 1.339313,-0.56624 1.043373,-0.25119 -0.2973,0.3165 17.899945,2.42533 40.666665,4.71275 22.66261,2.27697 42.10474,4.27906 43.20474,4.44909 4.99883,0.7727 11.54525,-0.005 15.23355,-1.80937 z M 50.386267,74.501261 c -0.04305,-1.218707 0.383048,-1.56126 2.280399,-1.833333 2.228802,-0.319607 2.342849,-0.46832 2.545742,-3.319587 0.239591,-3.366981 -0.355786,-7.34834 -1.09888,-7.34834 -0.270995,0 -1.013578,0.881744 -1.650183,1.959431 -0.636606,1.077688 -1.751288,2.147904 -2.477072,2.378259 -0.885864,0.281163 -1.319607,1.010577 -1.319607,2.219143 0,0.99018 -0.747443,2.90028 -1.660983,4.24468 l -1.660984,2.444354 1.82765,0.27718 c 1.005208,0.152447 2.15147,0.322127 2.547251,0.377067 0.395781,0.05493 0.695781,-0.574547 0.666667,-1.398854 z m 6.751906,-6.660153 c -0.159462,-0.829274 -0.295985,-0.307774 -0.303385,1.158893 -0.0074,1.466667 0.12307,2.145167 0.289931,1.507773 0.166862,-0.637393 0.172916,-1.837393 0.01345,-2.666666 z"
         style="fill:#a9758c;stroke-width:0.666667" />
      <path
         id="path152"
         d="M 0,105.33334 V 0 H 107.66666 215.33333 V 105.33334 210.66667 H 107.66666 0 Z m 52.929771,81.13379 c 0.786823,-0.57534 1.109441,-1.52411 0.960753,-2.82544 -0.193133,-1.69032 -0.566263,-2.01442 -2.718555,-2.36132 -1.372082,-0.22115 -2.647082,-0.2497 -2.833333,-0.0635 -0.499034,0.49904 -0.412199,5.15396 0.105808,5.67197 0.735539,0.73554 3.222425,0.50169 4.485327,-0.42176 z m -18.219278,-3.15725 c 0.81457,-0.43594 1.289506,-1.39408 1.289506,-2.60145 0,-1.53998 -0.403452,-2.05197 -2.076579,-2.63523 -2.500159,-0.87156 -2.921725,-0.6601 -3.819752,1.91598 -1.105878,3.17232 1.446438,5.01209 4.606825,3.3207 z M 185.56688,129.07802 c 8.90608,-4.35733 16.57284,-17.0597 19.11776,-31.674485 0.96574,-5.546034 0.97102,-17.241947 0.0103,-22.736867 -1.89881,-10.859837 -6.33544,-20.342162 -12.33963,-26.373287 -7.07765,-7.109402 -14.74535,-9.247948 -22.56826,-6.294364 -4.65755,1.758486 -2.36163,-0.203444 -47.39393,40.499551 -19.97821,18.057542 -37.089548,33.180692 -38.025201,33.607012 -0.93568,0.42631 -1.701214,1.07696 -1.701214,1.44588 0,0.36892 -0.18724,0.48352 -0.416093,0.25467 -0.228853,-0.22885 -1.001707,0.24615 -1.71746,1.05555 -0.715747,0.80942 -1.138873,1.14208 -0.940273,0.73926 0.220106,-0.44644 -1.081087,-1.05515 -3.332567,-1.55901 -3.367133,-0.75353 -3.772613,-0.71863 -4.586806,0.39485 -0.491227,0.67179 -0.691054,1.37334 -0.44406,1.559 0.246993,0.18566 0.469373,1.38756 0.49418,2.67089 0.04413,2.28276 0.101786,2.33084 2.660753,2.21843 3.289,-0.14447 6.49288,-1.3384 5.949766,-2.21718 C 80.107065,122.30056 80.239012,122 80.627319,122 c 0.388306,0 0.706013,0.2954 0.706013,0.65645 0,0.39917 1.50234,0.50613 3.833333,0.27291 3.282487,-0.32842 82.736015,7.0932 86.166665,8.04869 0.55,0.15318 3.15183,0.19233 5.78183,0.087 3.56148,-0.14264 5.71842,-0.64974 8.45172,-1.98702 z M 51.705913,75.021201 c 0.711748,-0.538333 1.976512,-0.988333 2.810587,-1 2.111351,-0.02953 3.032803,-2.77568 2.467753,-7.354533 -0.481459,-3.901473 -1.296941,-6 -2.331584,-6 -0.348564,0 -1.427874,1.2 -2.398468,2.666666 -1.011748,1.528854 -2.295824,2.666667 -3.009459,2.666667 -0.955508,0 -1.244743,0.494981 -1.244743,2.130187 0,1.403406 -0.61119,2.768133 -1.791394,4 -0.985266,1.0284 -1.417562,1.869813 -0.960655,1.869813 0.456906,0 0.657947,0.27958 0.446757,0.621294 -0.332632,0.538213 0.377682,0.764666 4.011206,1.27882 0.388252,0.05493 1.288252,-0.340574 2,-0.878914 z"
         style="fill:#995e5f;stroke-width:0.666667" />
      <path
         id="path150"
         d="M 0,105.33334 V 0 H 107.66666 215.33333 V 105.33334 210.66667 H 107.66666 0 Z m 52.710493,81.30988 c 1.599709,-0.85614 1.699119,-3.75228 0.186181,-5.42406 -1.269809,-1.40312 -2.941653,-1.57418 -4.096675,-0.41916 -0.846484,0.84649 -1.108635,5.33581 -0.355555,6.08889 0.661203,0.66121 2.801875,0.53793 4.266049,-0.24567 z m -18,-3.33334 c 2.012846,-1.07724 1.775714,-5.11693 -0.357418,-6.08885 -1.999282,-0.91093 -3.255254,-0.0837 -4.263325,2.80808 -1.091844,3.13207 1.482851,4.96012 4.620743,3.28077 z M 51.666666,129.74869 60.333332,129 60.52696,123.5 c 0.106496,-3.025 0.337457,-5.5 0.513248,-5.5 0.17579,0 2.16538,0.75 4.42131,1.66667 2.255928,0.91667 4.499968,1.66667 4.986754,1.66667 0.502547,0 0.88506,0.72936 0.88506,1.68758 0,2.34416 1.468014,2.67892 6.100167,1.39107 7.63798,-2.12355 10.153286,-2.01172 52.233161,2.32222 47.65834,4.90849 50.4463,5.02878 55.78505,2.40705 9.03515,-4.43694 16.67397,-17.04233 19.23293,-31.737725 0.96574,-5.546034 0.97102,-17.241947 0.0103,-22.736867 -1.89881,-10.859837 -6.33544,-20.342162 -12.33963,-26.373287 -7.07765,-7.109402 -14.74535,-9.247948 -22.56826,-6.294364 -4.65281,1.756695 -2.3484,-0.211351 -47.26179,40.363284 -19.90552,17.982599 -37.682108,33.522949 -39.503515,34.534109 -3.9544,2.19529 -7.6177,1.96172 -9.870593,-0.62933 -0.762186,-0.8766 -4.02362,-3.15544 -7.247634,-5.0641 -6.55811,-3.88247 -6.010323,-2.81103 -6.920623,-13.536312 -0.566521,-6.674827 -2.246795,-16.210073 -3.301177,-18.733567 -0.496174,-1.187513 -1.535935,-2.498313 -2.310579,-2.912886 -1.738432,-0.93038 -1.189216,-2.020214 1.018079,-2.020214 1.178666,0 1.842431,-0.51878 2.34569,-1.833333 0.748756,-1.955814 0.238654,-8.338984 -0.825772,-10.333334 -0.941044,-1.763175 -2.816108,-1.401712 -4.112418,0.792765 -0.636605,1.077687 -1.826288,2.168122 -2.643738,2.423187 -1.879783,0.586542 -2.517486,1.577102 -2.110641,3.278508 0.176084,0.73638 -0.261178,2.279654 -0.971694,3.429494 l -1.291848,2.09062 -5.787114,-1.409374 c -5.759311,-1.4026 -5.791862,-1.40304 -6.775201,-0.09062 -0.699097,0.933054 -0.909451,2.468887 -0.719223,5.251187 0.233291,3.412147 0.550341,4.183934 2.39634,5.833334 1.170112,1.045493 2.722743,1.9009 3.450292,1.9009 1.805296,0 1.776632,0.47846 -1.337962,22.333335 -2.734354,19.18675 -3.035416,22.41287 -2.172556,23.28061 0.275,0.27656 2.45,0.28846 4.833333,0.0265 2.383333,-0.262 8.233333,-0.81328 13,-1.22505 z M 34.465108,129.5 c -0.154136,-0.275 1.016353,-9.5 2.601086,-20.5 1.584733,-10.999998 2.893139,-20.946532 2.907569,-22.103405 0.02363,-1.894814 -0.253292,-2.192314 -2.792484,-3 -3.460548,-1.100754 -4.587954,-3.05904 -4.354239,-7.56326 0.206487,-3.979487 -0.0076,-3.944394 10.506293,-1.722374 8.376936,1.770394 10.048638,2.4992 11.188721,4.8779 1.142928,2.38464 2.504129,10.285 3.476558,20.177807 0.432504,4.400002 1.070856,8.344122 1.41856,8.764712 0.347703,0.4206 3.321082,2.31657 6.607508,4.21328 6.100326,3.5207 7.123919,4.9055 4.955932,6.70476 -0.839273,0.69654 -1.837086,0.5252 -5.647298,-0.96968 -2.545352,-0.99864 -4.936629,-1.6249 -5.313948,-1.3917 -0.377318,0.23319 -0.686034,2.7879 -0.686034,5.67712 v 5.25314 l -2.833333,0.37836 C 45.519854,129.76291 34.936416,130.34088 34.465108,129.5 Z"
         style="fill:#4c5dac;stroke-width:0.666667" />
      <path
         id="path148"
         d="m 34.985693,195.23443 c -11.94346,-0.4071 -24.511755,-1.52949 -25.7590645,-2.30037 -0.8701473,-0.53778 -0.6615686,-1.41908 0.435492,-1.84006 0.5474995,-0.2101 4.9175455,-0.74934 9.7112145,-1.19831 8.053411,-0.75428 8.690453,-0.91309 8.382745,-2.08977 -0.183158,-0.7004 -0.03244,-1.93314 0.334924,-2.73942 0.58689,-1.28808 1.144862,-1.45372 4.598265,-1.36507 3.518464,0.0903 4.212435,0.35577 6.622448,2.53307 1.815021,1.63976 3.332507,2.43217 4.657676,2.43217 2.40087,0 9.235282,-1.72997 10.288889,-2.60438 0.507753,-0.4214 2.2246,0.0169 5.087386,1.29883 2.376548,1.06418 5.220998,1.94496 6.320998,1.95726 2.840833,0.0318 6.718966,1.20638 7.637553,2.31321 1.151287,1.38721 -0.920067,2.26794 -7.114613,3.02509 -7.391413,0.90343 -16.630458,1.0745 -31.203913,0.57775 z m 12.37909,-16.85162 c -1.134336,-3.51567 -2.698117,-13.71833 -2.698117,-17.60347 0,-5.31614 -0.904968,-3.91901 -4.655337,7.18711 -1.751069,5.18551 -3.30645,9.55089 -3.4564,9.70085 -0.14995,0.14994 -1.461153,-0.14258 -2.913784,-0.65007 L 31,176.09453 l 0.122941,-3.62609 c 0.131547,-3.87994 0.662644,-6.13166 4.513267,-19.1351 C 37.722319,146.2886 38.12164,143.91758 38.218617,138 l 0.114716,-7 7.333333,-0.77074 c 10.08141,-1.05956 11.685698,-1.06842 11.330723,-0.0626 -1.026423,2.9084 -2.998821,27.36234 -3.007599,37.28841 -0.0056,6.34971 -0.230614,11.84493 -0.499999,12.21159 -0.269386,0.36667 -1.60893,0.68894 -2.976767,0.71614 -2.206652,0.0439 -2.561511,-0.18153 -3.148241,-2 z M 34.465108,129.5 c -0.154136,-0.275 1.016353,-9.5 2.601086,-20.5 1.584733,-10.999998 2.893139,-20.946532 2.907569,-22.103405 0.02363,-1.894814 -0.253292,-2.192314 -2.792484,-3 -3.460548,-1.100754 -4.587954,-3.05904 -4.354239,-7.56326 0.206487,-3.979487 -0.0076,-3.944394 10.506293,-1.722374 8.376936,1.770394 10.048638,2.4992 11.188721,4.8779 1.142928,2.38464 2.504129,10.285 3.476558,20.177807 0.432504,4.400002 1.070856,8.344122 1.41856,8.764712 0.347703,0.4206 3.321082,2.31657 6.607508,4.21328 6.100326,3.5207 7.123919,4.9055 4.955932,6.70476 -0.839273,0.69654 -1.837086,0.5252 -5.647298,-0.96968 -2.545352,-0.99864 -4.936629,-1.6249 -5.313948,-1.3917 -0.377318,0.23319 -0.686034,2.7879 -0.686034,5.67712 v 5.25314 l -2.833333,0.37836 C 45.519854,129.76291 34.936416,130.34088 34.465108,129.5 Z m 7.927487,-59.551152 c -2.129046,-2.530227 -2.359088,-7.22882 -0.503413,-10.28218 0.969826,-1.59577 1.083521,-2.430526 0.562525,-4.130102 -0.5133,-1.674471 -0.414258,-2.494424 0.463029,-3.833333 2.249084,-3.432536 7.085263,-1.499405 7.085263,2.832142 0,1.655783 0.420848,2.314681 2,3.131293 1.78972,0.9255 2.811115,3 1.477072,3 -0.28761,0 -1.05356,0.898287 -1.702109,1.996194 -0.64855,1.097906 -1.891525,2.174981 -2.762167,2.393498 -1.726536,0.433333 -2.511301,1.737494 -1.940537,3.224881 0.479541,1.24966 -0.872576,3.71876 -2.036452,3.71876 -0.504505,0 -1.69395,-0.92302 -2.643211,-2.051153 z"
         style="fill:#eb5b03;stroke-width:0.666667" />
      <path
         id="path146"
         d="m 34.985693,195.23443 c -11.94346,-0.4071 -24.511755,-1.52949 -25.7590645,-2.30037 -0.8701473,-0.53778 -0.6615686,-1.41908 0.435492,-1.84006 0.5474995,-0.2101 4.9175455,-0.74934 9.7112145,-1.19831 8.053411,-0.75428 8.690453,-0.91309 8.382745,-2.08977 -0.183158,-0.7004 -0.03244,-1.93314 0.334924,-2.73942 0.58689,-1.28808 1.144862,-1.45372 4.598265,-1.36507 3.518464,0.0903 4.212435,0.35577 6.622448,2.53307 1.815021,1.63976 3.332507,2.43217 4.657676,2.43217 2.40087,0 9.235282,-1.72997 10.288889,-2.60438 0.507753,-0.4214 2.2246,0.0169 5.087386,1.29883 2.376548,1.06418 5.220998,1.94496 6.320998,1.95726 2.840833,0.0318 6.718966,1.20638 7.637553,2.31321 1.151287,1.38721 -0.920067,2.26794 -7.114613,3.02509 -7.391413,0.90343 -16.630458,1.0745 -31.203913,0.57775 z m 12.37909,-16.85162 c -1.134336,-3.51567 -2.698117,-13.71833 -2.698117,-17.60347 0,-5.31614 -0.904968,-3.91901 -4.655337,7.18711 -1.751069,5.18551 -3.30645,9.55089 -3.4564,9.70085 -0.14995,0.14994 -1.461153,-0.14258 -2.913784,-0.65007 L 31,176.09453 l 0.122941,-3.62609 c 0.131547,-3.87994 0.662644,-6.13166 4.513267,-19.1351 C 37.722319,146.2886 38.12164,143.91758 38.218617,138 l 0.114716,-7 7.333333,-0.77074 c 10.08141,-1.05956 11.685698,-1.06842 11.330723,-0.0626 -1.026423,2.9084 -2.998821,27.36234 -3.007599,37.28841 -0.0056,6.34971 -0.230614,11.84493 -0.499999,12.21159 -0.269386,0.36667 -1.60893,0.68894 -2.976767,0.71614 -2.206652,0.0439 -2.561511,-0.18153 -3.148241,-2 z M 42.392595,69.948848 c -2.129046,-2.530227 -2.359088,-7.22882 -0.503413,-10.28218 0.969826,-1.59577 1.083521,-2.430526 0.562525,-4.130102 -0.5133,-1.674471 -0.414258,-2.494424 0.463029,-3.833333 2.249084,-3.432536 7.085263,-1.499405 7.085263,2.832142 0,1.655783 0.420848,2.314681 2,3.131293 1.78972,0.9255 2.811115,3 1.477072,3 -0.28761,0 -1.05356,0.898287 -1.702109,1.996194 -0.64855,1.097906 -1.891525,2.174981 -2.762167,2.393498 -1.726536,0.433333 -2.511301,1.737494 -1.940537,3.224881 0.479541,1.24966 -0.872576,3.71876 -2.036452,3.71876 -0.504505,0 -1.69395,-0.92302 -2.643211,-2.051153 z"
         style="fill:#3b4c8a;stroke-width:0.666667" />
      <path
         id="path144"
         d="m 48.309915,191.96211 c -0.239492,-0.3875 -0.263912,-1.38798 -0.05427,-2.22327 0.297612,-1.18578 1.160305,-1.70564 3.935195,-2.37132 3.377151,-0.81017 3.726255,-0.76532 7.01492,0.90118 3.63284,1.84089 3.966634,2.29224 2.660901,3.59797 -1.01745,1.01745 -12.935064,1.10135 -13.55675,0.0954 z m -13.826934,-1.57709 c -4.809891,-1.97792 -5.933377,-2.89936 -5.681819,-4.66001 0.166768,-1.16721 0.73646,-1.42321 3.532171,-1.58718 3.169195,-0.18588 3.477296,-0.0488 6.25696,2.78391 1.90408,1.9404 2.783194,3.34537 2.520923,4.02884 -0.54901,1.43069 -2.094419,1.29883 -6.628235,-0.56556 z m 13.839471,-11.21835 c -1.152401,-3.17605 -2.502976,-12.02357 -2.814801,-18.43959 l -0.369673,-7.60625 -1.225999,2.38972 c -0.674298,1.31435 -2.662102,6.68716 -4.41734,11.93959 -1.755238,5.25242 -3.418706,9.65103 -3.696596,9.77468 -0.277889,0.12365 -1.396131,-0.0857 -2.484982,-0.46532 -1.565045,-0.54558 -1.977303,-1.08142 -1.968152,-2.55815 0.01826,-2.94662 1.671261,-10.01581 4.235756,-18.11455 2.75121,-8.6884 4.01377,-16.7649 3.394987,-21.71747 l -0.438177,-3.50705 5.231262,-0.44553 c 2.877194,-0.24504 6.961964,-0.62845 9.077266,-0.85202 3.10864,-0.32855 3.780969,-0.22993 3.506785,0.51439 -0.887806,2.41014 -3.019988,25.50178 -3.024195,32.7522 -0.0026,4.49278 -0.195988,10.19368 -0.429736,12.66868 -0.417271,4.41819 -0.459986,4.5 -2.349518,4.5 -1.058486,0 -2.060585,-0.375 -2.226887,-0.83333 z M 44.152639,70.887141 c -2.803286,-1.127893 -3.712933,-8.237933 -1.425924,-11.145393 1.172371,-1.490429 1.282236,-2.090232 0.69265,-3.781516 -0.978696,-2.807491 0.04661,-5.293565 2.183182,-5.293565 2.292496,0 3.730786,1.695304 3.730786,4.397453 0,1.817456 0.337301,2.430457 1.601907,2.91126 0.881049,0.334974 1.802135,0.93302 2.046859,1.32899 0.684583,1.10768 -2.231154,5.315742 -3.988926,5.756915 -1.61886,0.406308 -2.61281,1.936123 -1.952305,3.004843 0.208191,0.33686 0.188947,1.209786 -0.04276,1.93984 -0.415625,1.309513 -1.187081,1.54842 -2.845467,0.881173 z"
         style="fill:#354375;stroke-width:0.666667" />
      <path
         id="path142"
         d="m 49.453632,189.83409 c 0.166671,-1.17296 0.841566,-1.63135 3.101079,-2.10626 2.413111,-0.50719 3.378045,-0.36896 5.86771,0.84061 1.638817,0.7962 2.796491,1.74402 2.572611,2.10627 -0.223881,0.36225 -2.960216,0.65863 -6.080745,0.65863 -5.50169,0 -5.667231,-0.0455 -5.460655,-1.49925 z m -15.639887,-1.01351 c -5.36845,-2.12796 -5.842674,-3.69807 -1.217192,-4.03001 2.534698,-0.1819 3.213215,0.0763 5.160916,1.96411 2.285698,2.21538 2.909074,3.93382 1.409197,3.88469 -0.458333,-0.015 -2.867148,-0.83347 -5.352921,-1.81879 z M 48.989119,178.5 c -1.443628,-3.97867 -2.549574,-12.02509 -2.611454,-18.99988 -0.03985,-4.4916 -0.342518,-8.2416 -0.672598,-8.33333 -0.755042,-0.20983 -3.625374,6.7544 -7.148661,17.34467 -1.496433,4.49796 -2.977601,8.33684 -3.291486,8.53082 -0.313884,0.194 -1.217276,0.007 -2.007538,-0.41626 -1.305076,-0.69845 -1.401233,-1.14452 -1.048562,-4.86416 0.213551,-2.25236 1.792249,-8.59519 3.508217,-14.09519 2.84403,-9.11565 3.148664,-10.7454 3.44473,-18.42885 l 0.32479,-8.42886 5.090054,-0.4331 c 2.79953,-0.2382 6.365055,-0.60428 7.923388,-0.8135 2.134831,-0.28663 2.832547,-0.15631 2.830143,0.52862 -0.0017,0.49996 -0.595817,5.85902 -1.320139,11.90902 -0.724322,6.05 -1.32425,13.55 -1.333174,16.66667 -0.0089,3.11667 -0.210699,9.04167 -0.448387,13.16667 -0.388405,6.74063 -0.558965,7.5 -1.684558,7.5 -0.688819,0 -1.388463,-0.375 -1.554765,-0.83334 z M 43.40629,68.941334 c -1.720503,-2.187266 -1.816727,-5.590287 -0.239624,-8.47444 0.668747,-1.222981 1.166667,-3.548682 1.166667,-5.449305 0,-2.745018 0.221917,-3.359938 1.289268,-3.572494 1.65502,-0.329585 3.04289,1.574611 3.04828,4.182326 0.0033,1.578981 0.46876,2.303655 2.062418,3.210729 l 2.058203,1.171484 -1.364383,2.16185 c -0.750411,1.189018 -1.9035,2.26597 -2.562418,2.393227 -1.822274,0.351935 -2.391658,1.163509 -2.464702,3.51307 -0.08634,2.777427 -1.22899,3.107027 -2.993709,0.863553 z"
         style="fill:#293556;stroke-width:0.666667" />
    </g>
  </g>
</svg>
