<?xml version="1.0" encoding="UTF-8" standalone="no"?>
<svg
   xmlns:dc="http://purl.org/dc/elements/1.1/"
   xmlns:cc="http://creativecommons.org/ns#"
   xmlns:rdf="http://www.w3.org/1999/02/22-rdf-syntax-ns#"
   xmlns:svg="http://www.w3.org/2000/svg"
   xmlns="http://www.w3.org/2000/svg"
   xmlns:sodipodi="http://sodipodi.sourceforge.net/DTD/sodipodi-0.dtd"
   xmlns:inkscape="http://www.inkscape.org/namespaces/inkscape"
   inkscape:version="1.0 (4035a4fb49, 2020-05-01)"
   sodipodi:docname="illuminator2.svg"
   viewBox="0 0 316 320.66666"
   height="320.66666"
   width="316"
   id="svg82"
   version="1.1">
  <metadata
     id="metadata88">
    <rdf:RDF>
      <cc:Work
         rdf:about="">
        <dc:format>image/svg+xml</dc:format>
        <dc:type
           rdf:resource="http://purl.org/dc/dcmitype/StillImage" />
        <dc:title></dc:title>
      </cc:Work>
    </rdf:RDF>
  </metadata>
  <defs
     id="defs86" />
  <sodipodi:namedview
     inkscape:current-layer="g90"
     inkscape:window-maximized="1"
     inkscape:window-y="-11"
     inkscape:window-x="-11"
     inkscape:cy="147.50666"
     inkscape:cx="158"
     inkscape:zoom="2.4948026"
     showgrid="false"
     id="namedview84"
     inkscape:window-height="986"
     inkscape:window-width="1920"
     inkscape:pageshadow="2"
     inkscape:pageopacity="0"
     guidetolerance="10"
     gridtolerance="10"
     objecttolerance="10"
     borderopacity="1"
     bordercolor="#666666"
     pagecolor="#ffffff" />
  <g
     id="g90"
     inkscape:label="Image"
     inkscape:groupmode="layer">
    <g
       transform="translate(5.2108311,-4.4091669)"
       id="g94">
      <path
         id="path126"
         d="M 0,160.33333 V 0 H 158 316 V 160.33333 320.66666 H 158 0 Z"
         style="fill:#fafafa;stroke-width:0.666667" />
      <path
         id="path124"
         d="M 0,160.33333 V 0 H 158 316 V 160.33333 320.66666 H 158 0 Z m 93.166667,129.97616 c 1.7761,-0.57044 0.649126,-1.71883 -3.969147,-4.04456 -4.194687,-2.11241 -5.21608,-2.3695 -8.070587,-2.03143 -1.797453,0.21288 -3.68634,0.73417 -4.19752,1.15841 -0.870413,0.72238 -1.31672,4.66522 -0.608266,5.37368 0.365206,0.3652 15.570133,-0.0465 16.84552,-0.4561 z m -30.72138,-1.36084 c 0.265777,-0.69261 -0.708155,-2.18908 -2.854257,-4.38564 -4.013148,-4.1075 -6.071378,-5.22968 -9.591941,-5.22968 -2.509786,0 -2.816143,0.19709 -3.738828,2.40539 -0.55277,1.32296 -0.879894,2.53053 -0.726944,2.68348 0.310531,0.31053 15.168595,5.44699 15.987606,5.52694 0.286508,0.0279 0.702472,-0.42225 0.924364,-1.00049 z m 66.950563,-107.1528 c -0.87062,-0.87063 -0.99172,0.0942 -0.24888,1.98295 0.46326,1.17784 0.48914,1.17727 0.72919,-0.0163 0.13688,-0.68062 -0.0793,-1.56562 -0.48031,-1.96667 z M 55.666667,153.0981 c 6.160066,-2.87468 10.787282,-9.74286 13.975053,-20.7432 2.727507,-9.41205 3.87618,-17.33172 3.442853,-23.7372 -0.39894,-5.89724 0.02753,-7.28437 2.239574,-7.28437 1.26952,0 6.190533,-7.232499 5.732733,-8.425505 -0.506653,-1.32032 -5.633967,-2.405274 -9.00948,-1.90642 -2.472807,0.36544 -3.628493,1.0507 -6.129291,3.634313 -4.691396,4.84676 -6.65871,11.523002 -9.24223,31.364282 -1.893573,14.54252 -3.159818,20.88213 -5.003645,25.05135 -1.898474,4.29279 -1.383742,4.55654 3.994433,2.04675 z"
         style="fill:#c1c6e2;stroke-width:0.666667" />
      <path
         id="path122"
         d="M 0,160.33333 V 0 H 158 316 V 160.33333 320.66666 H 158 0 Z M 92.945473,290.92867 C 93.525467,290.70611 94,289.93904 94,289.22407 c 0,-0.97404 -1.2953,-1.8914 -5.166667,-3.65915 -4.327086,-1.97585 -5.646246,-2.29413 -8.117946,-1.95866 -3.907287,0.53031 -5.382054,1.94525 -5.382054,5.16373 v 2.56334 h 8.278807 c 4.553347,0 8.753347,-0.1821 9.333333,-0.40466 z M 62.789051,287.562 c -0.370944,-0.69311 -2.294421,-2.79231 -4.274393,-4.66489 -3.655738,-3.45744 -7.405153,-4.88404 -10.366291,-3.9442 -1.436452,0.4559 -3.812518,4.99162 -3.017449,5.76006 0.294661,0.28478 4.135749,1.69882 8.535749,3.14228 6.436162,2.11145 8.175622,2.46248 8.898414,1.79572 0.651777,-0.60124 0.713262,-1.17472 0.22397,-2.08897 z M 272.4767,196.95758 c 5.51739,-1.80299 8.75585,-3.75004 8.4945,-5.10714 -0.12916,-0.67066 0.0392,-1.05003 0.37412,-0.84304 0.94849,0.5862 5.51517,-2.09557 6.90808,-4.05676 0.96566,-1.35963 1.06083,-1.88376 0.41459,-2.28316 -1.23758,-0.76487 -0.17163,-2.00082 1.72561,-2.00082 0.96907,0 1.81725,-0.48073 2.05839,-1.16666 0.22557,-0.64167 1.08825,-1.91667 1.91706,-2.83334 1.96843,-2.17708 3.48994,-5.94372 3.19133,-7.9004 -0.16844,-1.10372 0.14233,-1.65435 1.07076,-1.89714 1.8799,-0.4916 3.64561,-6.17222 3.11709,-10.02822 -0.34719,-2.53301 -0.26489,-2.87967 0.52752,-2.22203 0.51638,0.42856 1.08956,0.53541 1.27371,0.23744 0.84748,-1.37125 1.8692,-9.49471 1.53314,-12.18965 -0.26073,-2.0908 -0.0774,-3.39219 0.60498,-4.29408 1.18586,-1.56738 1.33223,-12.42482 0.22971,-17.03925 -0.39424,-1.65 -0.8099,-4.35 -0.92369,-6 -0.30681,-4.44879 -0.89905,-7.26423 -2.35421,-11.19167 -0.71833,-1.93876 -1.30606,-3.99328 -1.30606,-4.56562 0,-1.699922 -5.30806,-12.242615 -8.51356,-16.909375 -3.325,-4.84072 -5.30695,-6.693693 -6.62047,-6.189647 -1.32407,0.508094 -2.77523,-1.013306 -2.38605,-2.501533 0.28785,-1.10076 6.2e-4,-1.30882 -1.80682,-1.30882 -1.57258,0 -2.05259,-0.251453 -1.78938,-0.93736 0.19783,-0.515553 -0.14507,-1.367407 -0.76201,-1.893013 -1.56626,-1.334393 -7.90127,-3.649113 -11.27863,-4.121047 -3.34223,-0.467026 -8.34707,0.878434 -7.87207,2.11626 0.39485,1.028954 -0.72064,1.11294 -1.34585,0.101334 -1.36404,-2.20706 -9.50082,2.419339 -15.86097,9.018206 -5.37823,5.580087 -8.89439,10.951613 -10.94191,16.71562 -0.39076,1.1 -1.46336,3.8 -2.38357,5.999995 -0.92021,2.2 -1.86954,5.33988 -2.10961,6.9775 -0.24008,1.63763 -0.67988,3.43763 -0.97734,4 -1.17442,2.22032 -2.0832,11.49873 -2.02642,20.68917 0.0651,10.52733 0.64461,15.09384 1.88262,14.83333 0.9334,-0.19641 1.06607,1.95112 0.17708,2.86667 -0.37668,0.38794 -0.25141,1.66658 0.3233,3.3 0.51604,1.46667 0.94277,3.33744 0.94829,4.15727 0.0183,2.7203 4.90405,14.36034 6.16607,14.69036 0.76444,0.19991 1.1773,0.94936 1.1773,2.13709 0,1.97117 1.72216,4.80877 6.5826,10.84613 2.40238,2.98408 3.4893,3.83139 4.9174,3.83333 1.1426,0.001 1.83334,0.36103 1.83334,0.9541 0,1.27473 3.34925,3.8516 4.4547,3.42739 1.26004,-0.48352 2.87863,0.27346 2.87863,1.34629 0,0.50378 0.675,1.06001 1.5,1.23605 0.825,0.17604 2.1,0.44696 2.83333,0.60203 3.13198,0.66231 9.18718,0.36023 12.14337,-0.60579 z M 131.07083,183.1875 c -0.46082,-2.30412 -1.45116,-3.69606 -2.13974,-3.00748 -0.83644,0.83643 0.43333,5.15331 1.51578,5.15331 0.83049,0 0.9624,-0.45364 0.62396,-2.14583 z M 55.921296,153.58102 c 3.788867,-1.88807 7.745068,-6.29012 10.372617,-11.54156 4.83828,-9.66984 9.069047,-31.41628 7.07632,-36.3728 C 72.627647,103.81964 73.738793,102 75.60924,102 c 1.122107,0 1.8061,-0.58851 2.427447,-2.088575 0.475813,-1.148714 1.592606,-2.95314 2.48176,-4.009847 2.800266,-3.32792 0.519266,-5.234913 -6.26162,-5.234913 -4.085087,0 -6.416934,0.976253 -9.014052,3.773813 C 61.225489,98.767825 59.174202,105.36223 56.981051,121 c -3.179471,22.67049 -3.711357,25.07076 -7.42339,33.5 -0.626208,1.42198 2.601234,0.9559 6.363635,-0.91898 z"
         style="fill:#bdc3e0;stroke-width:0.666667" />
      <path
         id="path120"
         d="M 0,160.33333 V 0 H 158 316 V 160.33333 320.66666 H 158 0 Z m 93.942733,129.97544 c 0.754687,-0.7273 0.77832,-1.10663 0.118467,-1.9017 -1.213167,-1.46178 -9.262627,-5.07374 -11.30712,-5.07374 -2.524747,0 -6.235487,1.16479 -6.863667,2.15448 -0.766313,1.20734 -0.68396,5.6921 0.10938,5.95663 0.36656,0.12222 4.34156,0.12111 8.833334,-0.003 5.73118,-0.15767 8.448033,-0.49564 9.109606,-1.1332 z m -30.753247,-1.31559 c 0.127199,-0.89047 -1.219866,-2.72224 -4.097977,-5.57251 -4.055635,-4.01642 -4.488012,-4.26295 -7.996475,-4.55944 -3.620279,-0.30594 -3.741482,-0.26018 -5.066198,1.91266 -2.349951,3.85447 -2.103666,4.11022 6.804497,7.06606 C 57.325,289.33034 61.45,290.49799 62,290.43473 c 0.55,-0.0633 1.085269,-0.71196 1.189486,-1.44155 z M 274.15172,197.28222 c 10.33091,-3.48023 19.86556,-13.39164 25.58516,-26.59614 10.75218,-24.8229 9.84951,-57.27442 -2.23043,-80.185342 -8.94977,-16.974226 -22.54332,-25.709393 -36.12854,-23.216059 -7.40376,1.358833 -12.21998,4.215593 -19.74122,11.709593 -7.14722,7.121326 -9.83222,11.354706 -13.21598,20.837279 -3.27084,9.166129 -5.71506,23.060059 -5.74103,32.634299 -0.0255,9.41727 2.36701,23.46807 5.65338,33.20081 4.05004,11.9944 13.24893,24.63065 21.41388,29.41563 6.26947,3.67415 17.12407,4.65262 24.40478,2.19993 z M 132,184.2289 c 0,-1.58344 -2.00791,-4.96937 -2.69506,-4.54469 -1.56407,0.96665 0.0159,6.53457 1.67372,5.89839 C 131.54039,185.36704 132,184.75788 132,184.2289 Z M 55.787735,153.94139 c 3.107535,-1.50433 6.641632,-5.21865 9.383203,-9.86168 5.268815,-8.92309 10.396782,-32.94723 8.199295,-38.41305 C 72.627647,103.81964 73.738793,102 75.60924,102 c 1.128647,0 1.807293,-0.5914 2.4448,-2.130475 0.48536,-1.17176 1.728287,-3.0938 2.76206,-4.2712 1.700553,-1.936827 1.780813,-2.239507 0.842587,-3.17774 -1.09762,-1.097614 -5.091054,-2.413154 -7.325354,-2.413154 -2.550626,0 -6.30442,1.387654 -8.302986,3.069334 -2.427234,2.04238 -5.498713,8.348965 -6.94334,14.256565 -0.582812,2.38333 -1.66549,8.68333 -2.405951,14 C 55.940596,126.65 55.015932,133.25 54.626248,136 c -0.961981,6.7887 -3.086555,14.50872 -4.720354,17.15226 l -1.347973,2.18107 h 2.177223 c 1.197473,0 3.471139,-0.62637 5.052591,-1.39194 z"
         style="fill:#a4acd4;stroke-width:0.666667" />
      <path
         id="path118"
         d="M 0,160.33333 V 0 H 158 316 V 160.33333 320.66666 H 158 0 Z m 91.608693,131.2379 c 2.888754,-0.39594 3.112687,-0.56174 2.92638,-2.16666 -0.167053,-1.43908 -1.10308,-2.18206 -5.443613,-4.3209 -4.842207,-2.38605 -5.432653,-2.52584 -7.744013,-1.83334 -1.37618,0.41232 -3.14976,0.74966 -3.941294,0.74966 -0.931413,0 -1.668533,0.60332 -2.08932,1.71007 -0.746366,1.96309 -0.859973,5.19124 -0.20572,5.84549 0.567927,0.56793 12.386547,0.57916 16.49758,0.0157 z M 63.59295,289.61837 c 0.560797,-1.46142 -0.276369,-2.7442 -4.482393,-6.8683 -3.07005,-3.01026 -4.108656,-3.62178 -6.494894,-3.82409 -1.562252,-0.13245 -3.339546,-0.39922 -3.94954,-0.59283 -0.609996,-0.1936 -1.560008,0.17724 -2.11114,0.82408 -1.303908,1.53037 -2.845698,5.44094 -2.343251,5.94338 0.742701,0.7427 15.459837,5.45161 17.216942,5.50875 1.028093,0.0335 1.929561,-0.37934 2.164276,-0.99099 z m 214.55131,-93.12663 c 8.99197,-4.44407 15.65133,-11.80507 21.25255,-23.49174 6.47558,-13.51099 8.98376,-26.67122 8.38585,-44 -0.24091,-6.98232 -0.84603,-12.90536 -1.75189,-17.14796 C 301.27954,89.599551 289.81538,73.252398 275,67.604139 c -2.43791,-0.929434 -5.04825,-1.270807 -9.71738,-1.270807 -6.16001,0 -6.58113,0.09811 -12,2.795827 -4.60118,2.290633 -7.18197,4.278893 -14.28262,11.003439 -12.51739,11.854387 -107.84035,97.556652 -109.49013,98.439582 -1.44256,0.77204 -1.44764,1.34457 -0.0529,5.95363 0.49762,1.64441 0.95235,2.10079 1.81913,1.82568 0.63562,-0.20173 9.98352,0.53401 20.77312,1.63499 10.78959,1.10098 37.76744,3.82022 59.95078,6.04275 22.18333,2.22253 41.83333,4.30554 43.66666,4.62891 1.83334,0.32336 6.50483,0.52963 10.3811,0.45838 6.67359,-0.12268 7.3158,-0.26203 12.0965,-2.62478 z M 55.025805,154.74768 c 2.945454,-1.33794 7.468839,-6.08949 10.155709,-10.66797 5.271966,-8.98353 10.382439,-32.9566 8.188719,-38.41305 C 72.63068,103.82717 73.736273,102 75.588873,102 c 1.15806,0 1.84604,-0.67433 2.763307,-2.708462 0.67174,-1.489647 2.071633,-3.423927 3.110873,-4.298393 l 1.889534,-1.589934 -1.45976,-1.35998 c -3.03268,-2.825366 -11.616147,-2.762833 -15.385363,0.112087 -5.260039,4.012027 -8.177718,12.908882 -10.880557,33.178012 -2.222432,16.66646 -3.238354,21.48869 -5.475805,25.99175 -0.999773,2.01212 -1.917769,3.88712 -2.039991,4.16666 -0.425361,0.97286 4.240163,0.47082 6.914694,-0.74406 z"
         style="fill:#de908b;stroke-width:0.666667" />
      <path
         id="path116"
         d="M 0,160.33333 V 0 H 158 316 V 160.33333 320.66666 H 158 0 Z m 91.608693,131.2379 c 2.888754,-0.39594 3.112687,-0.56174 2.92638,-2.16666 -0.16678,-1.43673 -1.098653,-2.18004 -5.377246,-4.28916 -8.491667,-4.18594 -13.327334,-3.36228 -14.26732,2.43016 -0.688974,4.24564 -0.361087,4.45442 6.99552,4.45442 3.627,0 8.0022,-0.19294 9.722666,-0.42876 z M 63.59295,289.61837 c 0.609769,-1.58904 -0.438194,-3.04164 -5.726923,-7.93819 -4.56649,-4.22787 -4.98507,-4.46173 -7.404804,-4.13718 -1.410591,0.1892 -3.076836,0.80747 -3.702766,1.37393 -1.262599,1.14263 -3.087026,5.64338 -2.51819,6.21222 0.721955,0.72196 15.4708,5.42436 17.188407,5.48021 1.028093,0.0335 1.929561,-0.37934 2.164276,-0.99099 z m 214.55131,-93.12663 c 8.99197,-4.44407 15.65133,-11.80507 21.25255,-23.49174 6.47558,-13.51099 8.98376,-26.67122 8.38585,-44 -0.24091,-6.98232 -0.84603,-12.90536 -1.75189,-17.14796 C 301.27954,89.599551 289.81538,73.252398 275,67.604139 c -2.43791,-0.929434 -5.04825,-1.270807 -9.71738,-1.270807 -6.16001,0 -6.58113,0.09811 -12,2.795827 -4.60118,2.290633 -7.18197,4.278893 -14.28262,11.003439 -12.78205,12.105027 -107.85765,97.565912 -109.55027,98.471762 -1.73172,0.9268 -1.89078,3.27562 -0.41507,6.12934 0.73744,1.42604 1.37399,1.89311 2.21589,1.6259 0.64967,-0.20619 10.00907,0.5259 20.79867,1.62688 10.78959,1.10098 37.76745,3.82022 59.95078,6.04275 22.18333,2.22253 41.83333,4.30554 43.66667,4.62891 1.83333,0.32336 6.50482,0.52963 10.38109,0.45838 6.67359,-0.12268 7.31581,-0.26203 12.0965,-2.62478 z M 55,154.7551 C 63.063393,151.07937 68.791867,141.39623 72.0113,126 c 0.805053,-3.85 1.876787,-7.65672 2.381627,-8.45936 1.040513,-1.65433 1.546093,-9.79421 0.74474,-11.99048 -0.43372,-1.18868 -0.260767,-1.48888 0.960173,-1.66666 1.000387,-0.14566 2.22316,-1.47506 3.725347,-4.050169 1.229886,-2.108333 2.481553,-3.833333 2.78148,-3.833333 1.00738,0 0.180473,-3.432693 -1.05196,-4.366947 -3.19136,-2.419226 -11.570074,-2.12838 -15.045243,0.522267 -5.260039,4.012027 -8.177718,12.908882 -10.880557,33.178012 -2.222432,16.66646 -3.238354,21.48869 -5.475805,25.99175 -0.999773,2.01212 -1.917769,3.88712 -2.039991,4.16666 -0.424377,0.97061 4.237216,0.47214 6.888889,-0.73664 z"
         style="fill:#de8972;stroke-width:0.666667" />
      <path
         id="path114"
         d="M 0,160.33333 V 0 H 158 316 V 160.33333 320.66666 H 158 0 Z m 91.608693,131.2379 c 2.888754,-0.39594 3.112687,-0.56174 2.92638,-2.16666 -0.165726,-1.42769 -1.094246,-2.18223 -5.20174,-4.22708 -2.75,-1.36904 -5.661406,-2.49404 -6.469793,-2.5 -1.14256,-0.008 -1.543673,-0.49321 -1.80166,-2.1775 -0.722727,-4.71848 -0.9414,-43.02047 -0.249553,-43.71232 0.695166,-0.69517 0.0071,-0.88137 -6.327267,-1.71217 -1.67428,-0.2196 -2.368827,-0.0934 -2.077827,0.3774 0.240414,0.389 0.519914,4.34623 0.621114,8.79385 0.155706,6.84324 1.637413,19.14728 4.212206,34.97812 0.5031,3.09324 0.412767,3.71283 -0.691233,4.74136 -1.35422,1.26166 -2.306993,5.29969 -1.652747,7.00464 0.319174,0.83174 1.659687,1.02912 6.989454,1.02912 3.627,0 8.0022,-0.19294 9.722666,-0.42876 z M 63.59295,289.61837 c 0.607771,-1.58383 -0.436852,-3.04039 -5.626378,-7.8451 -3.970441,-3.67602 -4.668261,-4.63571 -4.300258,-5.91402 4.499387,-15.62924 12.400486,-39.40323 13.523859,-40.69259 0.931734,-1.0694 0.882807,-1.16714 -0.586848,-1.17246 -0.881829,-0.003 -3.18526,-0.1958 -5.118736,-0.42802 -3.10284,-0.37267 -3.465379,-0.29184 -3.089101,0.68872 0.234471,0.61102 -0.647042,4.02864 -1.958917,7.59469 -2.299215,6.24993 -3.973993,14.58305 -5.837866,29.0472 -0.726748,5.63976 -1.043353,6.63859 -2.24964,7.09722 -0.772124,0.29356 -1.716253,0.94 -2.098064,1.43653 -1.099235,1.42951 -2.469602,5.23974 -2.039269,5.67007 0.742701,0.7427 15.459837,5.45161 17.216942,5.50875 1.028093,0.0335 1.929561,-0.37934 2.164276,-0.99099 z m 214.55131,-93.12663 c 8.99197,-4.44407 15.65133,-11.80507 21.25255,-23.49174 6.47558,-13.51099 8.98376,-26.67122 8.38585,-44 -0.24091,-6.98232 -0.84603,-12.90536 -1.75189,-17.14796 C 301.27954,89.599551 289.81538,73.252398 275,67.604139 c -2.43791,-0.929434 -5.04825,-1.270807 -9.71738,-1.270807 -6.16001,0 -6.58113,0.09811 -12,2.795827 -4.60118,2.290633 -7.18197,4.278893 -14.28262,11.003439 -11.65598,11.0386 -107.56083,97.265742 -109.66667,98.600272 -0.91666,0.58091 -2.41666,1.25277 -3.33333,1.49302 -2.26216,0.59287 -5.4009,3.07231 -3.91496,3.09261 0.59677,0.008 1.4585,-0.43517 1.91496,-0.98517 0.45646,-0.55 1.21385,-1 1.68308,-1 0.88338,0 2.59089,3.94825 1.97421,4.56493 -0.1918,0.1918 -1.61815,0.57263 -3.16967,0.8463 l -2.82095,0.49757 L 125,187.03332 c 1.83333,-0.11484 4.36224,-0.38689 5.6198,-0.60455 1.25755,-0.21767 11.00755,0.49418 21.66667,1.58187 10.6591,1.0877 37.5302,3.79606 59.71353,6.01859 22.18333,2.22253 41.83333,4.30554 43.66667,4.62891 1.83333,0.32336 6.50482,0.52963 10.38109,0.45838 6.67359,-0.12268 7.31581,-0.26203 12.0965,-2.62478 z m -162.23813,-7.17305 c 1.59838,-0.72528 3.53338,-1.31869 4.3,-1.31869 1.08412,0 1.21609,-0.17778 0.59387,-0.8 -0.44,-0.44 -0.8,-1.30596 -0.8,-1.92434 0,-0.69625 -0.69803,-1.25916 -1.83333,-1.47846 -4.38562,-0.84712 -7.01776,-1.75745 -8.21541,-2.84132 -0.70653,-0.63939 -1.28459,-0.84058 -1.28459,-0.44707 0,0.39351 -0.1821,1.19001 -0.40466,1.76999 -0.28782,0.75004 -0.0105,1.05453 0.96065,1.05453 2.05987,0 2.51371,1.39469 0.88341,2.71483 -1.3942,1.12895 -1.90349,3.26553 -0.99496,4.17406 0.82694,0.82694 3.87444,0.42172 6.79502,-0.90353 z m -6.09287,0.27234 c -1.12837,-1.12837 -0.38769,-2.2577 1.48073,-2.2577 1.71824,0 3.27276,0.98881 2.60474,1.65683 -0.58086,0.58086 -3.65356,1.03278 -4.08547,0.60087 z M 56.461796,153.99554 c 4.926764,-2.40362 8.134341,-5.93138 11.231457,-12.35262 2.176754,-4.51306 5.063154,-14.23054 5.983094,-20.14292 0.464033,-2.98235 1.276486,-3.44068 3.75128,-2.11621 1.207606,0.6463 1.269133,0.58477 0.622833,-0.62283 -0.39442,-0.73699 -0.717127,-2.2597 -0.717127,-3.3838 0,-2.00131 0.06765,-2.04383 3.251707,-2.04383 2.183213,0 3.54602,-0.35463 4.147393,-1.07925 1.24846,-1.5043 1.014627,-9.82366 -0.381906,-13.587415 -0.612227,-1.65 -1.217834,-3.699587 -1.345794,-4.554634 -0.458933,-3.066673 -4.304106,-4.5011 -10.654213,-3.9745 -4.62324,0.3834 -7.435705,2.494634 -10.178553,7.64074 -2.86312,5.371769 -4.51349,12.319909 -6.54506,27.555059 -2.222432,16.66646 -3.238354,21.48869 -5.475805,25.99175 -0.999773,2.01212 -1.917769,3.88712 -2.039991,4.16666 -0.546567,1.25008 4.618397,0.32466 8.350685,-1.4962 z"
         style="fill:#c87d84;stroke-width:0.666667" />
      <path
         id="path112"
         d="M 0,160.33333 V 0 H 158 316 V 160.33333 320.66666 H 158 0 Z m 91.608693,131.2379 c 2.888754,-0.39594 3.112687,-0.56174 2.92638,-2.16666 -0.221206,-1.90563 -4.478206,-4.63523 -9.604786,-6.15862 l -2.736374,-0.81312 -0.427586,-8.38308 c -0.235174,-4.6107 -0.4288,-15.0445 -0.430287,-23.18622 l -0.0027,-14.80311 -2.166666,-0.32754 C 77.975,235.55274 75.875,235.25801 74.5,235.07792 l -2.5,-0.32743 -0.0027,7.12475 c -0.0013,4.64872 0.83518,12.97587 2.40778,23.96127 2.28392,15.95434 2.353914,16.95515 1.33576,19.10075 -1.096466,2.31063 -1.43034,5.81796 -0.630006,6.61829 0.567926,0.56793 12.386546,0.57916 16.49758,0.0157 z M 63.59295,289.61837 c 0.596506,-1.55448 -0.387063,-2.96109 -5.25411,-7.51397 l -4.397724,-4.11386 5.060841,-16.39545 c 2.783463,-9.0175 5.944728,-18.81735 7.025033,-21.77745 1.080303,-2.96011 1.891177,-5.44641 1.801937,-5.52511 -0.08925,-0.0787 -2.33726,-0.35717 -4.995594,-0.61881 C 58.749978,233.27182 58,233.3548 58,234.20848 c 0,0.55576 -1.008137,3.66121 -2.240305,6.90099 -2.382244,6.26373 -3.649677,12.28936 -5.695647,27.07824 -1.111033,8.03087 -1.468392,9.34291 -2.838185,10.42039 -1.564491,1.23063 -3.672269,5.83437 -2.985596,6.52105 0.721955,0.72196 15.4708,5.42436 17.188407,5.48021 1.028093,0.0335 1.929561,-0.37934 2.164276,-0.99099 z m 214.55131,-93.12663 c 8.99197,-4.44407 15.65133,-11.80507 21.25255,-23.49174 6.47558,-13.51099 8.98376,-26.67122 8.38585,-44 -0.24091,-6.98232 -0.84603,-12.90536 -1.75189,-17.14796 C 301.27954,89.599551 289.81538,73.252398 275,67.604139 c -2.43791,-0.929434 -5.04825,-1.270807 -9.71738,-1.270807 -6.16001,0 -6.58113,0.09811 -12,2.795827 -4.60118,2.290633 -7.18197,4.278893 -14.28262,11.003439 -4.76667,4.514194 -31.109,28.405242 -58.53852,53.091232 -38.08983,34.28004 -50.68962,45.25079 -53.33333,46.43783 -4.31413,1.93706 -6.63813,3.6193 -5.04311,3.65047 0.59677,0.0117 1.4585,-0.4288 1.91496,-0.9788 0.45646,-0.55 1.21385,-1 1.68308,-1 0.88338,0 2.59089,3.94825 1.97421,4.56493 -0.1918,0.1918 -1.61815,0.5556 -3.16967,0.80845 l -2.82095,0.45973 2.66666,0.0671 c 1.46667,0.0369 3.9311,-0.22466 5.47652,-0.58131 2.12696,-0.49085 7.55465,-0.16428 22.33333,1.34377 10.73791,1.09572 37.67349,3.81065 59.85682,6.03318 22.18333,2.22253 41.83333,4.30554 43.66667,4.62891 1.83333,0.32336 6.50482,0.52963 10.38109,0.45838 6.67359,-0.12268 7.31581,-0.26203 12.0965,-2.62478 z M 117.01118,189.2814 c 3.31534,-1.024 4.28987,-1.58035 3.73689,-2.13333 -0.41144,-0.41144 -0.75173,-1.36307 -0.7562,-2.11474 -0.007,-1.12207 -0.99104,-1.68315 -5.5,-3.13501 -3.02053,-0.97258 -5.54248,-1.72197 -5.60435,-1.6653 -0.0619,0.0567 -0.31938,0.92743 -0.57227,1.93501 -0.35332,1.40777 -0.22062,1.83197 0.57313,1.83197 1.54017,0 1.92406,1.09232 0.78441,2.23196 -1.03837,1.03838 -1.3438,3.20814 -0.56168,3.99026 0.78106,0.78106 3.2943,0.48176 7.90007,-0.94082 z m -7.19792,0.30963 c -1.12837,-1.12837 -0.38769,-2.2577 1.48073,-2.2577 1.71824,0 3.27276,0.98881 2.60474,1.65683 -0.58086,0.58086 -3.65356,1.03278 -4.08547,0.60087 z M 55.543079,154.58952 c 4.566169,-1.86305 9.175105,-6.74808 12.095728,-12.82031 2.224313,-4.62453 5.111426,-14.31715 6.03754,-20.26921 0.462333,-2.97139 1.277946,-3.4399 3.716493,-2.13482 1.211987,0.64863 1.29216,0.49392 1.12284,-2.16667 L 78.333333,114.33333 81.651067,114 c 4.486453,-0.45076 5.221813,-1.8545 4.6919,-8.95646 -0.522314,-7.000029 -2.976694,-12.559635 -6.22518,-14.101142 -3.56418,-1.691313 -10.604647,-1.07962 -13.565316,1.178593 -5.307324,4.048094 -8.215399,12.888269 -10.925564,33.212339 -2.222432,16.66646 -3.238354,21.48869 -5.475805,25.99175 -0.999773,2.01212 -1.917769,3.88712 -2.039991,4.16666 -0.4457,1.01938 4.064155,0.4719 7.431968,-0.90222 z"
         style="fill:#7985bf;stroke-width:0.666667" />
      <path
         id="path110"
         d="M 0,160.33333 V 0 H 158 316 V 160.33333 320.66666 H 158 0 Z m 94.5,130.82762 c 1.185333,-0.9353 1.03078,-2.7807 -0.333333,-3.98008 -1.591707,-1.39947 -10.72932,-5.32385 -11.412727,-4.90148 -0.767933,0.47461 -1.414693,-13.85538 -1.4179,-31.41586 l -0.0027,-14.80311 -2.166666,-0.32754 C 77.975,235.55274 75.875,235.25801 74.5,235.07792 l -2.5,-0.32743 -5.33e-4,7.12475 c -3.47e-4,4.65223 0.852366,13.10676 2.457153,24.36229 2.274287,15.95122 2.373827,17.28447 1.333867,17.86646 -1.388194,0.77688 -1.63234,7.58928 -0.290487,8.10546 1.452087,0.55858 18.12968,-0.36176 19,-1.0485 z M 63.595341,290.2788 c 0.87656,-2.28428 0.232001,-3.4859 -4.262008,-7.94547 -2.566666,-2.547 -4.666666,-4.36396 -4.666666,-4.03768 0,0.32628 -0.172419,0.42082 -0.383153,0.21008 -0.414518,-0.41452 8.5324,-29.88954 11.743476,-38.68809 1.080303,-2.96011 1.891177,-5.44641 1.801937,-5.52511 -0.08925,-0.0787 -2.33726,-0.35717 -4.995594,-0.61881 C 58.749978,233.27182 58,233.3548 58,234.20848 c 0,0.55576 -1.011389,3.66121 -2.247531,6.90099 -2.164844,5.67381 -4.245044,15.65267 -5.74459,27.55719 -1.052188,8.35306 -1.282865,9.16257 -2.717894,9.53783 -1.408734,0.3684 -4.036886,5.47736 -3.515973,6.83484 0.175741,0.45798 2.923483,1.62812 6.106092,2.60032 3.182609,0.9722 6.986563,2.17732 8.453229,2.67803 3.58566,1.22412 4.780737,1.21529 5.262008,-0.0389 z M 275.14166,198.56243 c 5.23421,-1.95021 8.42758,-4.04927 13.36769,-8.78689 6.82174,-6.54212 12.72504,-16.84584 16.1044,-28.10888 2.64769,-8.82448 3.44515,-14.02535 3.8333,-25 0.6213,-17.56687 -1.92996,-31.01038 -8.41342,-44.333329 -8.88885,-18.265793 -21.96648,-27.906507 -36.36696,-26.809402 -8.27727,0.630606 -14.22262,3.774963 -23,12.164163 -7.38926,7.062473 -109.74596,99.046958 -113.05121,101.595288 -0.39483,0.30441 -1.29483,0.74514 -2,0.9794 -0.70517,0.23425 -2.03213,1.01429 -2.94879,1.73341 -1.24512,0.97679 -1.39224,1.31124 -0.58163,1.32231 0.59677,0.008 1.4585,-0.43517 1.91496,-0.98517 0.45646,-0.55 1.21385,-1 1.68308,-1 0.88338,0 2.59089,3.94825 1.97421,4.56493 -0.1918,0.1918 -1.61815,0.57258 -3.16967,0.84618 -2.08769,0.36815 -1.52127,0.43696 2.17905,0.26472 2.75,-0.12802 13.55,0.64313 24,1.71365 10.45,1.07052 38.65,3.90041 62.66666,6.28865 24.01667,2.38824 44.11667,4.45287 44.66667,4.58806 0.55,0.1352 3.76375,0.28061 7.14166,0.32314 4.79152,0.0603 6.98985,-0.23869 10,-1.36023 z M 117.01118,189.2814 c 3.31534,-1.024 4.28987,-1.58035 3.73689,-2.13333 -0.41144,-0.41144 -0.75173,-1.36307 -0.7562,-2.11474 -0.007,-1.12207 -0.99104,-1.68315 -5.5,-3.13501 -3.02053,-0.97258 -5.54248,-1.72197 -5.60435,-1.6653 -0.0619,0.0567 -0.31938,0.92743 -0.57227,1.93501 -0.35332,1.40777 -0.22062,1.83197 0.57313,1.83197 1.54017,0 1.92406,1.09232 0.78441,2.23196 -1.03837,1.03838 -1.3438,3.20814 -0.56168,3.99026 0.78106,0.78106 3.2943,0.48176 7.90007,-0.94082 z m -7.19792,0.30963 c -1.12837,-1.12837 -0.38769,-2.2577 1.48073,-2.2577 1.71824,0 3.27276,0.98881 2.60474,1.65683 -0.58086,0.58086 -3.65356,1.03278 -4.08547,0.60087 z M 54.381241,155.5494 c 4.654708,-1.58291 10.088476,-7.19138 13.165506,-13.58879 2.3029,-4.78793 5.191033,-14.42853 6.1296,-20.46061 0.462333,-2.97139 1.277946,-3.4399 3.716493,-2.13482 1.211987,0.64863 1.29216,0.49392 1.12284,-2.16667 L 78.333333,114.33333 81.651067,114 c 2.676593,-0.26892 3.488653,-0.65542 4.202166,-2 1.239374,-2.33554 0.50156,-11.49102 -1.21234,-15.043815 -0.71916,-1.490767 -1.30756,-3.230434 -1.30756,-3.865934 0,-1.661286 -4.988986,-3.72764 -9,-3.72764 -5.939993,0 -10.088475,2.839794 -13.229824,9.056314 -2.058994,4.074605 -3.851662,12.099255 -5.789152,25.914405 -2.512374,17.91433 -3.658638,23.1599 -6.028806,27.58922 -1.056343,1.97407 -1.760027,3.84907 -1.563742,4.16667 0.550598,0.89088 3.047469,0.68849 6.659432,-0.53982 z"
         style="fill:#a07290;stroke-width:0.666667" />
      <path
         id="path108"
         d="M 0,160.33333 V 0 H 158 316 V 160.33333 320.66666 H 158 0 Z m 94.5,130.82762 c 1.184987,-0.93502 1.030913,-2.779 -0.333333,-3.98942 -0.641667,-0.56932 -3.445187,-2.00884 -6.23004,-3.19894 l -5.06338,-2.16381 -0.434987,-14.40439 c -0.239247,-7.92242 -0.435727,-18.08682 -0.436627,-22.58756 -0.002,-9.3796 0.173287,-9.12878 -6.688793,-9.57809 L 71.666667,235 71.47316,242.66666 c -0.15274,6.05163 0.312427,11.16185 2.208173,24.25849 1.694967,11.70954 2.193294,16.80022 1.693507,17.3 -1.01156,1.01156 -0.908487,7.58668 0.12516,7.9843 1.452087,0.55858 18.12968,-0.36176 19,-1.0485 z M 63.595341,290.2788 c 0.87479,-2.27967 0.237076,-3.48087 -4.169499,-7.85367 l -4.574158,-4.53911 4.294515,-14.05938 c 2.361982,-7.73266 5.429242,-17.28083 6.816132,-21.21815 1.386889,-3.93733 2.332102,-7.46543 2.100469,-7.84021 -0.231627,-0.37479 -2.646801,-0.77598 -5.367046,-0.89152 l -4.9459,-0.2101 -2.240488,5.66667 c -2.882152,7.28956 -3.720275,10.99702 -5.864087,25.93991 -1.408038,9.81437 -2.013625,12.48563 -3.022726,13.33333 -1.6119,1.35409 -3.345377,5.5572 -2.713564,6.5795 0.470776,0.76173 15.999082,5.95605 18.186352,6.08346 0.602437,0.0351 1.277437,-0.41074 1.5,-0.99073 z M 275.14166,198.56243 c 5.23421,-1.95021 8.42758,-4.04927 13.36769,-8.78689 6.82174,-6.54212 12.72504,-16.84584 16.1044,-28.10888 2.64769,-8.82448 3.44515,-14.02535 3.8333,-25 0.6213,-17.56687 -1.92996,-31.01038 -8.41342,-44.333329 C 291.14478,74.067538 278.06715,64.426824 263.66667,65.523929 255.2261,66.166977 249.56902,69.222059 240,78.305025 c -3.11667,2.958353 -29.1796,26.522495 -57.91763,52.364765 -46.28793,41.62377 -57.36124,51.15901 -57.43598,49.45822 -0.0111,-0.25374 -0.32605,0.0637 -0.69979,0.70532 C 123.57287,181.475 122.83199,182 122.30021,182 c -0.53178,0 -0.96688,0.3 -0.96688,0.66666 0,1.0125 1.72911,0.79636 2.66667,-0.33333 1.30917,-1.57745 2.47405,-1.17837 3.2761,1.12239 0.878,2.51863 0.26391,3.13632 -3.2761,3.29534 l -2.33333,0.10481 2.66666,0.43529 c 1.46667,0.2394 2.95152,0.29214 3.29967,0.11718 1.37157,-0.68924 4.73325,-0.49236 23.03367,1.34906 10.45,1.0515 38.65,3.86582 62.66666,6.25406 24.01667,2.38824 44.11667,4.45287 44.66667,4.58806 0.55,0.1352 3.76375,0.28061 7.14166,0.32314 4.79152,0.0603 6.98985,-0.23869 10,-1.36023 z M 114.43971,190.4664 c 1.1153,0.42798 6.89362,-1.65262 6.89362,-2.4822 0,-0.3147 -0.3,-0.75759 -0.66666,-0.9842 C 120.3,186.77338 120,185.7566 120,184.74049 c 0,-1.70171 -0.3905,-1.98038 -4.94885,-3.53161 -2.72187,-0.92628 -5.26735,-1.48728 -5.65663,-1.2467 -0.97475,0.60243 -1.74425,4.70448 -0.88251,4.70448 0.37327,0 0.84997,0.4464 1.05934,0.992 0.20936,0.54561 0.16646,0.96008 -0.0953,0.92106 -1.15838,-0.17266 -1.33034,0.20047 -0.87574,1.90028 0.49266,1.8421 3.1557,3.1617 4.3143,2.13783 0.31968,-0.2825 1.00599,-0.35065 1.52514,-0.15143 z m -4.62645,-0.87537 c -1.12837,-1.12837 -0.38769,-2.2577 1.48073,-2.2577 1.71824,0 3.27276,0.98881 2.60474,1.65683 -0.58086,0.58086 -3.65356,1.03278 -4.08547,0.60087 z M 54.939861,155.29858 c 4.6695,-1.74709 9.517563,-6.915 12.706246,-13.54454 2.22684,-4.6298 5.103873,-14.30629 6.041126,-20.31848 0.472934,-3.03373 0.449347,-3.02265 4.312767,-2.02669 0.732967,0.18895 1.055253,-0.40979 1.206913,-2.24221 0.205274,-2.48029 0.23012,-2.5 3.151294,-2.5 4.40732,0 5.279133,-1.68726 4.788086,-9.26662 -0.52942,-8.171715 -2.991386,-13.326462 -7.161866,-14.995155 -5.722947,-2.289867 -12.899194,-0.650547 -16.149782,3.689213 -4.187467,5.590567 -5.931568,11.780522 -8.520288,30.239232 -2.512374,17.91433 -3.658638,23.1599 -6.028806,27.58922 -1.056343,1.97407 -1.760027,3.84907 -1.563742,4.16667 0.592059,0.95797 3.35266,0.65558 7.218052,-0.79064 z"
         style="fill:#6872b3;stroke-width:0.666667" />
      <path
         id="path106"
         d="M 0,160.33333 V 0 H 158 316 V 160.33333 320.66666 H 158 0 Z m 93,131.7479 c 1.758507,-0.37602 2,-0.70862 2,-2.75445 0,-2.26036 -0.161773,-2.40507 -5.666667,-5.0691 l -5.666666,-2.74231 -0.412867,-4.92436 c -0.227073,-2.70839 -0.452073,-12.61262 -0.5,-22.00939 -0.07243,-14.20111 -0.253807,-17.22336 -1.074553,-17.90452 -1.353794,-1.12354 -9.11774,-2.02104 -10.179247,-1.1767 -1.553287,1.23552 -0.95538,12.78881 1.564627,30.23329 1.927426,13.34236 2.254466,17.00138 1.666666,18.64697 -0.804893,2.25339 -0.9557,5.59215 -0.326633,7.23147 0.34066,0.88775 1.68498,1.04206 8.5,0.97566 C 87.357093,292.54439 91.9,292.31645 93,292.08123 Z m -29.023456,-2.03741 c 1.144357,-2.13825 0.871656,-2.66539 -3.952851,-7.64092 l -4.642973,-4.78832 1.944623,-6.25555 c 1.069543,-3.44056 1.791176,-6.50384 1.603629,-6.8073 -0.187547,-0.30345 -0.08,-0.55174 0.238983,-0.55174 0.516706,0 2.452706,-5.97115 2.485728,-7.66666 0.0071,-0.36667 0.162984,-0.81667 0.346317,-1 0.827023,-0.82702 6.59038,-19.42308 6.27466,-20.24583 -0.515973,-1.3446 -9.493518,-2.16223 -10.654993,-0.9704 -2.788181,2.86105 -7.341836,19.91829 -8.623764,32.30321 -0.88168,8.51804 -1.179785,9.96233 -2.321276,11.24635 -1.844504,2.07481 -3.443395,5.61714 -3.215081,7.12297 0.164377,1.08414 1.307761,1.68607 5.540454,2.91672 2.933333,0.85287 6.533333,1.9967 8,2.54185 3.788681,1.40822 6.150536,1.33903 6.976544,-0.20438 z M 274.14453,199.34317 c 22.76264,-7.03067 38.01148,-40.84136 34.55585,-76.61946 -2.95892,-30.635432 -18.53636,-53.833091 -38.55131,-57.409962 -9.7005,-1.733575 -18.77258,1.725864 -28.549,10.886537 -16.56227,15.519126 -113.7597,102.466375 -114.5461,102.466375 -0.50122,0 -1.10956,0.5166 -1.35184,1.14798 -0.3419,0.89098 -0.56104,0.953 -0.97884,0.27698 -0.39854,-0.64486 -0.63266,-0.51018 -0.90172,0.51869 -0.19988,0.76433 -0.8415,1.38969 -1.42582,1.38969 -0.58433,0 -1.06242,0.3 -1.06242,0.66666 0,1.0125 1.72911,0.79636 2.66667,-0.33333 0.45646,-0.55 1.21385,-1 1.68308,-1 0.88338,0 2.59089,3.94825 1.97421,4.56493 -0.1918,0.1918 -1.61815,0.5556 -3.16967,0.80845 l -2.82095,0.45973 2.5,0.0834 c 1.44295,0.0482 2.5,0.4192 2.5,0.87754 0,0.43674 0.44046,0.21174 0.9788,-0.5 0.53833,-0.71175 0.99051,-0.99409 1.00482,-0.62742 0.0145,0.37128 2.16544,0.70996 4.85454,0.76438 2.65568,0.0537 13.8285,1.03958 24.8285,2.19074 11,1.15118 23.15,2.40373 27,2.78345 3.85,0.37972 22.45,2.27805 41.33334,4.21852 18.88333,1.94047 36.32673,3.56895 38.7631,3.61885 2.77362,0.0568 6.03182,-0.4041 8.71476,-1.23277 z m -159.91651,-8.84691 c 0.53122,0.85954 5.30548,-0.0968 5.6505,-1.13182 0.12945,-0.38834 0.50974,-0.53651 0.84509,-0.32925 0.33534,0.20725 0.60972,-0.0732 0.60972,-0.62317 0,-0.55 -0.3,-1.18541 -0.66666,-1.41202 C 120.3,186.77338 120,185.62862 120,184.45608 c 0,-2.06189 -0.15546,-2.17949 -4.73353,-3.58074 -2.60344,-0.79687 -5.13511,-1.29474 -5.62593,-1.1064 -1.44875,0.55594 -1.90862,4.05822 -0.69255,5.27429 1.26891,1.26891 1.33049,1.67913 0.21868,1.45677 -0.49214,-0.0984 -0.75213,0.37924 -0.635,1.16666 0.36476,2.45205 0.75089,3 2.11408,3 0.74484,0 1.35425,0.35734 1.35425,0.79409 0,0.43675 0.40421,0.2413 0.89824,-0.43433 0.55606,-0.76046 1.06263,-0.96242 1.32978,-0.53016 z m -4.41476,-0.90523 c -1.12837,-1.12837 -0.38769,-2.2577 1.48073,-2.2577 1.71824,0 3.27276,0.98881 2.60474,1.65683 -0.58086,0.58086 -3.65356,1.03278 -4.08547,0.60087 z M 55.492389,155.5076 c 3.532088,-1.38827 9.392647,-8.01306 12.137951,-13.72078 2.231533,-4.63956 5.118727,-14.32728 6.046007,-20.28682 0.45082,-2.8974 1.5007,-3.54491 3.596533,-2.21814 1.672787,1.05896 2.835713,0.0635 2.37522,-2.03306 -0.40818,-1.85842 -0.341907,-1.91547 2.225073,-1.91547 1.614387,0 3.259314,-0.49771 4.21964,-1.27675 1.46052,-1.18482 1.56924,-1.72528 1.509754,-7.50532 -0.07002,-6.803415 -1.207974,-10.423389 -4.501274,-14.319095 -3.075346,-3.637887 -10.152446,-4.45798 -15.33652,-1.777194 -6.419009,3.3194 -9.77419,11.700169 -12.432728,31.055219 -3.102186,22.58497 -4.132945,27.20344 -7.021178,31.45949 -2.93004,4.31765 0.01,5.35665 7.181522,2.53792 z"
         style="fill:#5664af;stroke-width:0.666667" />
      <path
         id="path104"
         d="M 0,160.33333 V 0 H 158 316 V 160.33333 320.66666 H 158 0 Z m 94.95238,131.28571 c 1.10784,-1.10783 1.36436,-3.42219 0.525527,-4.74128 -0.27592,-0.4339 -2.930127,-1.88333 -5.89824,-3.22097 l -5.39656,-2.43207 -0.416327,-5.77903 c -0.22898,-3.17847 -0.448453,-12.99952 -0.487727,-21.82458 -0.06919,-15.5495 -0.114766,-16.07262 -1.474193,-16.9216 -1.868613,-1.16697 -9.2414,-2.04472 -10.27566,-1.22335 -0.442267,0.35124 -1.042267,0.49085 -1.333333,0.31024 -0.29106,-0.1806 -0.330894,3.76857 -0.08852,8.77594 0.41378,8.5485 1.008906,13.59635 3.50256,29.70859 0.64668,4.17837 0.871873,8.38178 0.613066,11.44341 -0.22498,2.66153 -0.2266,5.31461 -0.0033,5.89573 0.5998,1.56304 19.170907,1.57108 20.733013,0.009 z m -30.975836,-0.90855 c 1.427374,-2.66708 0.755051,-4.27827 -3.628568,-8.69574 l -4.318691,-4.35204 2.043414,-6.66469 c 1.123878,-3.66558 4.076246,-12.95949 6.560818,-20.65311 3.425356,-10.60682 4.350836,-14.25514 3.82839,-15.09172 -0.82284,-1.31757 -9.552072,-2.42969 -10.62777,-1.354 -0.364802,0.36481 -1.125934,0.48574 -1.691404,0.26875 -0.645655,-0.24776 -0.859274,-0.12132 -0.574232,0.33989 0.249642,0.40393 -0.4104,2.92991 -1.46676,5.61329 -2.635285,6.69419 -4.466298,15.48069 -6.156978,29.54554 -0.623359,5.18576 -1.137776,7.07015 -2.315777,8.48307 -1.739687,2.0866 -3.241997,6.15985 -2.747335,7.44891 0.185094,0.48235 2.237442,1.35933 4.560775,1.94883 2.323332,0.58952 6.324241,1.81017 8.890907,2.71256 5.754517,2.02318 6.769499,2.083 7.643211,0.45046 z M 95.722907,234 l 0.05627,-4.33334 -0.25376,4.12984 -0.253766,4.12985 -2.64076,0.26888 -2.64076,0.26889 2.838286,-0.0654 2.83828,-0.0654 0.05627,-4.33334 z m -8.876887,3.5627 c -0.451353,-0.18261 -1.351353,-0.19372 -2,-0.0247 -0.648647,0.16903 -0.279353,0.31844 0.820647,0.33203 1.1,0.0136 1.630706,-0.12471 1.179353,-0.30733 z m -34.012687,-4.00422 c -0.458333,-0.18494 -1.208333,-0.18494 -1.666666,0 -0.458334,0.18494 -0.08333,0.33626 0.833333,0.33626 0.916667,0 1.291667,-0.15132 0.833333,-0.33626 z m -4.142402,-3.39182 c -0.279409,-2.77647 -0.347398,-2.89187 -0.551776,-0.93653 -0.206883,1.97931 0.144093,4.1032 0.678059,4.1032 0.105817,0 0.04899,-1.425 -0.126283,-3.16667 z m 0.435286,-8 c -0.167685,-0.64166 -0.304882,-0.11666 -0.304882,1.16667 0,1.28333 0.137197,1.80833 0.304882,1.16667 0.167685,-0.64167 0.167685,-1.69167 0,-2.33334 z m 46.011956,-0.32556 c -0.15946,-0.82927 -0.295986,-0.30777 -0.303386,1.1589 -0.0074,1.46666 0.123073,2.14516 0.289933,1.50777 0.16686,-0.63739 0.172913,-1.83739 0.01347,-2.66667 z m -45.34943,-3.9661 c -0.212818,-0.53182 -0.370789,-0.37386 -0.402778,0.40278 -0.02895,0.70277 0.128618,1.09652 0.350146,0.875 0.221528,-0.22153 0.245212,-0.79654 0.05263,-1.27778 z m 44.681744,-6.04167 c -0.1589,-0.825 -0.288914,-0.15 -0.288914,1.5 0,1.65 0.130014,2.325 0.288914,1.5 0.158906,-0.825 0.158906,-2.175 0,-3 z m -44.028966,0 c -0.184942,-0.45833 -0.336258,-0.0833 -0.336258,0.83333 0,0.91667 0.151316,1.29167 0.336258,0.83334 0.184941,-0.45834 0.184941,-1.20834 0,-1.66667 z M 51.108187,206.5 c -0.184942,-0.45834 -0.336257,-0.0833 -0.336257,0.83333 0,0.91667 0.151315,1.29167 0.336257,0.83333 0.184942,-0.45833 0.184942,-1.20833 0,-1.66666 z m 42.6847,-3.66667 C 93.6252,202.19166 93.488,202.71666 93.488,204 c 0,1.28333 0.1372,1.80833 0.304887,1.16666 0.16768,-0.64166 0.16768,-1.69166 0,-2.33333 z M 51.788743,201.875 c -0.212818,-0.53182 -0.370789,-0.37386 -0.402778,0.40278 -0.02895,0.70277 0.128618,1.09652 0.350146,0.875 0.221528,-0.22153 0.245212,-0.79654 0.05263,-1.27778 z m 221.234887,-1.57584 c 16.72477,-4.35624 30.03988,-22.7549 35.06854,-48.45726 1.89106,-9.66554 2.05524,-27.73843 0.33166,-36.50857 -3.66092,-18.627979 -10.12736,-31.946712 -19.90634,-41.000558 -14.71806,-13.626665 -31.41408,-13.344456 -46.74881,0.790186 -9.25405,8.529827 -20.43255,18.664527 -31.78761,28.819422 -7.13958,6.38497 -17.16722,15.38497 -22.28364,20 -18.30896,16.51475 -24.96065,22.5015 -33.39607,30.05762 -4.70736,4.21666 -10.69101,9.61666 -13.29699,12 -9.95096,9.10076 -13.56823,12.03257 -15.74942,12.76497 -1.24022,0.41644 -2.7831,1.21403 -3.42862,1.77242 -1.05212,0.91013 -1.63822,0.90246 -5.65986,-0.074 -2.46741,-0.59909 -4.58301,-1.37969 -4.70134,-1.73466 -0.11832,-0.35498 -0.80576,-0.0548 -1.52763,0.66709 -1.46741,1.46741 -2.49605,5.27083 -1.42549,5.27083 0.37327,0 0.8375,0.41389 1.03162,0.91976 0.26972,0.70288 -0.22435,0.86315 -2.09534,0.6797 -1.34656,-0.13204 -2.07329,-0.0709 -1.61496,0.1358 0.45834,0.20672 0.83334,1.06762 0.83334,1.91311 0,0.84549 0.54914,2.21541 1.2203,3.04427 1.215,1.50046 1.24182,1.50248 6.16667,0.46401 2.7205,-0.57365 5.84636,-1.35373 6.94636,-1.73349 5.03781,-1.73926 11.44197,-2.28254 17.75507,-1.50621 5.78073,0.71087 31.11812,3.33433 45.9116,4.75375 3.48333,0.33422 15.33333,1.52658 26.33333,2.6497 11,1.12312 24.8,2.51412 30.66667,3.0911 5.86666,0.57699 12.76666,1.27971 15.33333,1.5616 7.6543,0.84066 11.82921,0.75191 16.02363,-0.3406 z m -165.04204,-9.66688 c -0.40258,-0.75226 -0.61592,-2.02726 -0.47408,-2.83334 0.26728,-1.5189 0.50966,-1.21126 1.47157,1.86772 0.17182,0.55 0.92182,1 1.66667,1 0.74484,0 1.35425,0.3 1.35425,0.66667 0,1.26511 -3.27161,0.69433 -4.01841,-0.70105 z m 5.02513,0.0235 c 0.23031,-0.37265 0.69801,-0.50495 1.03935,-0.29399 0.92469,0.57149 0.75227,0.97153 -0.41875,0.97153 -0.57164,0 -0.85091,-0.30489 -0.6206,-0.67754 z m -3.19346,-1.06476 c -1.12837,-1.12839 -0.38769,-2.25772 1.48073,-2.25772 1.71824,0 3.27276,0.98881 2.60474,1.65683 -0.58086,0.58086 -3.65356,1.03278 -4.08547,0.60087 z m 11.01377,-2.24865 c -1.36265,-2.18196 -0.97194,-4.87295 0.90618,-6.24123 0.93022,-0.6777 1.85084,-1.07266 2.04581,-0.87769 0.57013,0.57014 -0.43831,1.77654 -1.48503,1.77654 -0.52836,0 -0.96066,0.3 -0.96066,0.66666 0,1.0125 1.72911,0.79636 2.66667,-0.33333 0.45646,-0.55 1.21385,-1 1.68308,-1 0.88338,0 2.59089,3.94825 1.97421,4.56493 -0.1918,0.1918 -1.61815,0.5556 -3.16967,0.80845 l -2.82095,0.45973 2.5,0.0834 c 3.26596,0.10902 3.26014,1.41678 -0.006,1.41678 -1.7786,0 -2.74644,-0.38451 -3.33334,-1.32428 z m 6.83964,-0.009 c 0.22661,-0.36667 0.54432,-0.66667 0.70601,-0.66667 0.16169,0 0.29399,0.3 0.29399,0.66667 0,0.36667 -0.31771,0.66667 -0.70602,0.66667 -0.3883,0 -0.5206,-0.3 -0.29398,-0.66667 z m -3,-7.33333 c 0,-0.36667 0.3177,-0.66667 0.70601,-0.66667 0.38831,0 0.5206,0.3 0.29399,0.66667 -0.22662,0.36666 -0.54432,0.66666 -0.70602,0.66666 -0.16169,0 -0.29398,-0.3 -0.29398,-0.66666 z m -72.225149,15.83333 c -0.184942,-0.45833 -0.336258,-0.0833 -0.336258,0.83333 0,0.91667 0.151316,1.29167 0.336258,0.83334 0.184941,-0.45834 0.184941,-1.20834 0,-1.66667 z m 40.695632,-2 c -0.1589,-0.825 -0.288913,-0.15 -0.288913,1.5 0,1.65 0.130013,2.325 0.288913,1.5 0.158907,-0.825 0.158907,-2.175 0,-3 z m -40.015077,-2.625 c -0.212817,-0.53182 -0.370789,-0.37385 -0.402778,0.40278 -0.02895,0.70277 0.128619,1.09653 0.350147,0.875 0.221527,-0.22153 0.245212,-0.79653 0.05263,-1.27778 z m 39.339917,-3.69565 c -0.169026,-0.64864 -0.31844,-0.27935 -0.332026,0.82065 -0.0136,1.1 0.124706,1.63071 0.307326,1.17935 0.182614,-0.45135 0.193727,-1.35135 0.02473,-2 z M 53.774854,185.1667 c -0.184942,-0.45833 -0.336257,-0.0833 -0.336257,0.83334 0,0.91666 0.151315,1.29166 0.336257,0.83333 0.184941,-0.45833 0.184941,-1.20833 0,-1.66667 z m 43.558479,-2.5 c -0.55,-0.35544 -1.3,-0.64624 -1.666666,-0.64624 -0.366667,0 -0.216667,0.2908 0.333333,0.64624 0.55,0.35544 1.3,0.64625 1.666667,0.64625 0.366666,0 0.216666,-0.29081 -0.333334,-0.64625 z m -42.871339,-3.15398 c -0.169029,-0.64864 -0.318442,-0.27935 -0.332028,0.82065 -0.01359,1.1 0.12471,1.63071 0.307325,1.17935 0.182616,-0.45135 0.193732,-1.35135 0.0247,-2 z m 38.871339,1.41599 c 0,-0.1441 -0.45,-0.26201 -1,-0.26201 -0.55,0 -1,0.29059 -1,0.64575 0,0.35515 0.45,0.47306 1,0.26201 0.55,-0.21106 1,-0.50164 1,-0.64575 z M 55.108187,174.5 c -0.184942,-0.45834 -0.336257,-0.0833 -0.336257,0.83333 0,0.91667 0.151315,1.29167 0.336257,0.83333 0.184942,-0.45833 0.184942,-1.20833 0,-1.66666 z m 53.558483,1.19012 c 0,-0.17044 -0.675,-0.63698 -1.5,-1.03678 -1.44042,-0.69802 -1.4486,-0.68572 -0.20592,0.30988 1.36018,1.08972 1.70592,1.23704 1.70592,0.7269 z M 105,173.33333 c -0.22661,-0.36667 -0.76932,-0.66207 -1.20601,-0.65646 -0.47708,0.006 -0.39485,0.26815 0.20601,0.65646 1.28075,0.82769 1.51153,0.82769 1,0 z m -49.207116,-4.5 c -0.167685,-0.64167 -0.304882,-0.11667 -0.304882,1.16667 0,1.28333 0.137197,1.80833 0.304882,1.16666 0.167685,-0.64166 0.167685,-1.69166 0,-2.33333 z M 94,167.02345 c 0,-0.17043 -0.675,-0.63698 -1.5,-1.03677 -1.44042,-0.69803 -1.448593,-0.68572 -0.205913,0.30987 C 93.65426,167.38628 94,167.5336 94,167.02345 Z m -37.558479,-3.19012 c -0.184942,-0.45833 -0.336258,-0.0833 -0.336258,0.83333 0,0.91667 0.151316,1.29167 0.336258,0.83334 0.184941,-0.45834 0.184941,-1.20834 0,-1.66667 z m 33.353806,-3.65398 C 89.6263,159.5307 89.476887,159.9 89.4633,161 c -0.0136,1.1 0.124707,1.6307 0.307327,1.17935 0.182613,-0.45135 0.193726,-1.35135 0.02473,-2 z M 57.108187,158.5 c -0.184942,-0.45834 -0.336257,-0.0833 -0.336257,0.83333 0,0.91667 0.151315,1.29167 0.336257,0.83333 0.184942,-0.45833 0.184942,-1.20833 0,-1.66666 z m -2.117754,-1.9716 C 56.645695,156.08568 58,155.45078 58,155.1175 c 0,-0.33328 1.643654,-2.3813 3.652564,-4.55116 2.046435,-2.2104 4.675021,-6.07099 5.977776,-8.77952 2.240313,-4.6578 5.117453,-14.32505 6.056893,-20.35126 0.4248,-2.72496 0.55692,-2.87245 2.215587,-2.4732 0.970113,0.23352 2.213847,0.4534 2.763847,0.48864 0.55,0.0353 1.36134,0.34858 1.802986,0.69631 0.617027,0.48583 0.655627,0.11843 0.166667,-1.58647 C 80.28634,117.34055 80,116.26515 80,116.17106 80,116.07698 80.885887,116 81.968633,116 c 5.720514,0 7.334227,-3.43225 6.088354,-12.94945 -1.35188,-10.326899 -5.295214,-14.402239 -13.903814,-14.369245 -7.272653,0.02787 -11.752608,3.607146 -14.838669,11.855385 -2.139619,5.71864 -3.140939,10.73557 -5.335324,26.73169 -2.162403,15.76297 -3.632146,21.71845 -6.347243,25.71937 -0.939701,1.38473 -1.550725,2.92896 -1.357832,3.43163 0.440348,1.14753 4.637184,1.20002 8.716328,0.10902 z M 89.108187,154.5 c -0.18494,-0.45834 -0.33626,-0.0833 -0.33626,0.83333 0,0.91667 0.15132,1.29167 0.33626,0.83333 0.18494,-0.45833 0.18494,-1.20833 0,-1.66666 z m -0.65278,-4.625 c -0.212814,-0.53182 -0.370787,-0.37386 -0.402774,0.40278 -0.02893,0.70277 0.128614,1.09652 0.350147,0.875 0.221527,-0.22154 0.245207,-0.79654 0.0526,-1.27778 z m -0.680554,-6.04167 c -0.18494,-0.45833 -0.33626,-0.0833 -0.33626,0.83333 0,0.91667 0.15132,1.29167 0.33626,0.83334 0.18494,-0.45834 0.18494,-1.20834 0,-1.66667 z m -0.666666,-4 c -0.18494,-0.45833 -0.33626,-0.0833 -0.33626,0.83333 0,0.91667 0.15132,1.29167 0.33626,0.83334 0.18494,-0.45834 0.18494,-1.20834 0,-1.66667 z m -0.65278,-3.29167 c -0.212814,-0.53182 -0.370787,-0.37385 -0.402774,0.40278 -0.02893,0.70278 0.128614,1.09653 0.350147,0.875 0.221527,-0.22153 0.245207,-0.79653 0.0526,-1.27778 z m -0.666667,-4 c -0.212813,-0.53182 -0.370787,-0.37385 -0.402773,0.40278 -0.02893,0.70278 0.128613,1.09653 0.350146,0.875 0.221527,-0.22153 0.245207,-0.79653 0.0526,-1.27778 z"
         style="fill:#4b5cac;stroke-width:0.666667" />
      <path
         id="path102"
         d="m 52.333333,296.88889 c -12.579108,-0.41537 -31.433223,-2.0782 -37.166666,-3.27789 -1.760417,-0.36835 -2.465297,-1.80841 -1.252175,-2.55816 1.331289,-0.82278 14.447552,-2.35223 23.867509,-2.78311 l 10.115334,-0.46269 7.105984,2.22526 c 7.541185,2.36155 9.115044,2.27045 9.536704,-0.55198 0.330326,-2.21107 1.764227,-2.90164 5.572524,-2.68371 l 3.55412,0.20338 0.216333,2.65802 c 0.11898,1.46191 0.56898,2.89232 1,3.1787 1.078853,0.71682 19.251673,-0.18224 20.283667,-1.00348 C 95.625,291.46849 96,290.4568 96,289.58503 c 0,-1.36272 0.322673,-1.58504 2.30052,-1.58504 5.09735,0 12.68259,2.12574 13.29681,3.72638 1.65612,4.31579 -22.137537,6.38846 -59.263997,5.16252 z m 32.67512,-59.38397 c -1.46202,-0.14902 -3.031353,-0.58062 -3.48742,-0.95912 -1.10904,-0.92042 -9.00566,-1.85174 -9.87706,-1.16488 -0.886686,0.6989 -2.953906,0.39758 -3.53062,-0.51463 -0.584626,-0.92474 -9.838271,-1.85073 -10.34245,-1.03495 -0.231471,0.37452 -2.034358,0.32039 -4.576419,-0.13742 L 49,232.93852 48.829161,229.96926 c -0.09396,-1.6331 1.878986,-19.22294 4.384328,-39.08855 l 4.555166,-36.11929 3.768237,-4.07014 c 2.154626,-2.32726 4.763923,-6.14027 6.093448,-8.90446 2.240313,-4.6578 5.117453,-14.32505 6.056893,-20.35126 0.425274,-2.72802 0.55506,-2.87237 2.215587,-2.4642 0.970113,0.23846 2.296547,0.43552 2.94762,0.43791 1.37616,0.005 4.21518,4.01581 5.17574,7.31191 1.160867,3.98343 3.288633,16.59204 4.653033,27.57271 0.801507,6.45055 1.648054,10.83814 2.153967,11.16387 0.45842,0.29516 4.983113,2.97756 10.05489,5.96088 5.07176,2.98333 9.39551,5.87797 9.60832,6.43254 0.2128,0.55456 -0.11079,1.37222 -0.7191,1.81703 -1.27502,0.93232 -2.3043,4.99845 -1.26528,4.99845 0.37327,0 0.8375,0.41389 1.03162,0.91976 0.58867,1.53406 -3.86122,0.56509 -11.063803,-2.40917 -3.5861,-1.48085 -6.614947,-2.57654 -6.73078,-2.43485 -0.115834,0.14168 0.17914,4.7576 0.655486,10.2576 1.459247,16.84861 2.9288,38.30774 2.9288,42.76767 V 238 L 91.5,237.88793 c -2.108333,-0.0617 -5.029527,-0.23399 -6.491547,-0.38301 z m 22.973137,-46.87264 c -0.40258,-0.75226 -0.61592,-2.02726 -0.47408,-2.83334 0.26728,-1.5189 0.50966,-1.21126 1.47157,1.86772 0.17182,0.55 0.92182,1 1.66667,1 0.74484,0 1.35425,0.3 1.35425,0.66667 0,1.26511 -3.27161,0.69433 -4.01841,-0.70105 z m 5.02513,0.0235 c 0.23031,-0.37265 0.69801,-0.50495 1.03935,-0.29399 0.92469,0.57149 0.75227,0.97153 -0.41875,0.97153 -0.57164,0 -0.85091,-0.30489 -0.6206,-0.67754 z m -3.19346,-1.06476 c -1.12837,-1.12839 -0.38769,-2.25772 1.48073,-2.25772 1.71824,0 3.27276,0.98881 2.60474,1.65683 -0.58086,0.58086 -3.65356,1.03278 -4.08547,0.60087 z m 11.01377,-2.24865 c -1.36265,-2.18196 -0.97194,-4.87295 0.90618,-6.24123 0.93022,-0.6777 1.85084,-1.07266 2.04581,-0.87769 0.57013,0.57014 -0.43831,1.77654 -1.48503,1.77654 -0.52836,0 -0.96066,0.3 -0.96066,0.66666 0,1.0125 1.72911,0.79636 2.66667,-0.33333 0.45646,-0.55 1.21385,-1 1.68308,-1 0.88338,0 2.59089,3.94825 1.97421,4.56493 -0.1918,0.1918 -1.61815,0.5556 -3.16967,0.80845 l -2.82095,0.45973 2.5,0.0834 c 3.26596,0.10902 3.26014,1.41678 -0.006,1.41678 -1.7786,0 -2.74644,-0.38451 -3.33334,-1.32428 z m 6.83964,-0.009 c 0.22661,-0.36667 0.54432,-0.66667 0.70601,-0.66667 0.16169,0 0.29399,0.3 0.29399,0.66667 0,0.36667 -0.31771,0.66667 -0.70602,0.66667 -0.3883,0 -0.5206,-0.3 -0.29398,-0.66667 z m -3,-7.33333 c 0,-0.36667 0.3177,-0.66667 0.70601,-0.66667 0.38831,0 0.5206,0.3 0.29399,0.66667 -0.22662,0.36666 -0.54432,0.66666 -0.70602,0.66666 -0.16169,0 -0.29398,-0.3 -0.29398,-0.66666 z"
         style="fill:#7a5d7b;stroke-width:0.666667" />
      <path
         id="path100"
         d="m 52.333333,296.88889 c -12.579108,-0.41537 -31.433223,-2.0782 -37.166666,-3.27789 -1.760417,-0.36835 -2.465297,-1.80841 -1.252175,-2.55816 1.331289,-0.82278 14.447552,-2.35223 23.867509,-2.78311 l 10.115334,-0.46269 7.105984,2.22526 c 7.541185,2.36155 9.115044,2.27045 9.536704,-0.55198 0.330326,-2.21107 1.764227,-2.90164 5.572524,-2.68371 l 3.55412,0.20338 0.216333,2.65802 c 0.11898,1.46191 0.56898,2.89232 1,3.1787 1.078853,0.71682 19.251673,-0.18224 20.283667,-1.00348 C 95.625,291.46849 96,290.4568 96,289.58503 c 0,-1.36272 0.322673,-1.58504 2.30052,-1.58504 5.09735,0 12.68259,2.12574 13.29681,3.72638 1.65612,4.31579 -22.137537,6.38846 -59.263997,5.16252 z M 87,236.91292 c -3.3,-0.44768 -7.913507,-1.08572 -10.25224,-1.41785 -2.338727,-0.33213 -5.188727,-0.54488 -6.333333,-0.47277 -1.1446,0.0721 -2.247834,-0.12685 -2.45162,-0.44212 -0.203794,-0.31528 -3.353791,-0.74346 -7.000001,-0.95154 -3.64621,-0.20807 -7.679473,-0.59538 -8.962806,-0.8607 -2.151395,-0.44478 -2.346713,-0.68846 -2.504933,-3.12517 -0.09438,-1.45353 1.9011,-19.06841 4.434401,-39.14419 l 4.606002,-36.50142 3.400594,-3.72079 c 1.870327,-2.04644 4.439845,-5.88149 5.710043,-8.52233 2.22684,-4.6298 5.103873,-14.30629 6.041126,-20.31848 0.424014,-2.71992 0.559994,-2.87262 2.215587,-2.48804 0.970113,0.22535 2.14808,0.49829 2.617693,0.60654 1.397754,0.32218 3.97264,4.6385 5.07238,8.50289 1.227874,4.31464 3.2413,16.34577 4.7321,28.27638 0.59562,4.76667 1.32688,8.91239 1.625014,9.21271 0.29814,0.30032 4.679446,3.00032 9.736233,6 8.86295,5.25748 11.64691,7.59418 9.83487,8.25486 -0.44673,0.16288 -1.00961,1.34826 -1.25085,2.63418 -0.24124,1.28592 -0.85189,2.49662 -1.35699,2.69045 -0.50512,0.19383 -3.99223,-0.88145 -7.749157,-2.3895 -3.756933,-1.50805 -7.209326,-2.74059 -7.671993,-2.73897 -0.590893,0.002 -0.734873,0.74685 -0.483847,2.50294 0.67002,4.68728 3.658394,45.69276 3.658394,50.19928 0,3.00568 -0.27566,4.58009 -0.833334,4.75951 C 93.375,237.60625 90.3,237.36061 87,236.91292 Z m 21.8,-46.37959 c -0.44,-0.44 -0.77009,-1.415 -0.73355,-2.16667 0.0565,-1.16099 0.13536,-1.1195 0.52432,0.27569 0.26688,0.95731 1.1429,1.83333 2.10021,2.10021 1.39519,0.38896 1.43668,0.46786 0.27569,0.52432 -0.75167,0.0365 -1.72667,-0.29355 -2.16667,-0.73355 z m 1.01326,-0.9423 c -1.12837,-1.12837 -0.38769,-2.2577 1.48073,-2.2577 1.71824,0 3.27276,0.98881 2.60474,1.65683 -0.58086,0.58086 -3.65356,1.03278 -4.08547,0.60087 z M 120.8,187.2 c -0.44,-0.44 -0.8,-1.64572 -0.8,-2.67937 0,-1.63386 0.20241,-1.82857 1.54947,-1.49048 0.98351,0.24685 1.8656,0.008 2.41496,-0.65396 1.34366,-1.61901 2.50266,-1.24121 3.31167,1.07953 0.878,2.51863 0.26391,3.13632 -3.2761,3.29534 l -2.33333,0.10481 2.66666,0.47746 2.66667,0.47746 -2.7,0.0946 c -1.485,0.0521 -3.06,-0.26539 -3.5,-0.70539 z"
         style="fill:#9a5c5b;stroke-width:0.666667" />
      <path
         id="path98"
         d="m 52.333333,296.88889 c -12.579108,-0.41537 -31.433223,-2.0782 -37.166666,-3.27789 -1.760417,-0.36835 -2.465297,-1.80841 -1.252175,-2.55816 1.331289,-0.82278 14.447552,-2.35223 23.867509,-2.78311 l 10.115334,-0.46269 7.105984,2.22526 c 7.541185,2.36155 9.115044,2.27045 9.536704,-0.55198 0.330326,-2.21107 1.764227,-2.90164 5.572524,-2.68371 l 3.55412,0.20338 0.216333,2.65802 c 0.11898,1.46191 0.56898,2.89232 1,3.1787 1.078853,0.71682 19.251673,-0.18224 20.283667,-1.00348 C 95.625,291.46849 96,290.4568 96,289.58503 c 0,-1.36272 0.322673,-1.58504 2.30052,-1.58504 5.09735,0 12.68259,2.12574 13.29681,3.72638 1.65612,4.31579 -22.137537,6.38846 -59.263997,5.16252 z m 36.239034,-60.53875 c -0.174087,-0.17409 -3.540334,-0.48769 -7.48054,-0.69689 -3.940207,-0.2092 -7.9173,-0.66677 -8.837987,-1.01681 -0.920687,-0.35004 -3.22944,-0.65432 -5.130573,-0.67618 -1.90113,-0.0219 -4.9566,-0.31541 -6.789934,-0.65234 -1.833333,-0.33692 -4.784996,-0.81398 -6.55925,-1.06014 -1.774254,-0.24614 -3.374142,-0.83381 -3.555306,-1.30592 -0.181166,-0.4721 1.835166,-18.20216 4.480737,-39.40012 L 59.509642,153 l 2.932547,-3.2618 c 4.894298,-5.44379 9.481558,-16.97434 11.234158,-28.2382 0.506533,-3.25549 1.74918,-3.66818 4.508866,-1.49741 3.74982,2.94961 5.8407,10.55012 8.435614,30.66407 0.780513,6.05 1.574466,11.97896 1.76434,13.17548 0.317233,1.9991 1.150866,2.64767 10.282773,8 5.46565,3.20348 10.09833,6.21629 10.29485,6.69512 0.40386,0.98405 -1.14489,5.08457 -2.15658,5.70982 -0.36474,0.22543 -4.02066,-0.97264 -8.12427,-2.66236 -4.648713,-1.91418 -7.696967,-2.83636 -8.08684,-2.44649 -0.389873,0.38987 -6.67e-4,8.52313 1.0319,21.57709 0.9117,11.52324 1.861287,24.32634 2.1102,28.45134 l 0.452567,7.5 h -2.65044 c -1.45774,0 -2.792874,-0.14243 -2.96696,-0.31652 z m 21.240893,-46.75911 c -1.12837,-1.12837 -0.38769,-2.2577 1.48073,-2.2577 1.71824,0 3.27276,0.98881 2.60474,1.65683 -0.58086,0.58086 -3.65356,1.03278 -4.08547,0.60087 z M 122,186.05452 c 0,-0.33668 -0.18209,-1.08668 -0.40466,-1.66666 -0.25701,-0.66976 -0.0435,-1.05453 0.58504,-1.05453 0.54433,0 1.36316,-0.45 1.81962,-1 1.30917,-1.57745 2.47405,-1.17837 3.2761,1.12239 0.57063,1.63691 0.54743,2.24455 -0.10145,2.65646 C 126.01279,186.84973 122,186.80502 122,186.05452 Z"
         style="fill:#ed5c02;stroke-width:0.666667" />
      <path
         id="path96"
         d="m 52.333333,296.88889 c -12.579108,-0.41537 -31.433223,-2.0782 -37.166666,-3.27789 -1.760417,-0.36835 -2.465297,-1.80841 -1.252175,-2.55816 1.331289,-0.82278 14.447552,-2.35223 23.867509,-2.78311 l 10.115334,-0.46269 7.105984,2.22526 c 7.541185,2.36155 9.115044,2.27045 9.536704,-0.55198 0.330326,-2.21107 1.764227,-2.90164 5.572524,-2.68371 l 3.55412,0.20338 0.216333,2.65802 c 0.11898,1.46191 0.56898,2.89232 1,3.1787 1.078853,0.71682 19.251673,-0.18224 20.283667,-1.00348 C 95.625,291.46849 96,290.4568 96,289.58503 c 0,-1.36272 0.322673,-1.58504 2.30052,-1.58504 5.09735,0 12.68259,2.12574 13.29681,3.72638 1.65612,4.31579 -22.137537,6.38846 -59.263997,5.16252 z"
         style="fill:#3a4c8b;stroke-width:0.666667" />
    </g>
  </g>
</svg>
